G04 ================== begin FILE IDENTIFICATION RECORD ==================*
G04 Layout Name:  LAY-93440_A.brd*
G04 Film Name:    L4_SS.art*
G04 File Format:  Gerber RS274X*
G04 File Origin:  Cadence Allegro 17.4-S021*
G04 Origin Date:  Fri Mar 15 10:31:20 2024*
G04 *
G04 Layer:  BOARD GEOMETRY/DESIGN_OUTLINE*
G04 Layer:  VIA CLASS/BOTTOM*
G04 Layer:  PIN/BOTTOM*
G04 Layer:  PACKAGE GEOMETRY/SHORT_LAYER_BOTTOM*
G04 Layer:  ETCH/BOTTOM*
G04 Layer:  DRAWING FORMAT/FILM_TITLE_BLOCK*
G04 *
G04 Offset:    (0.00 0.00)*
G04 Mirror:    No*
G04 Mode:      Positive*
G04 Rotation:  0*
G04 FullContactRelief:  No*
G04 UndefLineWidth:     8.00*
G04 ================== end FILE IDENTIFICATION RECORD ====================*
%FSLAX55Y55*MOIN*%
%IR0*IPPOS*OFA0.00000B0.00000*MIA0B0*SFA1.00000B1.00000*%
%ADD10C,.02*%
%ADD13C,.04*%
%ADD17C,.06*%
%ADD19C,.016*%
%ADD15C,.026*%
%ADD20C,.018*%
%ADD21C,.065*%
%ADD14R,.04X.04*%
%ADD25C,.066*%
%ADD24C,.067*%
%ADD18R,.06X.06*%
%ADD16R,.026X.026*%
%ADD22R,.065X.065*%
%ADD26R,.066X.066*%
%ADD23R,.067X.067*%
%ADD27O,.07X.045*%
%ADD12O,.094X.035*%
%ADD11O,.067X.035*%
%ADD28C,.01*%
%ADD29C,.012*%
%ADD30C,.025*%
%ADD31C,.008*%
%ADD32C,.006*%
%ADD33C,.0044*%
%ADD34C,.0035*%
%ADD36C,.03204*%
%ADD38C,.02404*%
%ADD39C,.03404*%
%ADD40C,.02604*%
%ADD35C,.07204*%
%ADD41C,.07704*%
%ADD37R,.48704X.08904*%
G75*
%LPD*%
G75*
G36*
G01X6205Y202299D02*
X336282D01*
G02X336648Y201458I0J-500D01*
G03X334498Y196000I5853J-5458D01*
G03X342500Y187998I8002J0D01*
G03X348429Y190625I1J8002D01*
G02X349299Y190289I370J-336D01*
G01Y5711D01*
G02X348429Y5375I-500J0D01*
G03X342500Y8002I-5928J-5375D01*
G03X334498Y0I0J-8002D01*
G03X339313Y-7340I8002J0D01*
G02X339114Y-8299I-199J-459D01*
G01X3386D01*
G02X3187Y-7340I0J500D01*
G03X8002Y0I-3187J7340D01*
G03X0Y8002I-8002J0D01*
G03X-5458Y5852I0J-8003D01*
G02X-6299Y6218I-341J366D01*
G01Y53701D01*
X-6250Y53750D01*
Y63250D01*
X-5000Y64500D01*
X17000D01*
X18000Y65500D01*
Y85122D01*
X23824D01*
G03X24311Y85293I1J776D01*
G01X24380Y85348D01*
X31562D01*
G02X32061Y84890I1J-500D01*
G03X33657Y83422I1596J134D01*
G03X33917Y83443I1J1602D01*
G02X34498Y82950I81J-493D01*
G01Y25085D01*
X34500Y25084D01*
Y24500D01*
X35500Y23500D01*
X36084D01*
X36085Y23498D01*
X80585D01*
X81998Y22085D01*
Y7502D01*
X31415D01*
X29002Y9915D01*
Y56415D01*
X27915Y57502D01*
X7585D01*
X5998Y55915D01*
Y47085D01*
X7585Y45498D01*
X12784D01*
G02X13222Y44757I0J-500D01*
G03X12898Y43500I2278J-1257D01*
G03X13960Y41403I2601J0D01*
G02Y40597I-296J-403D01*
G03Y36403I1539J-2097D01*
G02Y35597I-296J-403D01*
G03X13403Y35040I1540J-2097D01*
G02X12597I-403J296D01*
G03X10500Y36102I-2097J-1539D01*
G03X7898Y33500I0J-2602D01*
G03X8960Y31403I2601J0D01*
G02Y30597I-296J-403D01*
G03X7898Y28500I1539J-2097D01*
G03X10500Y25898I2602J0D01*
G03X12597Y26960I0J2601D01*
G02X13403I403J-296D01*
G03X15500Y25898I2097J1539D01*
G03X16757Y26222I0J2602D01*
G02X17498Y25784I241J-438D01*
G01Y6085D01*
X22585Y998D01*
X34085D01*
X36085Y-1002D01*
X112001D01*
X117000Y-6000D01*
X282000D01*
X286000Y-2000D01*
Y14000D01*
X289000Y17000D01*
X292194D01*
X292246Y16974D01*
G03X293754I754J1527D01*
G01X293806Y17000D01*
X335500D01*
X344500Y26000D01*
Y178500D01*
X325000Y198000D01*
X94500D01*
X92000Y195500D01*
Y176322D01*
X44110D01*
X44101Y176562D01*
G03X42500Y178102I-1601J-62D01*
G03Y174898I0J-1602D01*
G03X42892Y174947I-1J1602D01*
G01X42919Y174919D01*
G03X43500Y174678I581J580D01*
G01X92821D01*
X94500Y173000D01*
X110500D01*
X115500Y168000D01*
Y154000D01*
X114001Y152502D01*
X89585D01*
X89584Y152500D01*
X89500D01*
X86000Y149000D01*
Y148916D01*
X85998Y148915D01*
Y141542D01*
G02X85380Y141056I-500J0D01*
G03X85000Y141102I-381J-1556D01*
G03Y137898I0J-1602D01*
G03X85380Y137944I-1J1602D01*
G02X85998Y137458I118J-486D01*
G01Y114585D01*
X86000Y114584D01*
Y110128D01*
X50055D01*
X41956Y118226D01*
Y143720D01*
G03X41319Y145259I-2176J1D01*
G01X39634Y146944D01*
G03X38095Y147582I-1540J-1539D01*
G01X36161D01*
X35696Y148046D01*
G03X34157Y148684I-1540J-1539D01*
G03X32618Y148046I1J-2177D01*
G01X32153Y147582D01*
X23997D01*
X23862Y147716D01*
G03X22323Y148354I-1540J-1539D01*
G01X18000D01*
Y165000D01*
X16500Y166500D01*
X-5500D01*
X-6299Y167299D01*
Y189774D01*
G02X-5460Y190141I500J0D01*
G03X-37Y188024I5422J5885D01*
G03X7966Y196026I0J8003D01*
G03X5838Y201460I-8002J0D01*
G02X6205Y202299I367J339D01*
G37*
G36*
G01X239000Y65000D02*
X244000D01*
X244500Y64500D01*
Y59000D01*
X244000Y58500D01*
X199000D01*
X186000Y45500D01*
X115000D01*
X113000Y43500D01*
Y30752D01*
G03Y28248I1001J-1252D01*
G01Y1000D01*
X112000Y0D01*
X36500D01*
X34500Y2000D01*
X32105D01*
G03X32000Y2002I-110J-3000D01*
G03X31895Y2000I5J-3002D01*
G01X23000D01*
X18500Y6500D01*
Y46000D01*
X17578Y46922D01*
X17688Y47091D01*
G03X18102Y48500I-2188J1408D01*
G03X12898I-2602J0D01*
G03X13222Y47242I2602J-1D01*
G02X12785Y46500I-437J-242D01*
G01X8000D01*
X7000Y47500D01*
Y55500D01*
X8000Y56500D01*
X27500D01*
X28000Y56000D01*
Y9500D01*
X31000Y6500D01*
X83084D01*
X83085Y6498D01*
X88915D01*
X88916Y6500D01*
X99500D01*
X102000Y9000D01*
Y48716D01*
X102014Y48756D01*
G03X102102Y49280I-1514J524D01*
G03X102014Y49804I-1602J0D01*
G01X102000Y49844D01*
Y51500D01*
X108000Y57500D01*
X180500D01*
X185678Y62678D01*
X230125D01*
G03X231500Y61898I1375J822D01*
G03X232965Y62851I0J1603D01*
G01X233031Y63000D01*
X234072D01*
X234141Y62861D01*
G03X235575Y61973I1434J714D01*
G03X237090Y63054I0J1602D01*
G01X237109Y63109D01*
X239000Y65000D01*
G37*
G36*
G01X18000Y143220D02*
X21097D01*
X21232Y143086D01*
G03X22771Y142448I1540J1539D01*
G01X32154D01*
X32618Y141985D01*
G03X34157Y141348I1538J1539D01*
G03X35187Y141607I0J2176D01*
G02X35924Y141166I237J-441D01*
G01Y140752D01*
G03X36561Y139213I2176J-1D01*
G01X36824Y138950D01*
Y122633D01*
G02X36009Y122245I-500J0D01*
G03X35000Y122602I-1008J-1245D01*
G03X33398Y121000I0J-1602D01*
G03X33599Y120223I1602J0D01*
G02X33424Y119555I-437J-242D01*
G03X31998Y117000I1576J-2555D01*
G03X35000Y113998I3002J0D01*
G03X37213Y114971I0J3003D01*
G02X37935Y114987I369J-338D01*
G01X47290Y105632D01*
G03X48829Y104994I1540J1539D01*
G01X81006D01*
X81500Y104500D01*
Y103916D01*
X81498Y103915D01*
Y100085D01*
X83585Y97998D01*
X94502D01*
X96810Y95690D01*
X96768Y95548D01*
G03X96718Y95206I1152J-343D01*
G03X97866Y94005I1202J0D01*
G01X97963Y94001D01*
X101000Y90964D01*
Y79500D01*
X95500Y74000D01*
Y52000D01*
X100998Y46502D01*
Y9415D01*
X99085Y7502D01*
X90002D01*
Y38415D01*
X87915Y40502D01*
X61502D01*
Y100415D01*
X61500Y100416D01*
Y100500D01*
X60500Y101500D01*
X60416D01*
X60415Y101502D01*
X45085D01*
X45084Y101500D01*
X43916D01*
X43915Y101502D01*
X35585D01*
X35584Y101500D01*
X35500D01*
X34500Y100500D01*
Y100416D01*
X34498Y100415D01*
Y90081D01*
G02X33917Y89588I-500J0D01*
G03X33657Y89609I-259J-1581D01*
G03X32061Y88140I0J-1601D01*
G02X31562Y87682I-498J42D01*
G01X23727D01*
G03X23240Y87510I0J-777D01*
G01X23171Y87454D01*
X18000D01*
Y143220D01*
G37*
G36*
G01X36000Y100500D02*
X43500D01*
X43998Y100002D01*
Y41085D01*
X44000Y41084D01*
Y40500D01*
X45000Y39500D01*
X45584D01*
X45585Y39498D01*
X61502D01*
Y39500D01*
X87500D01*
X89000Y38000D01*
Y8000D01*
X88500Y7500D01*
X83500D01*
X83000Y8000D01*
Y22500D01*
X81000Y24500D01*
X36500D01*
X35500Y25500D01*
Y100000D01*
X36000Y100500D01*
G37*
G36*
G01X45500D02*
X60000D01*
X60500Y100000D01*
Y40500D01*
X46000D01*
X45000Y41500D01*
Y100000D01*
X45500Y100500D01*
G37*
G36*
G01X90000Y151500D02*
X126000D01*
X128000Y149500D01*
Y113162D01*
X127919Y113081D01*
G03X127678Y112500I580J-581D01*
G01Y86679D01*
X127000Y86000D01*
X116000D01*
X115500Y86500D01*
Y89500D01*
X116000Y90000D01*
X118500D01*
X119500Y91000D01*
Y104222D01*
G03Y106298I-1219J1038D01*
G01Y121398D01*
G02X120000Y121898I500J0D01*
G03X121602Y123500I0J1602D01*
G03X120088Y125100I-1602J0D01*
G02X119624Y125690I27J499D01*
G03X119652Y126000I-1674J307D01*
G03X119519Y126658I-1702J-2D01*
G01X119500Y126705D01*
Y132594D01*
X119507Y132623D01*
G03Y133377I-1557J377D01*
G01X119500Y133406D01*
Y139795D01*
X119519Y139842D01*
G03X119652Y140500I-1569J660D01*
G03X119519Y141158I-1702J-2D01*
G01X119500Y141205D01*
Y141500D01*
X118500Y142500D01*
X103500D01*
X101500Y140500D01*
Y120843D01*
X101337Y120783D01*
G03Y117217I663J-1783D01*
G01X101500Y117157D01*
Y112382D01*
G02X100720Y111968I-500J0D01*
G03X99990Y112192I-730J-1078D01*
G03Y109588I0J-1302D01*
G03X100720Y109812I0J1302D01*
G02X101500Y109398I280J-414D01*
G01Y107275D01*
X101363Y107137D01*
G03X101098Y106500I636J-638D01*
G01Y100099D01*
X100000Y99000D01*
X84031D01*
X83965Y99149D01*
G03X83021Y100015I-1465J-649D01*
G01X82966Y100034D01*
X82500Y100500D01*
Y103500D01*
X83000Y104000D01*
X84439D01*
G03X85530Y103478I1091J879D01*
G03X86215Y103657I0J1402D01*
G03X88030Y102682I1815J1202D01*
G01X90329D01*
G03X91070Y102812I0J2177D01*
G03X91809Y102682I741J2047D01*
G01X94108D01*
G03X96284Y104859I0J2176D01*
G03X95378Y106626I-2176J0D01*
G01X95362Y106638D01*
X87000Y115000D01*
Y148500D01*
X90000Y151500D01*
G37*
G36*
G01X116500Y44000D02*
X148500D01*
X155979Y36521D01*
X155945Y36384D01*
G03X155898Y36000I1555J-385D01*
G03X157500Y34398I1602J0D01*
G03X157884Y34445I-1J1602D01*
G01X158021Y34479D01*
X175000Y17500D01*
X208500D01*
X211000Y15000D01*
Y-3500D01*
X210000Y-4500D01*
X118000D01*
X115500Y-2000D01*
Y28936D01*
X115514Y28976D01*
G03X115602Y29500I-1514J524D01*
G03X115514Y30024I-1602J0D01*
G01X115500Y30064D01*
Y43000D01*
X116500Y44000D01*
G37*
G36*
G01X161500Y115500D02*
X199000D01*
X201000Y113500D01*
Y106000D01*
X200601Y105602D01*
X200000D01*
G03X198868Y105132I1J-1601D01*
G01X197735Y104000D01*
X161500D01*
X160500Y105000D01*
Y114500D01*
X161500Y115500D01*
G37*
G36*
G01X326000Y120500D02*
X339500D01*
X342000Y118000D01*
Y28500D01*
X333500Y20000D01*
X293806D01*
X293754Y20026D01*
G03X292246I-754J-1527D01*
G01X292194Y20000D01*
X263500D01*
X262500Y21000D01*
Y34000D01*
X263500Y35000D01*
X270500D01*
X275500Y30000D01*
X295458D01*
G02X295944Y29381I0J-500D01*
G03X295898Y29000I1555J-381D01*
G03X299102I1602J0D01*
G03X299056Y29381I-1601J0D01*
G02X299542Y30000I486J119D01*
G01X302825D01*
G03X305250Y28648I2425J1499D01*
G01X307750D01*
G03X310175Y30000I0J2851D01*
G01X319000D01*
X324000Y35000D01*
Y118500D01*
X326000Y120500D01*
G37*
%LPC*%
G75*
G36*
G01X73898Y46874D02*
Y52874D01*
G02X74500Y53476I602J0D01*
G01X80500D01*
G02X81102Y52874I0J-602D01*
G01Y46874D01*
G02X80500Y46272I-602J0D01*
G01X74500D01*
G02X73898Y46874I0J602D01*
G37*
G36*
G01X111334Y144613D02*
G02X110000Y143898I-1334J887D01*
G02Y147102I0J1602D01*
G02X111334Y146387I0J-1602D01*
G03X112166I416J277D01*
G02X113500Y147102I1334J-887D01*
G02Y143898I0J-1602D01*
G02X112166Y144613I0J1602D01*
G03X111334I-416J-277D01*
G37*
G36*
G01X132648Y8750D02*
Y15250D01*
G02X133250Y15852I602J0D01*
G01X139750D01*
G02X140352Y15250I0J-602D01*
G01Y8750D01*
G02X139750Y8148I-602J0D01*
G01X133250D01*
G02X132648Y8750I0J602D01*
G37*
G54D36*
X90000Y157150D03*
X36000Y165500D03*
X51000Y172500D03*
X73000Y3500D03*
X78000D03*
X94500Y4000D03*
X100500D03*
X104500Y29500D03*
X25500Y38000D03*
X65500Y70670D03*
X69000Y67000D03*
X86500Y12000D03*
Y17000D03*
X72000Y29500D03*
X76500D03*
X81000D03*
X86000D03*
X72000Y33500D03*
X76500D03*
X81000D03*
X86000D03*
X37700Y36050D03*
X46500Y36000D03*
X55000D03*
X63000D03*
X37700Y44000D03*
Y53000D03*
X99000Y130500D03*
X118000Y-1500D03*
X122500D03*
X118000Y2500D03*
X122500D03*
X118000Y19500D03*
X123000D03*
X128000D03*
X118000Y24500D03*
X123000D03*
X128000D03*
Y30000D03*
X135500D03*
X146500D03*
X157500D03*
X140500Y33000D03*
X128000Y36000D03*
X135500D03*
X146500D03*
X128000Y41500D03*
X135500D03*
X146500D03*
X196000Y106500D03*
G54D38*
X89000Y116500D03*
G54D39*
X93496Y119500D03*
G54D40*
X99010Y116520D03*
G54D35*
X57000Y150200D03*
X71126D03*
X175000Y111000D03*
G54D41*
X136500Y2000D03*
X146500D03*
X156500D03*
X166500D03*
X176500D03*
X186500D03*
X196500D03*
X146500Y12000D03*
X156500D03*
X166500D03*
X176500D03*
X186500D03*
X196500D03*
X206500D03*
G54D37*
X65550Y192050D03*
%LPD*%
G75*
G54D10*
G01X132000Y130500D02*
Y126000D01*
G01X154500Y86000D02*
X199500D01*
X202500Y83000D01*
G01X175000Y124000D02*
X222000D01*
X232000Y114000D01*
X259000D01*
G01X192500Y96500D02*
X200000Y104000D01*
X255000D01*
X262500Y111500D01*
Y114000D01*
G01X735400Y-47600D02*
Y-147600D01*
X335400D01*
G01D02*
Y-47600D01*
X735400D01*
X-5200Y22086D03*
Y37086D03*
Y52086D03*
Y172086D03*
X0Y12000D03*
Y22000D03*
Y35000D03*
Y47500D03*
X3000Y52000D03*
X10000Y172500D03*
Y185000D03*
X15000Y-2500D03*
Y10000D03*
X14878Y201200D03*
X20000Y111500D03*
Y172500D03*
Y185000D03*
Y197500D03*
X25500Y38000D03*
Y48500D03*
X25496Y178504D03*
Y199504D03*
X26869Y-7200D03*
X27500Y83000D03*
Y92000D03*
Y141500D03*
Y150500D03*
X31000Y12000D03*
X33500Y77000D03*
X33657Y82024D03*
Y88007D03*
Y85024D03*
Y91007D03*
X32000Y95000D03*
Y99000D03*
X35000Y121000D03*
X32500Y134500D03*
X34157Y140524D03*
Y146507D03*
Y143524D03*
Y149507D03*
X34000Y153500D03*
X31500Y165500D03*
Y201000D03*
X37500Y12000D03*
Y16000D03*
X39500Y29000D03*
X37700Y36050D03*
Y44000D03*
Y53000D03*
X36500Y95000D03*
Y99000D03*
X36000Y165500D03*
X37504Y178504D03*
Y199500D03*
X41869Y-7200D03*
X43000Y12000D03*
Y16000D03*
X40000Y95000D03*
Y99000D03*
X42500Y176500D03*
X48000Y8500D03*
Y12000D03*
Y16000D03*
X44500Y29000D03*
X46500Y36000D03*
X48000Y47000D03*
Y51500D03*
X46000Y95000D03*
Y99000D03*
X44878Y201200D03*
X53000Y8500D03*
Y12000D03*
X49500Y29000D03*
Y95000D03*
Y99000D03*
X49000Y159500D03*
X51000Y172500D03*
X56869Y-7200D03*
X54500Y29000D03*
X55000Y36000D03*
X55900Y113500D03*
Y123000D03*
X58000Y8500D03*
Y12000D03*
X59000Y169500D03*
Y182500D03*
X59878Y201200D03*
X63000Y12000D03*
Y16000D03*
Y36000D03*
X65500Y70670D03*
X64000Y98500D03*
X63500Y104500D03*
X64000Y128000D03*
X69000Y67000D03*
X71869Y-7200D03*
X73000Y3500D03*
X75000Y8500D03*
Y21000D03*
X72000Y29500D03*
Y33500D03*
X73500Y104500D03*
X73000Y110500D03*
Y126500D03*
X71500Y169500D03*
Y182500D03*
X74878Y201200D03*
X78000Y3500D03*
X76500Y29500D03*
Y33500D03*
X76000Y67000D03*
Y113524D03*
X75750Y122250D03*
X81000Y29500D03*
Y33500D03*
X81500Y67000D03*
X82500Y98500D03*
X83500Y103000D03*
X80500Y130500D03*
X83000Y169500D03*
Y182500D03*
X86869Y-7200D03*
X86500Y12000D03*
Y8590D03*
Y17000D03*
X86000Y29500D03*
Y33500D03*
Y67000D03*
X87970Y88530D03*
X85000Y110500D03*
Y115500D03*
X84500Y123500D03*
X85000Y139500D03*
X91500Y11500D03*
X92500Y29500D03*
Y33500D03*
X90000Y67000D03*
X89000Y119501D03*
X90000Y157150D03*
X90500Y182500D03*
X89878Y201200D03*
X94500Y4000D03*
X96000Y11586D03*
X97500Y29500D03*
X93496Y119500D03*
X93500Y169500D03*
X101869Y-7200D03*
X100500Y4000D03*
Y49280D03*
X99000Y130500D03*
Y140950D03*
Y145500D03*
Y149000D03*
Y161500D03*
Y167000D03*
X104500Y-2000D03*
X104000Y12000D03*
X104500Y29500D03*
X103500Y167000D03*
X104878Y201200D03*
X110000Y-2000D03*
X108500Y12000D03*
Y16000D03*
X107500Y120000D03*
X110330Y138500D03*
X110000Y145500D03*
X109000Y167000D03*
X114000Y29500D03*
X113500Y128500D03*
Y145500D03*
X116869Y-7200D03*
X118000Y-1500D03*
Y2500D03*
Y19500D03*
Y24500D03*
Y38000D03*
Y43000D03*
X116500Y92000D03*
Y89000D03*
X118280Y105260D03*
X115960Y103000D03*
X117950Y126000D03*
Y133000D03*
Y140500D03*
X119878Y201200D03*
X122500Y-1500D03*
Y2500D03*
X123000Y19500D03*
Y24500D03*
X122500Y38000D03*
Y43000D03*
X122000Y73000D03*
Y81000D03*
Y103000D03*
Y112000D03*
Y119500D03*
X120000Y123500D03*
X128000Y19500D03*
Y24500D03*
Y30000D03*
Y36000D03*
Y41500D03*
X131869Y-7200D03*
X133000Y56500D03*
X132000Y73000D03*
Y77000D03*
Y81000D03*
Y88500D03*
Y92000D03*
Y97500D03*
Y101000D03*
Y104500D03*
Y112500D03*
Y119500D03*
Y116000D03*
Y126000D03*
X135500Y30000D03*
Y36000D03*
Y41500D03*
X136500Y56500D03*
X135000Y85500D03*
X134878Y201200D03*
X140500Y33000D03*
X139000Y69500D03*
Y73000D03*
X142000Y83500D03*
Y88500D03*
Y92500D03*
X141500Y102000D03*
X140000Y159000D03*
X146500Y30000D03*
Y36000D03*
Y41500D03*
X145110Y140610D03*
Y149000D03*
X145000Y159000D03*
X146869Y-7200D03*
X149878Y201200D03*
X153750Y63750D03*
X154500Y86000D03*
X157500Y30000D03*
Y36000D03*
Y41500D03*
X158500Y61060D03*
X157000Y67500D03*
X161869Y-7200D03*
X161500Y36000D03*
X162500Y61060D03*
X164000Y81560D03*
X164878Y201200D03*
X176869Y-7200D03*
X179878Y201200D03*
X184000Y22500D03*
Y27500D03*
X185500Y70500D03*
Y75500D03*
X184000Y151500D03*
X188300Y22500D03*
X188200Y27500D03*
X188500Y96500D03*
X189000Y151500D03*
X191869Y-7200D03*
X193050Y22500D03*
Y27500D03*
Y31500D03*
X193000Y39500D03*
Y43500D03*
X195500Y75500D03*
X192500Y96500D03*
Y101500D03*
X194878Y201200D03*
X200000Y106500D03*
X196000D03*
X197220Y159000D03*
Y163000D03*
X202500Y83000D03*
X204000Y91100D03*
Y93800D03*
X203500Y106500D03*
X206869Y-7200D03*
X207500Y156500D03*
Y169500D03*
X210000Y32350D03*
X213600Y84600D03*
X212500Y116000D03*
X209878Y201200D03*
X215500Y70500D03*
X215000Y112500D03*
X216000Y136550D03*
X221869Y-7200D03*
X221500Y83000D03*
X222500Y112500D03*
Y116000D03*
X221000Y136550D03*
X227000Y24500D03*
Y32000D03*
Y36000D03*
Y69000D03*
X226000Y84000D03*
X222600Y100500D03*
X225500Y136550D03*
X224500Y171500D03*
X224878Y201200D03*
X230500Y84000D03*
X228000Y100500D03*
X230000Y136550D03*
X234000Y46500D03*
X235575Y63575D03*
X231500Y63500D03*
X235000Y84000D03*
Y88000D03*
Y96560D03*
X234500Y136550D03*
X236869Y-7200D03*
X237000Y24500D03*
Y32000D03*
Y36000D03*
X239000Y136550D03*
X237500Y174500D03*
X239878Y201200D03*
X241000Y24500D03*
X243000Y63500D03*
X244500Y88000D03*
X245750Y70750D03*
X248900Y84000D03*
X249000Y88000D03*
X244866Y107500D03*
X249000D03*
Y111305D03*
X248000Y126000D03*
Y136550D03*
X251869Y-7200D03*
X252500Y126000D03*
Y136500D03*
X257500Y24500D03*
X254000Y42000D03*
X256500Y66500D03*
Y79000D03*
X254878Y201200D03*
X259000Y98440D03*
Y114000D03*
X262500D03*
X259060Y136500D03*
X260000Y172000D03*
X266869Y-7200D03*
X263500Y24800D03*
Y27500D03*
X264000Y46500D03*
X267000Y167500D03*
X270000Y46500D03*
X270500Y101000D03*
Y105500D03*
Y110000D03*
X270000Y136500D03*
X269878Y201200D03*
X274000Y107500D03*
Y112500D03*
X279500Y39500D03*
X278500Y67500D03*
Y76500D03*
X279500Y84500D03*
X280500Y101000D03*
X281869Y-7200D03*
X283500Y13500D03*
X283000Y84500D03*
Y107500D03*
X282000Y139000D03*
X282500Y149000D03*
X284878Y201200D03*
X285500Y44000D03*
Y49500D03*
X286500Y107500D03*
X291500Y1500D03*
X293000Y18500D03*
Y29000D03*
X290500Y96500D03*
X289500Y178500D03*
Y190500D03*
X296869Y-7200D03*
X297500Y29000D03*
X295280Y84500D03*
X294000Y96500D03*
X302496Y-6500D03*
Y15496D03*
X299500Y53000D03*
Y163000D03*
X300000Y173000D03*
X302496Y178504D03*
Y199504D03*
X298500Y201000D03*
X308500Y500D03*
Y166000D03*
Y201000D03*
X314504Y-6504D03*
Y15496D03*
Y178504D03*
Y199500D03*
X320500Y115500D03*
X322000Y-7000D03*
X323000Y8500D03*
X326000Y15500D03*
X330000Y189000D03*
X329878Y201200D03*
X348200Y21398D03*
Y36398D03*
Y51398D03*
Y66398D03*
Y81398D03*
Y96398D03*
Y111398D03*
Y126398D03*
Y141398D03*
Y156398D03*
Y171398D03*
Y186398D03*
G54D11*
X-1665Y69261D03*
Y103316D03*
Y128760D03*
Y162815D03*
G54D20*
X94500Y96500D03*
X99250Y88750D03*
X102000Y97080D03*
X99990Y110890D03*
X99010Y116520D03*
X102000Y119000D03*
X103970Y103000D03*
X106500Y97000D03*
X109750Y95250D03*
X109890Y99060D03*
X108500Y104500D03*
X109500Y106940D03*
X113000Y89000D03*
X112820Y116570D03*
G54D30*
G01X10185Y94655D02*
X8155D01*
X6309Y92809D01*
Y79691D01*
X8078Y77922D01*
X10185D01*
G01Y137421D02*
X8578D01*
X6810Y139189D01*
Y151810D01*
X9154Y154154D01*
X10185D01*
G01Y77922D02*
X15500D01*
G01Y94655D02*
X10185D01*
G01Y137421D02*
X15500D01*
G01X10185Y154154D02*
X15500D01*
G54D12*
X11642Y69261D03*
Y103316D03*
Y128760D03*
Y162815D03*
G54D21*
X100500Y182000D03*
Y192000D03*
X110500Y182000D03*
Y192000D03*
X120500Y182000D03*
Y192000D03*
X130500Y182000D03*
Y192000D03*
X136500Y2000D03*
X140500Y182000D03*
Y192000D03*
X146500Y2000D03*
Y12000D03*
X150500Y182000D03*
Y192000D03*
X156500Y2000D03*
Y12000D03*
X160500Y182000D03*
Y192000D03*
X166500Y2000D03*
Y12000D03*
X170500Y182000D03*
Y192000D03*
X176500Y2000D03*
Y12000D03*
X180500Y182000D03*
Y192000D03*
X186500Y2000D03*
Y12000D03*
X190500Y192000D03*
X196500Y2000D03*
Y12000D03*
X206500Y2000D03*
Y12000D03*
Y182000D03*
Y192000D03*
X216500Y182000D03*
Y192000D03*
X226500Y182000D03*
Y192000D03*
X236500Y182000D03*
Y192000D03*
X246500Y182000D03*
Y192000D03*
X256500Y182000D03*
Y192000D03*
X266500Y182000D03*
Y192000D03*
X276500D03*
X328000Y116626D03*
Y126626D03*
Y136626D03*
Y146626D03*
Y156626D03*
X338000Y116626D03*
Y126626D03*
Y136626D03*
Y146626D03*
Y156626D03*
Y166626D03*
G54D31*
G01X-626Y-10500D02*
X343626D01*
G03X351500Y-2626I0J7874D01*
G01Y196626D01*
G03X343626Y204500I-7874J0D01*
G01X-626D01*
G03X-8500Y196626I0J-7874D01*
G01Y-2626D01*
G03X-626Y-10500I7874J0D01*
G54D22*
X136500Y12000D03*
X190500Y182000D03*
X276500D03*
X328000Y166626D03*
G54D13*
X10500Y28500D03*
Y33500D03*
Y38500D03*
Y43500D03*
X15500Y28500D03*
Y33500D03*
Y38500D03*
Y43500D03*
Y48500D03*
X32000Y-1000D03*
X35000Y117000D03*
X41000Y50000D03*
X67500Y182500D03*
X111000Y7500D03*
X132000Y130500D03*
X188500Y100500D03*
Y111500D03*
X245000Y122500D03*
X259500D03*
X264500Y33000D03*
X298500Y7000D03*
G54D32*
G01X85850Y190500D02*
Y193600D01*
X86310Y192980D01*
G01Y190500D02*
X85390D01*
G01X83027D02*
X82950Y191172D01*
X82835Y191740D01*
X82682Y192257D01*
X82490Y192825D01*
X82183Y193600D01*
X83717D01*
G01X80050D02*
X80357Y193497D01*
X80587Y193238D01*
X80740Y192928D01*
X80855Y192515D01*
X80893Y192050D01*
X80855Y191585D01*
X80740Y191172D01*
X80587Y190862D01*
X80357Y190603D01*
X80050Y190500D01*
X79743Y190603D01*
X79513Y190862D01*
X79360Y191172D01*
X79245Y191585D01*
X79207Y192050D01*
X79245Y192515D01*
X79360Y192928D01*
X79513Y193238D01*
X79743Y193497D01*
X80050Y193600D01*
G01X77648Y191533D02*
X76652D01*
G01X74902Y190862D02*
X74633Y190603D01*
X74327Y190500D01*
X74020Y190603D01*
X73752Y190913D01*
X73560Y191378D01*
X73483Y191843D01*
Y192412D01*
X73560Y192877D01*
X73752Y193290D01*
X73982Y193497D01*
X74250Y193600D01*
X74557Y193497D01*
X74787Y193290D01*
X74940Y192980D01*
X75017Y192567D01*
X74940Y192205D01*
X74748Y191843D01*
X74518Y191637D01*
X74250Y191585D01*
X73943Y191688D01*
X73713Y191947D01*
X73483Y192412D01*
G01X72193Y191120D02*
X71963Y190758D01*
X71657Y190552D01*
X71312Y190500D01*
X71005Y190552D01*
X70698Y190810D01*
X70507Y191120D01*
X70468Y191430D01*
X70545Y191792D01*
X70813Y192050D01*
X71082Y192153D01*
X71427D01*
G01X71082D02*
X70852Y192308D01*
X70660Y192567D01*
X70583Y192877D01*
X70660Y193187D01*
X70852Y193445D01*
X71197Y193600D01*
X71542Y193548D01*
X71887Y193342D01*
G01X67990Y190500D02*
Y193600D01*
X69408Y191378D01*
X67492D01*
G01X65090Y190500D02*
Y193600D01*
X66508Y191378D01*
X64592D01*
G01X62650Y193600D02*
X62957Y193497D01*
X63187Y193238D01*
X63340Y192928D01*
X63455Y192515D01*
X63493Y192050D01*
X63455Y191585D01*
X63340Y191172D01*
X63187Y190862D01*
X62957Y190603D01*
X62650Y190500D01*
X62343Y190603D01*
X62113Y190862D01*
X61960Y191172D01*
X61845Y191585D01*
X61807Y192050D01*
X61845Y192515D01*
X61960Y192928D01*
X62113Y193238D01*
X62343Y193497D01*
X62650Y193600D01*
G01X57617Y190500D02*
Y193600D01*
X56658D01*
X56352Y193445D01*
X56160Y193238D01*
X56083Y192825D01*
X56160Y192412D01*
X56390Y192153D01*
X56658Y191998D01*
X57617D01*
G01X56658D02*
X56083Y190500D01*
G01X53183D02*
X54717D01*
Y193600D01*
X53183D01*
G01X53797Y192102D02*
X54717D01*
G01X52008Y193600D02*
X51050Y190500D01*
X50092Y193600D01*
G01X46208Y190500D02*
X45250Y193600D01*
X44292Y190500D01*
G01X44637Y191585D02*
X45863D01*
G01X117950Y140500D02*
X111000Y133550D01*
Y115500D01*
X102000Y106500D01*
Y97080D01*
G01X118280Y105260D02*
Y102780D01*
X116500Y101000D01*
X105970D01*
X103970Y103000D01*
G01X117950Y126000D02*
Y111950D01*
X110500Y104500D01*
X108500D01*
G01X117950Y133000D02*
Y129450D01*
X115000Y126500D01*
Y115500D01*
X106500Y107000D01*
Y104000D01*
X108000Y102500D01*
X115360D01*
X115860Y103000D01*
X115960D01*
G01X339250Y-138100D02*
X338623Y-138300D01*
X338153Y-138800D01*
X337840Y-139400D01*
X337605Y-140200D01*
X337527Y-141100D01*
X337605Y-142000D01*
X337840Y-142800D01*
X338153Y-143400D01*
X338623Y-143900D01*
X339250Y-144100D01*
X339877Y-143900D01*
X340347Y-143400D01*
X340660Y-142800D01*
X340895Y-142000D01*
X340973Y-141100D01*
X340895Y-140200D01*
X340660Y-139400D01*
X340347Y-138800D01*
X339877Y-138300D01*
X339250Y-138100D01*
G01X345393Y-144100D02*
X345550Y-142800D01*
X345785Y-141700D01*
X346098Y-140700D01*
X346490Y-139600D01*
X347117Y-138100D01*
X343983D01*
G01X338925Y-135067D02*
X339392Y-135400D01*
X339917Y-135600D01*
X340383D01*
X340850Y-135400D01*
X341200Y-135067D01*
X341375Y-134600D01*
X341258Y-134133D01*
X340967Y-133733D01*
X340442Y-133467D01*
X339742Y-133333D01*
X339333Y-133067D01*
X339158Y-132600D01*
X339275Y-132133D01*
X339567Y-131800D01*
X339975Y-131600D01*
X340383D01*
X340792Y-131733D01*
X341142Y-132067D01*
G01X343725Y-135600D02*
Y-131600D01*
G01X346175D02*
Y-135600D01*
G01Y-133600D02*
X343725D01*
G01X350917Y-135600D02*
X348583D01*
Y-131600D01*
X350917D01*
G01X349983Y-133533D02*
X348583D01*
G01X355717Y-135600D02*
X353383D01*
Y-131600D01*
X355717D01*
G01X354783Y-133533D02*
X353383D01*
G01X359350Y-131600D02*
Y-135600D01*
G01X358008Y-131600D02*
X360692D01*
G01X338692Y-74600D02*
X340150Y-70600D01*
X341608Y-74600D01*
G01X341083Y-73200D02*
X339217D01*
G01X343667Y-70600D02*
Y-73467D01*
X343900Y-74067D01*
X344367Y-74467D01*
X344950Y-74600D01*
X345533Y-74467D01*
X346000Y-74067D01*
X346233Y-73467D01*
Y-70600D01*
G01X348525Y-74067D02*
X348992Y-74400D01*
X349517Y-74600D01*
X349983D01*
X350450Y-74400D01*
X350800Y-74067D01*
X350975Y-73600D01*
X350858Y-73133D01*
X350567Y-72733D01*
X350042Y-72467D01*
X349342Y-72333D01*
X348933Y-72067D01*
X348758Y-71600D01*
X348875Y-71133D01*
X349167Y-70800D01*
X349575Y-70600D01*
X349983D01*
X350392Y-70733D01*
X350742Y-71067D01*
G01X354550Y-70600D02*
Y-74600D01*
G01X353208Y-70600D02*
X355892D01*
G01X358650D02*
X360050D01*
G01X359350D02*
Y-74600D01*
G01X358650D02*
X360050D01*
G01X362808D02*
Y-70600D01*
X365492Y-74600D01*
Y-70600D01*
G01X368950Y-74733D02*
X368833Y-74667D01*
Y-74533D01*
X368950Y-74467D01*
X369067Y-74533D01*
Y-74667D01*
X368950Y-74733D01*
G01X378550Y-70600D02*
Y-74600D01*
G01X377208Y-70600D02*
X379892D01*
G01X384517Y-74600D02*
X382183D01*
Y-70600D01*
X384517D01*
G01X383583Y-72533D02*
X382183D01*
G01X386925Y-74600D02*
X389375Y-70600D01*
G01X386925D02*
X389375Y-74600D01*
G01X391492D02*
X392950Y-70600D01*
X394408Y-74600D01*
G01X393883Y-73200D02*
X392017D01*
G01X396525Y-74067D02*
X396992Y-74400D01*
X397517Y-74600D01*
X397983D01*
X398450Y-74400D01*
X398800Y-74067D01*
X398975Y-73600D01*
X398858Y-73133D01*
X398567Y-72733D01*
X398042Y-72467D01*
X397342Y-72333D01*
X396933Y-72067D01*
X396758Y-71600D01*
X396875Y-71133D01*
X397167Y-70800D01*
X397575Y-70600D01*
X397983D01*
X398392Y-70733D01*
X398742Y-71067D01*
G01X407233Y-74600D02*
X407350Y-73733D01*
X407525Y-73000D01*
X407758Y-72333D01*
X408050Y-71600D01*
X408517Y-70600D01*
X406183D01*
G01X412150Y-74600D02*
X412558Y-74533D01*
X413025Y-74333D01*
X413317Y-74000D01*
X413433Y-73533D01*
X413317Y-73067D01*
X412967Y-72667D01*
X412442Y-72467D01*
X411858D01*
X411508Y-72333D01*
X411217Y-72000D01*
X411100Y-71533D01*
X411275Y-71067D01*
X411683Y-70733D01*
X412150Y-70600D01*
X412617Y-70733D01*
X413025Y-71067D01*
X413200Y-71533D01*
X413083Y-72000D01*
X412792Y-72333D01*
X412442Y-72467D01*
X411858D01*
X411333Y-72667D01*
X410983Y-73067D01*
X410867Y-73533D01*
X410983Y-74000D01*
X411275Y-74333D01*
X411742Y-74533D01*
X412150Y-74600D01*
G01X416833D02*
X416950Y-73733D01*
X417125Y-73000D01*
X417358Y-72333D01*
X417650Y-71600D01*
X418117Y-70600D01*
X415783D01*
G01X420467Y-73800D02*
X420817Y-74267D01*
X421283Y-74533D01*
X421808Y-74600D01*
X422275Y-74533D01*
X422742Y-74200D01*
X423033Y-73800D01*
X423092Y-73400D01*
X422975Y-72933D01*
X422567Y-72600D01*
X422158Y-72467D01*
X421633D01*
G01X422158D02*
X422508Y-72267D01*
X422800Y-71933D01*
X422917Y-71533D01*
X422800Y-71133D01*
X422508Y-70800D01*
X421983Y-70600D01*
X421458Y-70667D01*
X420933Y-70933D01*
G01X425267Y-74000D02*
X425617Y-74333D01*
X426025Y-74533D01*
X426550Y-74600D01*
X427075Y-74467D01*
X427483Y-74200D01*
X427775Y-73733D01*
X427833Y-73200D01*
X427717Y-72667D01*
X427425Y-72333D01*
X427017Y-72067D01*
X426608Y-72000D01*
X426200Y-72067D01*
X425675Y-72333D01*
X425850Y-70600D01*
X427425D01*
G01X434867D02*
Y-73467D01*
X435100Y-74067D01*
X435567Y-74467D01*
X436150Y-74600D01*
X436733Y-74467D01*
X437200Y-74067D01*
X437433Y-73467D01*
Y-70600D01*
G01X439725Y-74067D02*
X440192Y-74400D01*
X440717Y-74600D01*
X441183D01*
X441650Y-74400D01*
X442000Y-74067D01*
X442175Y-73600D01*
X442058Y-73133D01*
X441767Y-72733D01*
X441242Y-72467D01*
X440542Y-72333D01*
X440133Y-72067D01*
X439958Y-71600D01*
X440075Y-71133D01*
X440367Y-70800D01*
X440775Y-70600D01*
X441183D01*
X441592Y-70733D01*
X441942Y-71067D01*
G01X444292Y-74600D02*
X445750Y-70600D01*
X447208Y-74600D01*
G01X446683Y-73200D02*
X444817D01*
G01X339042Y-65933D02*
X339450Y-65467D01*
X339800Y-65200D01*
X340267Y-65067D01*
X340675Y-65200D01*
X340967Y-65467D01*
X341200Y-65867D01*
X341258Y-66333D01*
X341200Y-66733D01*
X340967Y-67133D01*
X340617Y-67467D01*
X340208Y-67600D01*
X339742Y-67467D01*
X339333Y-67067D01*
X339100Y-66467D01*
X339042Y-65800D01*
X339158Y-64933D01*
X339333Y-64467D01*
X339625Y-64000D01*
X340033Y-63667D01*
X340442Y-63600D01*
X340850Y-63733D01*
X341142Y-64067D01*
G01X343667Y-67000D02*
X344017Y-67333D01*
X344425Y-67533D01*
X344950Y-67600D01*
X345475Y-67467D01*
X345883Y-67200D01*
X346175Y-66733D01*
X346233Y-66200D01*
X346117Y-65667D01*
X345825Y-65333D01*
X345417Y-65067D01*
X345008Y-65000D01*
X344600Y-65067D01*
X344075Y-65333D01*
X344250Y-63600D01*
X345825D01*
G01X349750D02*
X349283Y-63733D01*
X348933Y-64067D01*
X348700Y-64467D01*
X348525Y-65000D01*
X348467Y-65600D01*
X348525Y-66200D01*
X348700Y-66733D01*
X348933Y-67133D01*
X349283Y-67467D01*
X349750Y-67600D01*
X350217Y-67467D01*
X350567Y-67133D01*
X350800Y-66733D01*
X350975Y-66200D01*
X351033Y-65600D01*
X350975Y-65000D01*
X350800Y-64467D01*
X350567Y-64067D01*
X350217Y-63733D01*
X349750Y-63600D01*
G01X354550Y-67600D02*
Y-63600D01*
X353850Y-64400D01*
G01Y-67600D02*
X355250D01*
G01X362400Y-63600D02*
X363217Y-67600D01*
X364150Y-63600D01*
X365083Y-67600D01*
X365900Y-63600D01*
G01X368250D02*
X369650D01*
G01X368950D02*
Y-67600D01*
G01X368250D02*
X369650D01*
G01X372583Y-63600D02*
Y-67600D01*
X374917D01*
G01X377383Y-63600D02*
Y-67600D01*
X379717D01*
G01X382650Y-63600D02*
X384050D01*
G01X383350D02*
Y-67600D01*
G01X382650D02*
X384050D01*
G01X386692D02*
X388150Y-63600D01*
X389608Y-67600D01*
G01X389083Y-66200D02*
X387217D01*
G01X391433Y-67600D02*
Y-63600D01*
X392950Y-66933D01*
X394467Y-63600D01*
Y-67600D01*
G01X403833Y-63933D02*
X403483Y-63733D01*
X403075Y-63600D01*
X402608D01*
X402083Y-63800D01*
X401675Y-64133D01*
X401383Y-64533D01*
X401150Y-65200D01*
X401092Y-65800D01*
X401208Y-66400D01*
X401383Y-66800D01*
X401733Y-67200D01*
X402142Y-67467D01*
X402550Y-67600D01*
X402958D01*
X403367Y-67467D01*
X403717Y-67267D01*
X404008Y-67000D01*
G01X405892Y-67600D02*
X407350Y-63600D01*
X408808Y-67600D01*
G01X408283Y-66200D02*
X406417D01*
G01X410808Y-67600D02*
Y-63600D01*
X413492Y-67600D01*
Y-63600D01*
G01X415608Y-67600D02*
Y-63600D01*
X418292Y-67600D01*
Y-63600D01*
G01X421750Y-67600D02*
X421283Y-67533D01*
X420875Y-67267D01*
X420525Y-66867D01*
X420292Y-66400D01*
X420175Y-65867D01*
Y-65333D01*
X420292Y-64800D01*
X420525Y-64333D01*
X420875Y-63933D01*
X421283Y-63667D01*
X421750Y-63600D01*
X422217Y-63667D01*
X422625Y-63933D01*
X422975Y-64333D01*
X423208Y-64800D01*
X423325Y-65333D01*
Y-65867D01*
X423208Y-66400D01*
X422975Y-66867D01*
X422625Y-67267D01*
X422217Y-67533D01*
X421750Y-67600D01*
G01X425208D02*
Y-63600D01*
X427892Y-67600D01*
Y-63600D01*
G01X434867Y-67600D02*
Y-63600D01*
X436033D01*
X436500Y-63800D01*
X436850Y-64067D01*
X437142Y-64467D01*
X437375Y-64933D01*
X437433Y-65600D01*
X437375Y-66267D01*
X437142Y-66733D01*
X436850Y-67133D01*
X436500Y-67400D01*
X436033Y-67600D01*
X434867D01*
G01X439783D02*
Y-63600D01*
X441242D01*
X441708Y-63800D01*
X442000Y-64067D01*
X442117Y-64600D01*
X442000Y-65133D01*
X441650Y-65467D01*
X441242Y-65667D01*
X439783D01*
G01X441242D02*
X442117Y-67600D01*
G01X445050Y-63600D02*
X446450D01*
G01X445750D02*
Y-67600D01*
G01X445050D02*
X446450D01*
G01X449092Y-63600D02*
X450550Y-67600D01*
X452008Y-63600D01*
G01X456517Y-67600D02*
X454183D01*
Y-63600D01*
X456517D01*
G01X455583Y-65533D02*
X454183D01*
G01X463200Y-63600D02*
X464017Y-67600D01*
X464950Y-63600D01*
X465883Y-67600D01*
X466700Y-63600D01*
G01X470917Y-67600D02*
X468583D01*
Y-63600D01*
X470917D01*
G01X469983Y-65533D02*
X468583D01*
G01X473325Y-67067D02*
X473792Y-67400D01*
X474317Y-67600D01*
X474783D01*
X475250Y-67400D01*
X475600Y-67067D01*
X475775Y-66600D01*
X475658Y-66133D01*
X475367Y-65733D01*
X474842Y-65467D01*
X474142Y-65333D01*
X473733Y-65067D01*
X473558Y-64600D01*
X473675Y-64133D01*
X473967Y-63800D01*
X474375Y-63600D01*
X474783D01*
X475192Y-63733D01*
X475542Y-64067D01*
G01X479350Y-63600D02*
Y-67600D01*
G01X478008Y-63600D02*
X480692D01*
G01X339053Y-58600D02*
Y-51100D01*
X343347Y-58600D01*
Y-51100D01*
G01X346740Y-58600D02*
X350660Y-51100D01*
G01X346740D02*
X350660Y-58600D01*
G01X354333D02*
Y-51100D01*
X356573D01*
X357320Y-51475D01*
X357880Y-52350D01*
X358067Y-53350D01*
X357880Y-54350D01*
X357413Y-55100D01*
X356573Y-55475D01*
X354333D01*
G01X369240Y-57600D02*
X369987Y-58225D01*
X370827Y-58600D01*
X371573D01*
X372320Y-58225D01*
X372880Y-57600D01*
X373160Y-56725D01*
X372973Y-55850D01*
X372507Y-55100D01*
X371667Y-54600D01*
X370547Y-54350D01*
X369893Y-53850D01*
X369613Y-52975D01*
X369800Y-52100D01*
X370267Y-51475D01*
X370920Y-51100D01*
X371573D01*
X372227Y-51350D01*
X372787Y-51975D01*
G01X380567Y-58600D02*
X376833D01*
Y-51100D01*
X380567D01*
G01X379073Y-54725D02*
X376833D01*
G01X383773Y-58600D02*
Y-51100D01*
X386200Y-57350D01*
X388627Y-51100D01*
Y-58600D01*
G01X392580Y-51100D02*
X394820D01*
G01X393700D02*
Y-58600D01*
G01X392580D02*
X394820D01*
G01X403253Y-51725D02*
X402693Y-51350D01*
X402040Y-51100D01*
X401293D01*
X400453Y-51475D01*
X399800Y-52100D01*
X399333Y-52850D01*
X398960Y-54100D01*
X398867Y-55225D01*
X399053Y-56350D01*
X399333Y-57100D01*
X399893Y-57850D01*
X400547Y-58350D01*
X401200Y-58600D01*
X401853D01*
X402507Y-58350D01*
X403067Y-57975D01*
X403533Y-57475D01*
G01X408700Y-58600D02*
X407953Y-58475D01*
X407300Y-57975D01*
X406740Y-57225D01*
X406367Y-56350D01*
X406180Y-55350D01*
Y-54350D01*
X406367Y-53350D01*
X406740Y-52475D01*
X407300Y-51725D01*
X407953Y-51225D01*
X408700Y-51100D01*
X409447Y-51225D01*
X410100Y-51725D01*
X410660Y-52475D01*
X411033Y-53350D01*
X411220Y-54350D01*
Y-55350D01*
X411033Y-56350D01*
X410660Y-57225D01*
X410100Y-57975D01*
X409447Y-58475D01*
X408700Y-58600D01*
G01X414053D02*
Y-51100D01*
X418347Y-58600D01*
Y-51100D01*
G01X421647Y-58600D02*
Y-51100D01*
X423513D01*
X424260Y-51475D01*
X424820Y-51975D01*
X425287Y-52725D01*
X425660Y-53600D01*
X425753Y-54850D01*
X425660Y-56100D01*
X425287Y-56975D01*
X424820Y-57725D01*
X424260Y-58225D01*
X423513Y-58600D01*
X421647D01*
G01X429147Y-51100D02*
Y-56475D01*
X429520Y-57600D01*
X430267Y-58350D01*
X431200Y-58600D01*
X432133Y-58350D01*
X432880Y-57600D01*
X433253Y-56475D01*
Y-51100D01*
G01X440753Y-51725D02*
X440193Y-51350D01*
X439540Y-51100D01*
X438793D01*
X437953Y-51475D01*
X437300Y-52100D01*
X436833Y-52850D01*
X436460Y-54100D01*
X436367Y-55225D01*
X436553Y-56350D01*
X436833Y-57100D01*
X437393Y-57850D01*
X438047Y-58350D01*
X438700Y-58600D01*
X439353D01*
X440007Y-58350D01*
X440567Y-57975D01*
X441033Y-57475D01*
G01X446200Y-51100D02*
Y-58600D01*
G01X444053Y-51100D02*
X448347D01*
G01X453700Y-58600D02*
X452953Y-58475D01*
X452300Y-57975D01*
X451740Y-57225D01*
X451367Y-56350D01*
X451180Y-55350D01*
Y-54350D01*
X451367Y-53350D01*
X451740Y-52475D01*
X452300Y-51725D01*
X452953Y-51225D01*
X453700Y-51100D01*
X454447Y-51225D01*
X455100Y-51725D01*
X455660Y-52475D01*
X456033Y-53350D01*
X456220Y-54350D01*
Y-55350D01*
X456033Y-56350D01*
X455660Y-57225D01*
X455100Y-57975D01*
X454447Y-58475D01*
X453700Y-58600D01*
G01X459333D02*
Y-51100D01*
X461667D01*
X462413Y-51475D01*
X462880Y-51975D01*
X463067Y-52975D01*
X462880Y-53975D01*
X462320Y-54600D01*
X461667Y-54975D01*
X459333D01*
G01X461667D02*
X463067Y-58600D01*
G01X466740Y-57600D02*
X467487Y-58225D01*
X468327Y-58600D01*
X469073D01*
X469820Y-58225D01*
X470380Y-57600D01*
X470660Y-56725D01*
X470473Y-55850D01*
X470007Y-55100D01*
X469167Y-54600D01*
X468047Y-54350D01*
X467393Y-53850D01*
X467113Y-52975D01*
X467300Y-52100D01*
X467767Y-51475D01*
X468420Y-51100D01*
X469073D01*
X469727Y-51350D01*
X470287Y-51975D01*
G01X344808Y-124600D02*
Y-120600D01*
X347492Y-124600D01*
Y-120600D01*
G01X349725Y-124600D02*
X352175Y-120600D01*
G01X349725D02*
X352175Y-124600D01*
G01X354583D02*
Y-120600D01*
X355983D01*
X356450Y-120800D01*
X356800Y-121267D01*
X356917Y-121800D01*
X356800Y-122333D01*
X356508Y-122733D01*
X355983Y-122933D01*
X354583D01*
G01X360550Y-124733D02*
X360433Y-124667D01*
Y-124533D01*
X360550Y-124467D01*
X360667Y-124533D01*
Y-124667D01*
X360550Y-124733D01*
G01X347150Y-116600D02*
X346683Y-116533D01*
X346275Y-116267D01*
X345925Y-115867D01*
X345692Y-115400D01*
X345575Y-114867D01*
Y-114333D01*
X345692Y-113800D01*
X345925Y-113333D01*
X346275Y-112933D01*
X346683Y-112667D01*
X347150Y-112600D01*
X347617Y-112667D01*
X348025Y-112933D01*
X348375Y-113333D01*
X348608Y-113800D01*
X348725Y-114333D01*
Y-114867D01*
X348608Y-115400D01*
X348375Y-115867D01*
X348025Y-116267D01*
X347617Y-116533D01*
X347150Y-116600D01*
G01X350783D02*
Y-112600D01*
X352242D01*
X352708Y-112800D01*
X353000Y-113067D01*
X353117Y-113600D01*
X353000Y-114133D01*
X352650Y-114467D01*
X352242Y-114667D01*
X350783D01*
G01X352242D02*
X353117Y-116600D01*
G01X360850Y-112600D02*
X362250D01*
G01X361550D02*
Y-116600D01*
G01X360850D02*
X362250D01*
G01X365008D02*
Y-112600D01*
X367692Y-116600D01*
Y-112600D01*
G01X374783Y-116600D02*
Y-112600D01*
X376183D01*
X376650Y-112800D01*
X377000Y-113267D01*
X377117Y-113800D01*
X377000Y-114333D01*
X376708Y-114733D01*
X376183Y-114933D01*
X374783D01*
G01X379292Y-116600D02*
X380750Y-112600D01*
X382208Y-116600D01*
G01X381683Y-115200D02*
X379817D01*
G01X384383Y-116600D02*
Y-112600D01*
X385842D01*
X386308Y-112800D01*
X386600Y-113067D01*
X386717Y-113600D01*
X386600Y-114133D01*
X386250Y-114467D01*
X385842Y-114667D01*
X384383D01*
G01X385842D02*
X386717Y-116600D01*
G01X390350Y-112600D02*
Y-116600D01*
G01X389008Y-112600D02*
X391692D01*
G01X398200D02*
X399017Y-116600D01*
X399950Y-112600D01*
X400883Y-116600D01*
X401700Y-112600D01*
G01X404050D02*
X405450D01*
G01X404750D02*
Y-116600D01*
G01X404050D02*
X405450D01*
G01X409550Y-112600D02*
Y-116600D01*
G01X408208Y-112600D02*
X410892D01*
G01X413125Y-116600D02*
Y-112600D01*
G01X415575D02*
Y-116600D01*
G01Y-114600D02*
X413125D01*
G01X419150Y-116600D02*
X418683Y-116533D01*
X418275Y-116267D01*
X417925Y-115867D01*
X417692Y-115400D01*
X417575Y-114867D01*
Y-114333D01*
X417692Y-113800D01*
X417925Y-113333D01*
X418275Y-112933D01*
X418683Y-112667D01*
X419150Y-112600D01*
X419617Y-112667D01*
X420025Y-112933D01*
X420375Y-113333D01*
X420608Y-113800D01*
X420725Y-114333D01*
Y-114867D01*
X420608Y-115400D01*
X420375Y-115867D01*
X420025Y-116267D01*
X419617Y-116533D01*
X419150Y-116600D01*
G01X422667Y-112600D02*
Y-115467D01*
X422900Y-116067D01*
X423367Y-116467D01*
X423950Y-116600D01*
X424533Y-116467D01*
X425000Y-116067D01*
X425233Y-115467D01*
Y-112600D01*
G01X428750D02*
Y-116600D01*
G01X427408Y-112600D02*
X430092D01*
G01X438350D02*
Y-116600D01*
G01X437008Y-112600D02*
X439692D01*
G01X441925Y-116600D02*
Y-112600D01*
G01X444375D02*
Y-116600D01*
G01Y-114600D02*
X441925D01*
G01X449117Y-116600D02*
X446783D01*
Y-112600D01*
X449117D01*
G01X448183Y-114533D02*
X446783D01*
G01X458833Y-112933D02*
X458483Y-112733D01*
X458075Y-112600D01*
X457608D01*
X457083Y-112800D01*
X456675Y-113133D01*
X456383Y-113533D01*
X456150Y-114200D01*
X456092Y-114800D01*
X456208Y-115400D01*
X456383Y-115800D01*
X456733Y-116200D01*
X457142Y-116467D01*
X457550Y-116600D01*
X457958D01*
X458367Y-116467D01*
X458717Y-116267D01*
X459008Y-116000D01*
G01X462350Y-116600D02*
X461883Y-116533D01*
X461475Y-116267D01*
X461125Y-115867D01*
X460892Y-115400D01*
X460775Y-114867D01*
Y-114333D01*
X460892Y-113800D01*
X461125Y-113333D01*
X461475Y-112933D01*
X461883Y-112667D01*
X462350Y-112600D01*
X462817Y-112667D01*
X463225Y-112933D01*
X463575Y-113333D01*
X463808Y-113800D01*
X463925Y-114333D01*
Y-114867D01*
X463808Y-115400D01*
X463575Y-115867D01*
X463225Y-116267D01*
X462817Y-116533D01*
X462350Y-116600D01*
G01X465808D02*
Y-112600D01*
X468492Y-116600D01*
Y-112600D01*
G01X470725Y-116067D02*
X471192Y-116400D01*
X471717Y-116600D01*
X472183D01*
X472650Y-116400D01*
X473000Y-116067D01*
X473175Y-115600D01*
X473058Y-115133D01*
X472767Y-114733D01*
X472242Y-114467D01*
X471542Y-114333D01*
X471133Y-114067D01*
X470958Y-113600D01*
X471075Y-113133D01*
X471367Y-112800D01*
X471775Y-112600D01*
X472183D01*
X472592Y-112733D01*
X472942Y-113067D01*
G01X477917Y-116600D02*
X475583D01*
Y-112600D01*
X477917D01*
G01X476983Y-114533D02*
X475583D01*
G01X480208Y-116600D02*
Y-112600D01*
X482892Y-116600D01*
Y-112600D01*
G01X486350D02*
Y-116600D01*
G01X485008Y-112600D02*
X487692D01*
G01X495950Y-116600D02*
X495483Y-116533D01*
X495075Y-116267D01*
X494725Y-115867D01*
X494492Y-115400D01*
X494375Y-114867D01*
Y-114333D01*
X494492Y-113800D01*
X494725Y-113333D01*
X495075Y-112933D01*
X495483Y-112667D01*
X495950Y-112600D01*
X496417Y-112667D01*
X496825Y-112933D01*
X497175Y-113333D01*
X497408Y-113800D01*
X497525Y-114333D01*
Y-114867D01*
X497408Y-115400D01*
X497175Y-115867D01*
X496825Y-116267D01*
X496417Y-116533D01*
X495950Y-116600D01*
G01X499642D02*
Y-112600D01*
X501858D01*
G01X501042Y-114533D02*
X499642D01*
G01X345983Y-108600D02*
Y-104600D01*
X347383D01*
X347850Y-104800D01*
X348200Y-105267D01*
X348317Y-105800D01*
X348200Y-106333D01*
X347908Y-106733D01*
X347383Y-106933D01*
X345983D01*
G01X350783Y-108600D02*
Y-104600D01*
X352242D01*
X352708Y-104800D01*
X353000Y-105067D01*
X353117Y-105600D01*
X353000Y-106133D01*
X352650Y-106467D01*
X352242Y-106667D01*
X350783D01*
G01X352242D02*
X353117Y-108600D01*
G01X356750D02*
X356283Y-108533D01*
X355875Y-108267D01*
X355525Y-107867D01*
X355292Y-107400D01*
X355175Y-106867D01*
Y-106333D01*
X355292Y-105800D01*
X355525Y-105333D01*
X355875Y-104933D01*
X356283Y-104667D01*
X356750Y-104600D01*
X357217Y-104667D01*
X357625Y-104933D01*
X357975Y-105333D01*
X358208Y-105800D01*
X358325Y-106333D01*
Y-106867D01*
X358208Y-107400D01*
X357975Y-107867D01*
X357625Y-108267D01*
X357217Y-108533D01*
X356750Y-108600D01*
G01X362833Y-104933D02*
X362483Y-104733D01*
X362075Y-104600D01*
X361608D01*
X361083Y-104800D01*
X360675Y-105133D01*
X360383Y-105533D01*
X360150Y-106200D01*
X360092Y-106800D01*
X360208Y-107400D01*
X360383Y-107800D01*
X360733Y-108200D01*
X361142Y-108467D01*
X361550Y-108600D01*
X361958D01*
X362367Y-108467D01*
X362717Y-108267D01*
X363008Y-108000D01*
G01X365067Y-104600D02*
Y-107467D01*
X365300Y-108067D01*
X365767Y-108467D01*
X366350Y-108600D01*
X366933Y-108467D01*
X367400Y-108067D01*
X367633Y-107467D01*
Y-104600D01*
G01X369983Y-108600D02*
Y-104600D01*
X371442D01*
X371908Y-104800D01*
X372200Y-105067D01*
X372317Y-105600D01*
X372200Y-106133D01*
X371850Y-106467D01*
X371442Y-106667D01*
X369983D01*
G01X371442D02*
X372317Y-108600D01*
G01X377117D02*
X374783D01*
Y-104600D01*
X377117D01*
G01X376183Y-106533D02*
X374783D01*
G01X379233Y-108600D02*
Y-104600D01*
X380750Y-107933D01*
X382267Y-104600D01*
Y-108600D01*
G01X386717D02*
X384383D01*
Y-104600D01*
X386717D01*
G01X385783Y-106533D02*
X384383D01*
G01X389008Y-108600D02*
Y-104600D01*
X391692Y-108600D01*
Y-104600D01*
G01X395150D02*
Y-108600D01*
G01X393808Y-104600D02*
X396492D01*
G01X404750Y-108600D02*
X404283Y-108533D01*
X403875Y-108267D01*
X403525Y-107867D01*
X403292Y-107400D01*
X403175Y-106867D01*
Y-106333D01*
X403292Y-105800D01*
X403525Y-105333D01*
X403875Y-104933D01*
X404283Y-104667D01*
X404750Y-104600D01*
X405217Y-104667D01*
X405625Y-104933D01*
X405975Y-105333D01*
X406208Y-105800D01*
X406325Y-106333D01*
Y-106867D01*
X406208Y-107400D01*
X405975Y-107867D01*
X405625Y-108267D01*
X405217Y-108533D01*
X404750Y-108600D01*
G01X408383D02*
Y-104600D01*
X409842D01*
X410308Y-104800D01*
X410600Y-105067D01*
X410717Y-105600D01*
X410600Y-106133D01*
X410250Y-106467D01*
X409842Y-106667D01*
X408383D01*
G01X409842D02*
X410717Y-108600D01*
G01X417633D02*
Y-104600D01*
X419150Y-107933D01*
X420667Y-104600D01*
Y-108600D01*
G01X422492D02*
X423950Y-104600D01*
X425408Y-108600D01*
G01X424883Y-107200D02*
X423017D01*
G01X427408Y-108600D02*
Y-104600D01*
X430092Y-108600D01*
Y-104600D01*
G01X432267D02*
Y-107467D01*
X432500Y-108067D01*
X432967Y-108467D01*
X433550Y-108600D01*
X434133Y-108467D01*
X434600Y-108067D01*
X434833Y-107467D01*
Y-104600D01*
G01X437242Y-108600D02*
Y-104600D01*
X439458D01*
G01X438642Y-106533D02*
X437242D01*
G01X441692Y-108600D02*
X443150Y-104600D01*
X444608Y-108600D01*
G01X444083Y-107200D02*
X442217D01*
G01X449233Y-104933D02*
X448883Y-104733D01*
X448475Y-104600D01*
X448008D01*
X447483Y-104800D01*
X447075Y-105133D01*
X446783Y-105533D01*
X446550Y-106200D01*
X446492Y-106800D01*
X446608Y-107400D01*
X446783Y-107800D01*
X447133Y-108200D01*
X447542Y-108467D01*
X447950Y-108600D01*
X448358D01*
X448767Y-108467D01*
X449117Y-108267D01*
X449408Y-108000D01*
G01X452750Y-104600D02*
Y-108600D01*
G01X451408Y-104600D02*
X454092D01*
G01X456267D02*
Y-107467D01*
X456500Y-108067D01*
X456967Y-108467D01*
X457550Y-108600D01*
X458133Y-108467D01*
X458600Y-108067D01*
X458833Y-107467D01*
Y-104600D01*
G01X461183Y-108600D02*
Y-104600D01*
X462642D01*
X463108Y-104800D01*
X463400Y-105067D01*
X463517Y-105600D01*
X463400Y-106133D01*
X463050Y-106467D01*
X462642Y-106667D01*
X461183D01*
G01X462642D02*
X463517Y-108600D01*
G01X468317D02*
X465983D01*
Y-104600D01*
X468317D01*
G01X467383Y-106533D02*
X465983D01*
G01X476050Y-104600D02*
X477450D01*
G01X476750D02*
Y-108600D01*
G01X476050D02*
X477450D01*
G01X480208D02*
Y-104600D01*
X482892Y-108600D01*
Y-104600D01*
G01X489400D02*
X490217Y-108600D01*
X491150Y-104600D01*
X492083Y-108600D01*
X492900Y-104600D01*
G01X494725Y-108600D02*
Y-104600D01*
G01X497175D02*
Y-108600D01*
G01Y-106600D02*
X494725D01*
G01X500750Y-108600D02*
X500283Y-108533D01*
X499875Y-108267D01*
X499525Y-107867D01*
X499292Y-107400D01*
X499175Y-106867D01*
Y-106333D01*
X499292Y-105800D01*
X499525Y-105333D01*
X499875Y-104933D01*
X500283Y-104667D01*
X500750Y-104600D01*
X501217Y-104667D01*
X501625Y-104933D01*
X501975Y-105333D01*
X502208Y-105800D01*
X502325Y-106333D01*
Y-106867D01*
X502208Y-107400D01*
X501975Y-107867D01*
X501625Y-108267D01*
X501217Y-108533D01*
X500750Y-108600D01*
G01X504383Y-104600D02*
Y-108600D01*
X506717D01*
G01X511517D02*
X509183D01*
Y-104600D01*
X511517D01*
G01X510583Y-106533D02*
X509183D01*
G01X346617Y-98467D02*
X346850Y-98267D01*
X347025Y-97933D01*
X347142Y-97467D01*
X347025Y-97067D01*
X346792Y-96800D01*
X346383Y-96600D01*
X344808D01*
Y-100600D01*
X346733D01*
X347142Y-100333D01*
X347375Y-99933D01*
X347492Y-99467D01*
X347375Y-99000D01*
X347025Y-98600D01*
X346617Y-98467D01*
X344808D01*
G01X352117Y-100600D02*
X349783D01*
Y-96600D01*
X352117D01*
G01X351183Y-98533D02*
X349783D01*
G01X359267Y-96600D02*
Y-99467D01*
X359500Y-100067D01*
X359967Y-100467D01*
X360550Y-100600D01*
X361133Y-100467D01*
X361600Y-100067D01*
X361833Y-99467D01*
Y-96600D01*
G01X364125Y-100067D02*
X364592Y-100400D01*
X365117Y-100600D01*
X365583D01*
X366050Y-100400D01*
X366400Y-100067D01*
X366575Y-99600D01*
X366458Y-99133D01*
X366167Y-98733D01*
X365642Y-98467D01*
X364942Y-98333D01*
X364533Y-98067D01*
X364358Y-97600D01*
X364475Y-97133D01*
X364767Y-96800D01*
X365175Y-96600D01*
X365583D01*
X365992Y-96733D01*
X366342Y-97067D01*
G01X371317Y-100600D02*
X368983D01*
Y-96600D01*
X371317D01*
G01X370383Y-98533D02*
X368983D01*
G01X373667Y-100600D02*
Y-96600D01*
X374833D01*
X375300Y-96800D01*
X375650Y-97067D01*
X375942Y-97467D01*
X376175Y-97933D01*
X376233Y-98600D01*
X376175Y-99267D01*
X375942Y-99733D01*
X375650Y-100133D01*
X375300Y-100400D01*
X374833Y-100600D01*
X373667D01*
G01X383442D02*
Y-96600D01*
X385658D01*
G01X384842Y-98533D02*
X383442D01*
G01X389350Y-100600D02*
X388883Y-100533D01*
X388475Y-100267D01*
X388125Y-99867D01*
X387892Y-99400D01*
X387775Y-98867D01*
Y-98333D01*
X387892Y-97800D01*
X388125Y-97333D01*
X388475Y-96933D01*
X388883Y-96667D01*
X389350Y-96600D01*
X389817Y-96667D01*
X390225Y-96933D01*
X390575Y-97333D01*
X390808Y-97800D01*
X390925Y-98333D01*
Y-98867D01*
X390808Y-99400D01*
X390575Y-99867D01*
X390225Y-100267D01*
X389817Y-100533D01*
X389350Y-100600D01*
G01X392983D02*
Y-96600D01*
X394442D01*
X394908Y-96800D01*
X395200Y-97067D01*
X395317Y-97600D01*
X395200Y-98133D01*
X394850Y-98467D01*
X394442Y-98667D01*
X392983D01*
G01X394442D02*
X395317Y-100600D01*
G01X404917D02*
X402583D01*
Y-96600D01*
X404917D01*
G01X403983Y-98533D02*
X402583D01*
G01X407208Y-100600D02*
Y-96600D01*
X409892Y-100600D01*
Y-96600D01*
G01X413700Y-98600D02*
X414867D01*
Y-99800D01*
X414517Y-100200D01*
X414108Y-100467D01*
X413525Y-100600D01*
X412942Y-100467D01*
X412533Y-100200D01*
X412183Y-99800D01*
X411950Y-99333D01*
X411833Y-98800D01*
Y-98333D01*
X411950Y-97933D01*
X412183Y-97467D01*
X412533Y-97067D01*
X412883Y-96800D01*
X413350Y-96600D01*
X413758D01*
X414225Y-96733D01*
X414575Y-97000D01*
G01X417450Y-96600D02*
X418850D01*
G01X418150D02*
Y-100600D01*
G01X417450D02*
X418850D01*
G01X421608D02*
Y-96600D01*
X424292Y-100600D01*
Y-96600D01*
G01X428917Y-100600D02*
X426583D01*
Y-96600D01*
X428917D01*
G01X427983Y-98533D02*
X426583D01*
G01X433717Y-100600D02*
X431383D01*
Y-96600D01*
X433717D01*
G01X432783Y-98533D02*
X431383D01*
G01X436183Y-100600D02*
Y-96600D01*
X437642D01*
X438108Y-96800D01*
X438400Y-97067D01*
X438517Y-97600D01*
X438400Y-98133D01*
X438050Y-98467D01*
X437642Y-98667D01*
X436183D01*
G01X437642D02*
X438517Y-100600D01*
G01X441450Y-96600D02*
X442850D01*
G01X442150D02*
Y-100600D01*
G01X441450D02*
X442850D01*
G01X445608D02*
Y-96600D01*
X448292Y-100600D01*
Y-96600D01*
G01X452100Y-98600D02*
X453267D01*
Y-99800D01*
X452917Y-100200D01*
X452508Y-100467D01*
X451925Y-100600D01*
X451342Y-100467D01*
X450933Y-100200D01*
X450583Y-99800D01*
X450350Y-99333D01*
X450233Y-98800D01*
Y-98333D01*
X450350Y-97933D01*
X450583Y-97467D01*
X450933Y-97067D01*
X451283Y-96800D01*
X451750Y-96600D01*
X452158D01*
X452625Y-96733D01*
X452975Y-97000D01*
G01X460067Y-100600D02*
Y-96600D01*
X461233D01*
X461700Y-96800D01*
X462050Y-97067D01*
X462342Y-97467D01*
X462575Y-97933D01*
X462633Y-98600D01*
X462575Y-99267D01*
X462342Y-99733D01*
X462050Y-100133D01*
X461700Y-100400D01*
X461233Y-100600D01*
X460067D01*
G01X467317D02*
X464983D01*
Y-96600D01*
X467317D01*
G01X466383Y-98533D02*
X464983D01*
G01X469725Y-100067D02*
X470192Y-100400D01*
X470717Y-100600D01*
X471183D01*
X471650Y-100400D01*
X472000Y-100067D01*
X472175Y-99600D01*
X472058Y-99133D01*
X471767Y-98733D01*
X471242Y-98467D01*
X470542Y-98333D01*
X470133Y-98067D01*
X469958Y-97600D01*
X470075Y-97133D01*
X470367Y-96800D01*
X470775Y-96600D01*
X471183D01*
X471592Y-96733D01*
X471942Y-97067D01*
G01X475050Y-96600D02*
X476450D01*
G01X475750D02*
Y-100600D01*
G01X475050D02*
X476450D01*
G01X480900Y-98600D02*
X482067D01*
Y-99800D01*
X481717Y-100200D01*
X481308Y-100467D01*
X480725Y-100600D01*
X480142Y-100467D01*
X479733Y-100200D01*
X479383Y-99800D01*
X479150Y-99333D01*
X479033Y-98800D01*
Y-98333D01*
X479150Y-97933D01*
X479383Y-97467D01*
X479733Y-97067D01*
X480083Y-96800D01*
X480550Y-96600D01*
X480958D01*
X481425Y-96733D01*
X481775Y-97000D01*
G01X484008Y-100600D02*
Y-96600D01*
X486692Y-100600D01*
Y-96600D01*
G01X344983Y-92600D02*
Y-88600D01*
X346383D01*
X346850Y-88800D01*
X347200Y-89267D01*
X347317Y-89800D01*
X347200Y-90333D01*
X346908Y-90733D01*
X346383Y-90933D01*
X344983D01*
G01X349783Y-92600D02*
Y-88600D01*
X351242D01*
X351708Y-88800D01*
X352000Y-89067D01*
X352117Y-89600D01*
X352000Y-90133D01*
X351650Y-90467D01*
X351242Y-90667D01*
X349783D01*
G01X351242D02*
X352117Y-92600D01*
G01X355750D02*
X355283Y-92533D01*
X354875Y-92267D01*
X354525Y-91867D01*
X354292Y-91400D01*
X354175Y-90867D01*
Y-90333D01*
X354292Y-89800D01*
X354525Y-89333D01*
X354875Y-88933D01*
X355283Y-88667D01*
X355750Y-88600D01*
X356217Y-88667D01*
X356625Y-88933D01*
X356975Y-89333D01*
X357208Y-89800D01*
X357325Y-90333D01*
Y-90867D01*
X357208Y-91400D01*
X356975Y-91867D01*
X356625Y-92267D01*
X356217Y-92533D01*
X355750Y-92600D01*
G01X359383D02*
Y-88600D01*
X360783D01*
X361250Y-88800D01*
X361600Y-89267D01*
X361717Y-89800D01*
X361600Y-90333D01*
X361308Y-90733D01*
X360783Y-90933D01*
X359383D01*
G01X364183Y-92600D02*
Y-88600D01*
X365642D01*
X366108Y-88800D01*
X366400Y-89067D01*
X366517Y-89600D01*
X366400Y-90133D01*
X366050Y-90467D01*
X365642Y-90667D01*
X364183D01*
G01X365642D02*
X366517Y-92600D01*
G01X369450Y-88600D02*
X370850D01*
G01X370150D02*
Y-92600D01*
G01X369450D02*
X370850D01*
G01X376117D02*
X373783D01*
Y-88600D01*
X376117D01*
G01X375183Y-90533D02*
X373783D01*
G01X379750Y-88600D02*
Y-92600D01*
G01X378408Y-88600D02*
X381092D01*
G01X383092Y-92600D02*
X384550Y-88600D01*
X386008Y-92600D01*
G01X385483Y-91200D02*
X383617D01*
G01X388183Y-92600D02*
Y-88600D01*
X389642D01*
X390108Y-88800D01*
X390400Y-89067D01*
X390517Y-89600D01*
X390400Y-90133D01*
X390050Y-90467D01*
X389642Y-90667D01*
X388183D01*
G01X389642D02*
X390517Y-92600D01*
G01X394150D02*
Y-90800D01*
X392983Y-88600D01*
G01X395317D02*
X394150Y-90800D01*
G01X403750Y-88600D02*
Y-92600D01*
G01X402408Y-88600D02*
X405092D01*
G01X408550Y-92600D02*
X408083Y-92533D01*
X407675Y-92267D01*
X407325Y-91867D01*
X407092Y-91400D01*
X406975Y-90867D01*
Y-90333D01*
X407092Y-89800D01*
X407325Y-89333D01*
X407675Y-88933D01*
X408083Y-88667D01*
X408550Y-88600D01*
X409017Y-88667D01*
X409425Y-88933D01*
X409775Y-89333D01*
X410008Y-89800D01*
X410125Y-90333D01*
Y-90867D01*
X410008Y-91400D01*
X409775Y-91867D01*
X409425Y-92267D01*
X409017Y-92533D01*
X408550Y-92600D01*
G01X416808D02*
Y-88600D01*
X419492Y-92600D01*
Y-88600D01*
G01X421725Y-92600D02*
X424175Y-88600D01*
G01X421725D02*
X424175Y-92600D01*
G01X426583D02*
Y-88600D01*
X427983D01*
X428450Y-88800D01*
X428800Y-89267D01*
X428917Y-89800D01*
X428800Y-90333D01*
X428508Y-90733D01*
X427983Y-90933D01*
X426583D01*
G01X435892Y-92600D02*
X437350Y-88600D01*
X438808Y-92600D01*
G01X438283Y-91200D02*
X436417D01*
G01X440808Y-92600D02*
Y-88600D01*
X443492Y-92600D01*
Y-88600D01*
G01X445667Y-92600D02*
Y-88600D01*
X446833D01*
X447300Y-88800D01*
X447650Y-89067D01*
X447942Y-89467D01*
X448175Y-89933D01*
X448233Y-90600D01*
X448175Y-91267D01*
X447942Y-91733D01*
X447650Y-92133D01*
X447300Y-92400D01*
X446833Y-92600D01*
X445667D01*
G01X455325Y-92067D02*
X455792Y-92400D01*
X456317Y-92600D01*
X456783D01*
X457250Y-92400D01*
X457600Y-92067D01*
X457775Y-91600D01*
X457658Y-91133D01*
X457367Y-90733D01*
X456842Y-90467D01*
X456142Y-90333D01*
X455733Y-90067D01*
X455558Y-89600D01*
X455675Y-89133D01*
X455967Y-88800D01*
X456375Y-88600D01*
X456783D01*
X457192Y-88733D01*
X457542Y-89067D01*
G01X460125Y-92600D02*
Y-88600D01*
G01X462575D02*
Y-92600D01*
G01Y-90600D02*
X460125D01*
G01X464692Y-92600D02*
X466150Y-88600D01*
X467608Y-92600D01*
G01X467083Y-91200D02*
X465217D01*
G01X469783Y-88600D02*
Y-92600D01*
X472117D01*
G01X474583Y-88600D02*
Y-92600D01*
X476917D01*
G01X484008D02*
Y-88600D01*
X486692Y-92600D01*
Y-88600D01*
G01X490150Y-92600D02*
X489683Y-92533D01*
X489275Y-92267D01*
X488925Y-91867D01*
X488692Y-91400D01*
X488575Y-90867D01*
Y-90333D01*
X488692Y-89800D01*
X488925Y-89333D01*
X489275Y-88933D01*
X489683Y-88667D01*
X490150Y-88600D01*
X490617Y-88667D01*
X491025Y-88933D01*
X491375Y-89333D01*
X491608Y-89800D01*
X491725Y-90333D01*
Y-90867D01*
X491608Y-91400D01*
X491375Y-91867D01*
X491025Y-92267D01*
X490617Y-92533D01*
X490150Y-92600D01*
G01X494950Y-88600D02*
Y-92600D01*
G01X493608Y-88600D02*
X496292D01*
G01X346150Y-80600D02*
Y-84600D01*
G01X344808Y-80600D02*
X347492D01*
G01X349725Y-84600D02*
Y-80600D01*
G01X352175D02*
Y-84600D01*
G01Y-82600D02*
X349725D01*
G01X355050Y-80600D02*
X356450D01*
G01X355750D02*
Y-84600D01*
G01X355050D02*
X356450D01*
G01X359325Y-84067D02*
X359792Y-84400D01*
X360317Y-84600D01*
X360783D01*
X361250Y-84400D01*
X361600Y-84067D01*
X361775Y-83600D01*
X361658Y-83133D01*
X361367Y-82733D01*
X360842Y-82467D01*
X360142Y-82333D01*
X359733Y-82067D01*
X359558Y-81600D01*
X359675Y-81133D01*
X359967Y-80800D01*
X360375Y-80600D01*
X360783D01*
X361192Y-80733D01*
X361542Y-81067D01*
G01X368867Y-84600D02*
Y-80600D01*
X370033D01*
X370500Y-80800D01*
X370850Y-81067D01*
X371142Y-81467D01*
X371375Y-81933D01*
X371433Y-82600D01*
X371375Y-83267D01*
X371142Y-83733D01*
X370850Y-84133D01*
X370500Y-84400D01*
X370033Y-84600D01*
X368867D01*
G01X374950D02*
X374483Y-84533D01*
X374075Y-84267D01*
X373725Y-83867D01*
X373492Y-83400D01*
X373375Y-82867D01*
Y-82333D01*
X373492Y-81800D01*
X373725Y-81333D01*
X374075Y-80933D01*
X374483Y-80667D01*
X374950Y-80600D01*
X375417Y-80667D01*
X375825Y-80933D01*
X376175Y-81333D01*
X376408Y-81800D01*
X376525Y-82333D01*
Y-82867D01*
X376408Y-83400D01*
X376175Y-83867D01*
X375825Y-84267D01*
X375417Y-84533D01*
X374950Y-84600D01*
G01X381033Y-80933D02*
X380683Y-80733D01*
X380275Y-80600D01*
X379808D01*
X379283Y-80800D01*
X378875Y-81133D01*
X378583Y-81533D01*
X378350Y-82200D01*
X378292Y-82800D01*
X378408Y-83400D01*
X378583Y-83800D01*
X378933Y-84200D01*
X379342Y-84467D01*
X379750Y-84600D01*
X380158D01*
X380567Y-84467D01*
X380917Y-84267D01*
X381208Y-84000D01*
G01X383267Y-80600D02*
Y-83467D01*
X383500Y-84067D01*
X383967Y-84467D01*
X384550Y-84600D01*
X385133Y-84467D01*
X385600Y-84067D01*
X385833Y-83467D01*
Y-80600D01*
G01X387833Y-84600D02*
Y-80600D01*
X389350Y-83933D01*
X390867Y-80600D01*
Y-84600D01*
G01X395317D02*
X392983D01*
Y-80600D01*
X395317D01*
G01X394383Y-82533D02*
X392983D01*
G01X397608Y-84600D02*
Y-80600D01*
X400292Y-84600D01*
Y-80600D01*
G01X403750D02*
Y-84600D01*
G01X402408Y-80600D02*
X405092D01*
G01X414633Y-80933D02*
X414283Y-80733D01*
X413875Y-80600D01*
X413408D01*
X412883Y-80800D01*
X412475Y-81133D01*
X412183Y-81533D01*
X411950Y-82200D01*
X411892Y-82800D01*
X412008Y-83400D01*
X412183Y-83800D01*
X412533Y-84200D01*
X412942Y-84467D01*
X413350Y-84600D01*
X413758D01*
X414167Y-84467D01*
X414517Y-84267D01*
X414808Y-84000D01*
G01X418150Y-84600D02*
X417683Y-84533D01*
X417275Y-84267D01*
X416925Y-83867D01*
X416692Y-83400D01*
X416575Y-82867D01*
Y-82333D01*
X416692Y-81800D01*
X416925Y-81333D01*
X417275Y-80933D01*
X417683Y-80667D01*
X418150Y-80600D01*
X418617Y-80667D01*
X419025Y-80933D01*
X419375Y-81333D01*
X419608Y-81800D01*
X419725Y-82333D01*
Y-82867D01*
X419608Y-83400D01*
X419375Y-83867D01*
X419025Y-84267D01*
X418617Y-84533D01*
X418150Y-84600D01*
G01X421608D02*
Y-80600D01*
X424292Y-84600D01*
Y-80600D01*
G01X427750D02*
Y-84600D01*
G01X426408Y-80600D02*
X429092D01*
G01X431092Y-84600D02*
X432550Y-80600D01*
X434008Y-84600D01*
G01X433483Y-83200D02*
X431617D01*
G01X436650Y-80600D02*
X438050D01*
G01X437350D02*
Y-84600D01*
G01X436650D02*
X438050D01*
G01X440808D02*
Y-80600D01*
X443492Y-84600D01*
Y-80600D01*
G01X445725Y-84067D02*
X446192Y-84400D01*
X446717Y-84600D01*
X447183D01*
X447650Y-84400D01*
X448000Y-84067D01*
X448175Y-83600D01*
X448058Y-83133D01*
X447767Y-82733D01*
X447242Y-82467D01*
X446542Y-82333D01*
X446133Y-82067D01*
X445958Y-81600D01*
X446075Y-81133D01*
X446367Y-80800D01*
X446775Y-80600D01*
X447183D01*
X447592Y-80733D01*
X447942Y-81067D01*
G01X455850Y-80600D02*
X457250D01*
G01X456550D02*
Y-84600D01*
G01X455850D02*
X457250D01*
G01X460008D02*
Y-80600D01*
X462692Y-84600D01*
Y-80600D01*
G01X465042Y-84600D02*
Y-80600D01*
X467258D01*
G01X466442Y-82533D02*
X465042D01*
G01X470950Y-84600D02*
X470483Y-84533D01*
X470075Y-84267D01*
X469725Y-83867D01*
X469492Y-83400D01*
X469375Y-82867D01*
Y-82333D01*
X469492Y-81800D01*
X469725Y-81333D01*
X470075Y-80933D01*
X470483Y-80667D01*
X470950Y-80600D01*
X471417Y-80667D01*
X471825Y-80933D01*
X472175Y-81333D01*
X472408Y-81800D01*
X472525Y-82333D01*
Y-82867D01*
X472408Y-83400D01*
X472175Y-83867D01*
X471825Y-84267D01*
X471417Y-84533D01*
X470950Y-84600D01*
G01X474583D02*
Y-80600D01*
X476042D01*
X476508Y-80800D01*
X476800Y-81067D01*
X476917Y-81600D01*
X476800Y-82133D01*
X476450Y-82467D01*
X476042Y-82667D01*
X474583D01*
G01X476042D02*
X476917Y-84600D01*
G01X479033D02*
Y-80600D01*
X480550Y-83933D01*
X482067Y-80600D01*
Y-84600D01*
G01X483892D02*
X485350Y-80600D01*
X486808Y-84600D01*
G01X486283Y-83200D02*
X484417D01*
G01X490150Y-80600D02*
Y-84600D01*
G01X488808Y-80600D02*
X491492D01*
G01X494250D02*
X495650D01*
G01X494950D02*
Y-84600D01*
G01X494250D02*
X495650D01*
G01X499750D02*
X499283Y-84533D01*
X498875Y-84267D01*
X498525Y-83867D01*
X498292Y-83400D01*
X498175Y-82867D01*
Y-82333D01*
X498292Y-81800D01*
X498525Y-81333D01*
X498875Y-80933D01*
X499283Y-80667D01*
X499750Y-80600D01*
X500217Y-80667D01*
X500625Y-80933D01*
X500975Y-81333D01*
X501208Y-81800D01*
X501325Y-82333D01*
Y-82867D01*
X501208Y-83400D01*
X500975Y-83867D01*
X500625Y-84267D01*
X500217Y-84533D01*
X499750Y-84600D01*
G01X503208D02*
Y-80600D01*
X505892Y-84600D01*
Y-80600D01*
G01X357250Y-144100D02*
X356623Y-144000D01*
X356075Y-143600D01*
X355605Y-143000D01*
X355292Y-142300D01*
X355135Y-141500D01*
Y-140700D01*
X355292Y-139900D01*
X355605Y-139200D01*
X356075Y-138600D01*
X356623Y-138200D01*
X357250Y-138100D01*
X357877Y-138200D01*
X358425Y-138600D01*
X358895Y-139200D01*
X359208Y-139900D01*
X359365Y-140700D01*
Y-141500D01*
X359208Y-142300D01*
X358895Y-143000D01*
X358425Y-143600D01*
X357877Y-144000D01*
X357250Y-144100D01*
G01X362062D02*
Y-138100D01*
X365038D01*
G01X363942Y-141000D02*
X362062D01*
G01X376150Y-144100D02*
Y-138100D01*
X375210Y-139300D01*
G01Y-144100D02*
X377090D01*
G01X382450Y-138100D02*
X381823Y-138300D01*
X381353Y-138800D01*
X381040Y-139400D01*
X380805Y-140200D01*
X380727Y-141100D01*
X380805Y-142000D01*
X381040Y-142800D01*
X381353Y-143400D01*
X381823Y-143900D01*
X382450Y-144100D01*
X383077Y-143900D01*
X383547Y-143400D01*
X383860Y-142800D01*
X384095Y-142000D01*
X384173Y-141100D01*
X384095Y-140200D01*
X383860Y-139400D01*
X383547Y-138800D01*
X383077Y-138300D01*
X382450Y-138100D01*
G01X389042Y-135600D02*
Y-131600D01*
X391258D01*
G01X390442Y-133533D02*
X389042D01*
G01X394250Y-131600D02*
X395650D01*
G01X394950D02*
Y-135600D01*
G01X394250D02*
X395650D01*
G01X398583Y-131600D02*
Y-135600D01*
X400917D01*
G01X403033D02*
Y-131600D01*
X404550Y-134933D01*
X406067Y-131600D01*
Y-135600D01*
G01X391683Y-138100D02*
Y-144100D01*
X394817D01*
G01X400490D02*
Y-138100D01*
X397592Y-142400D01*
X401508D01*
G01X403500Y-146100D02*
X408200D01*
G01X410505Y-143300D02*
X411132Y-143800D01*
X411837Y-144100D01*
X412463D01*
X413090Y-143800D01*
X413560Y-143300D01*
X413795Y-142600D01*
X413638Y-141900D01*
X413247Y-141300D01*
X412542Y-140900D01*
X411602Y-140700D01*
X411053Y-140300D01*
X410818Y-139600D01*
X410975Y-138900D01*
X411367Y-138400D01*
X411915Y-138100D01*
X412463D01*
X413012Y-138300D01*
X413482Y-138800D01*
G01X416805Y-143300D02*
X417432Y-143800D01*
X418137Y-144100D01*
X418763D01*
X419390Y-143800D01*
X419860Y-143300D01*
X420095Y-142600D01*
X419938Y-141900D01*
X419547Y-141300D01*
X418842Y-140900D01*
X417902Y-140700D01*
X417353Y-140300D01*
X417118Y-139600D01*
X417275Y-138900D01*
X417667Y-138400D01*
X418215Y-138100D01*
X418763D01*
X419312Y-138300D01*
X419782Y-138800D01*
G01X513867Y-135600D02*
Y-131600D01*
X515033D01*
X515500Y-131800D01*
X515850Y-132067D01*
X516142Y-132467D01*
X516375Y-132933D01*
X516433Y-133600D01*
X516375Y-134267D01*
X516142Y-134733D01*
X515850Y-135133D01*
X515500Y-135400D01*
X515033Y-135600D01*
X513867D01*
G01X518492D02*
X519950Y-131600D01*
X521408Y-135600D01*
G01X520883Y-134200D02*
X519017D01*
G01X524750Y-131600D02*
Y-135600D01*
G01X523408Y-131600D02*
X526092D01*
G01X530717Y-135600D02*
X528383D01*
Y-131600D01*
X530717D01*
G01X529783Y-133533D02*
X528383D01*
G01X513808Y-55600D02*
Y-51600D01*
X516492Y-55600D01*
Y-51600D01*
G01X518492Y-55600D02*
X519950Y-51600D01*
X521408Y-55600D01*
G01X520883Y-54200D02*
X519017D01*
G01X523233Y-55600D02*
Y-51600D01*
X524750Y-54933D01*
X526267Y-51600D01*
Y-55600D01*
G01X530717D02*
X528383D01*
Y-51600D01*
X530717D01*
G01X529783Y-53533D02*
X528383D01*
G01X517150Y-139600D02*
X516683Y-139733D01*
X516333Y-140067D01*
X516100Y-140467D01*
X515925Y-141000D01*
X515867Y-141600D01*
X515925Y-142200D01*
X516100Y-142733D01*
X516333Y-143133D01*
X516683Y-143467D01*
X517150Y-143600D01*
X517617Y-143467D01*
X517967Y-143133D01*
X518200Y-142733D01*
X518375Y-142200D01*
X518433Y-141600D01*
X518375Y-141000D01*
X518200Y-140467D01*
X517967Y-140067D01*
X517617Y-139733D01*
X517150Y-139600D01*
G01X520667Y-142800D02*
X521017Y-143267D01*
X521483Y-143533D01*
X522008Y-143600D01*
X522475Y-143533D01*
X522942Y-143200D01*
X523233Y-142800D01*
X523292Y-142400D01*
X523175Y-141933D01*
X522767Y-141600D01*
X522358Y-141467D01*
X521833D01*
G01X522358D02*
X522708Y-141267D01*
X523000Y-140933D01*
X523117Y-140533D01*
X523000Y-140133D01*
X522708Y-139800D01*
X522183Y-139600D01*
X521658Y-139667D01*
X521133Y-139933D01*
G01X525992Y-142267D02*
X527508D01*
G01X531550Y-143600D02*
Y-139600D01*
X530850Y-140400D01*
G01Y-143600D02*
X532250D01*
G01X535067Y-142800D02*
X535417Y-143267D01*
X535883Y-143533D01*
X536408Y-143600D01*
X536875Y-143533D01*
X537342Y-143200D01*
X537633Y-142800D01*
X537692Y-142400D01*
X537575Y-141933D01*
X537167Y-141600D01*
X536758Y-141467D01*
X536233D01*
G01X536758D02*
X537108Y-141267D01*
X537400Y-140933D01*
X537517Y-140533D01*
X537400Y-140133D01*
X537108Y-139800D01*
X536583Y-139600D01*
X536058Y-139667D01*
X535533Y-139933D01*
G01X540392Y-142267D02*
X541908D01*
G01X544842Y-140267D02*
X545192Y-139867D01*
X545600Y-139667D01*
X546067Y-139600D01*
X546650Y-139733D01*
X547058Y-140067D01*
X547175Y-140467D01*
X547117Y-140867D01*
X546883Y-141200D01*
X545717Y-141867D01*
X545192Y-142333D01*
X544842Y-143000D01*
X544725Y-143600D01*
X547175D01*
G01X551450D02*
Y-139600D01*
X549292Y-142467D01*
X552208D01*
G01X523400Y-121433D02*
X526900D01*
G01X528200D02*
X531700D01*
G01X533000D02*
X536500D01*
G01X545633Y-116433D02*
X545283Y-116233D01*
X544875Y-116100D01*
X544408D01*
X543883Y-116300D01*
X543475Y-116633D01*
X543183Y-117033D01*
X542950Y-117700D01*
X542892Y-118300D01*
X543008Y-118900D01*
X543183Y-119300D01*
X543533Y-119700D01*
X543942Y-119967D01*
X544350Y-120100D01*
X544758D01*
X545167Y-119967D01*
X545517Y-119767D01*
X545808Y-119500D01*
G01X549150Y-120100D02*
X548683Y-120033D01*
X548275Y-119767D01*
X547925Y-119367D01*
X547692Y-118900D01*
X547575Y-118367D01*
Y-117833D01*
X547692Y-117300D01*
X547925Y-116833D01*
X548275Y-116433D01*
X548683Y-116167D01*
X549150Y-116100D01*
X549617Y-116167D01*
X550025Y-116433D01*
X550375Y-116833D01*
X550608Y-117300D01*
X550725Y-117833D01*
Y-118367D01*
X550608Y-118900D01*
X550375Y-119367D01*
X550025Y-119767D01*
X549617Y-120033D01*
X549150Y-120100D01*
G01X552433D02*
Y-116100D01*
X553950Y-119433D01*
X555467Y-116100D01*
Y-120100D01*
G01X557583D02*
Y-116100D01*
X558983D01*
X559450Y-116300D01*
X559800Y-116767D01*
X559917Y-117300D01*
X559800Y-117833D01*
X559508Y-118233D01*
X558983Y-118433D01*
X557583D01*
G01X562092Y-120100D02*
X563550Y-116100D01*
X565008Y-120100D01*
G01X564483Y-118700D02*
X562617D01*
G01X567008Y-120100D02*
Y-116100D01*
X569692Y-120100D01*
Y-116100D01*
G01X573150Y-120100D02*
Y-118300D01*
X571983Y-116100D01*
G01X574317D02*
X573150Y-118300D01*
G01X584033Y-116433D02*
X583683Y-116233D01*
X583275Y-116100D01*
X582808D01*
X582283Y-116300D01*
X581875Y-116633D01*
X581583Y-117033D01*
X581350Y-117700D01*
X581292Y-118300D01*
X581408Y-118900D01*
X581583Y-119300D01*
X581933Y-119700D01*
X582342Y-119967D01*
X582750Y-120100D01*
X583158D01*
X583567Y-119967D01*
X583917Y-119767D01*
X584208Y-119500D01*
G01X587550Y-120100D02*
X587083Y-120033D01*
X586675Y-119767D01*
X586325Y-119367D01*
X586092Y-118900D01*
X585975Y-118367D01*
Y-117833D01*
X586092Y-117300D01*
X586325Y-116833D01*
X586675Y-116433D01*
X587083Y-116167D01*
X587550Y-116100D01*
X588017Y-116167D01*
X588425Y-116433D01*
X588775Y-116833D01*
X589008Y-117300D01*
X589125Y-117833D01*
Y-118367D01*
X589008Y-118900D01*
X588775Y-119367D01*
X588425Y-119767D01*
X588017Y-120033D01*
X587550Y-120100D01*
G01X591008D02*
Y-116100D01*
X593692Y-120100D01*
Y-116100D01*
G01X596042Y-120100D02*
Y-116100D01*
X598258D01*
G01X597442Y-118033D02*
X596042D01*
G01X601250Y-116100D02*
X602650D01*
G01X601950D02*
Y-120100D01*
G01X601250D02*
X602650D01*
G01X605467D02*
Y-116100D01*
X606633D01*
X607100Y-116300D01*
X607450Y-116567D01*
X607742Y-116967D01*
X607975Y-117433D01*
X608033Y-118100D01*
X607975Y-118767D01*
X607742Y-119233D01*
X607450Y-119633D01*
X607100Y-119900D01*
X606633Y-120100D01*
X605467D01*
G01X612717D02*
X610383D01*
Y-116100D01*
X612717D01*
G01X611783Y-118033D02*
X610383D01*
G01X615008Y-120100D02*
Y-116100D01*
X617692Y-120100D01*
Y-116100D01*
G01X621150D02*
Y-120100D01*
G01X619808Y-116100D02*
X622492D01*
G01X625250D02*
X626650D01*
G01X625950D02*
Y-120100D01*
G01X625250D02*
X626650D01*
G01X629292D02*
X630750Y-116100D01*
X632208Y-120100D01*
G01X631683Y-118700D02*
X629817D01*
G01X634383Y-116100D02*
Y-120100D01*
X636717D01*
G01X523400Y-104933D02*
X526900D01*
G01X528200D02*
X531700D01*
G01X533000D02*
X536500D01*
G01X545633Y-99933D02*
X545283Y-99733D01*
X544875Y-99600D01*
X544408D01*
X543883Y-99800D01*
X543475Y-100133D01*
X543183Y-100533D01*
X542950Y-101200D01*
X542892Y-101800D01*
X543008Y-102400D01*
X543183Y-102800D01*
X543533Y-103200D01*
X543942Y-103467D01*
X544350Y-103600D01*
X544758D01*
X545167Y-103467D01*
X545517Y-103267D01*
X545808Y-103000D01*
G01X549150Y-103600D02*
X548683Y-103533D01*
X548275Y-103267D01*
X547925Y-102867D01*
X547692Y-102400D01*
X547575Y-101867D01*
Y-101333D01*
X547692Y-100800D01*
X547925Y-100333D01*
X548275Y-99933D01*
X548683Y-99667D01*
X549150Y-99600D01*
X549617Y-99667D01*
X550025Y-99933D01*
X550375Y-100333D01*
X550608Y-100800D01*
X550725Y-101333D01*
Y-101867D01*
X550608Y-102400D01*
X550375Y-102867D01*
X550025Y-103267D01*
X549617Y-103533D01*
X549150Y-103600D01*
G01X552433D02*
Y-99600D01*
X553950Y-102933D01*
X555467Y-99600D01*
Y-103600D01*
G01X557583D02*
Y-99600D01*
X558983D01*
X559450Y-99800D01*
X559800Y-100267D01*
X559917Y-100800D01*
X559800Y-101333D01*
X559508Y-101733D01*
X558983Y-101933D01*
X557583D01*
G01X562092Y-103600D02*
X563550Y-99600D01*
X565008Y-103600D01*
G01X564483Y-102200D02*
X562617D01*
G01X567008Y-103600D02*
Y-99600D01*
X569692Y-103600D01*
Y-99600D01*
G01X573150Y-103600D02*
Y-101800D01*
X571983Y-99600D01*
G01X574317D02*
X573150Y-101800D01*
G01X582050Y-99600D02*
X583450D01*
G01X582750D02*
Y-103600D01*
G01X582050D02*
X583450D01*
G01X586208D02*
Y-99600D01*
X588892Y-103600D01*
Y-99600D01*
G01X592350D02*
Y-103600D01*
G01X591008Y-99600D02*
X593692D01*
G01X598317Y-103600D02*
X595983D01*
Y-99600D01*
X598317D01*
G01X597383Y-101533D02*
X595983D01*
G01X600783Y-103600D02*
Y-99600D01*
X602242D01*
X602708Y-99800D01*
X603000Y-100067D01*
X603117Y-100600D01*
X603000Y-101133D01*
X602650Y-101467D01*
X602242Y-101667D01*
X600783D01*
G01X602242D02*
X603117Y-103600D01*
G01X605408D02*
Y-99600D01*
X608092Y-103600D01*
Y-99600D01*
G01X610092Y-103600D02*
X611550Y-99600D01*
X613008Y-103600D01*
G01X612483Y-102200D02*
X610617D01*
G01X615183Y-99600D02*
Y-103600D01*
X617517D01*
G01X523400Y-88933D02*
X526900D01*
G01X528200D02*
X531700D01*
G01X533000D02*
X536500D01*
G01X545633Y-83933D02*
X545283Y-83733D01*
X544875Y-83600D01*
X544408D01*
X543883Y-83800D01*
X543475Y-84133D01*
X543183Y-84533D01*
X542950Y-85200D01*
X542892Y-85800D01*
X543008Y-86400D01*
X543183Y-86800D01*
X543533Y-87200D01*
X543942Y-87467D01*
X544350Y-87600D01*
X544758D01*
X545167Y-87467D01*
X545517Y-87267D01*
X545808Y-87000D01*
G01X549150Y-87600D02*
X548683Y-87533D01*
X548275Y-87267D01*
X547925Y-86867D01*
X547692Y-86400D01*
X547575Y-85867D01*
Y-85333D01*
X547692Y-84800D01*
X547925Y-84333D01*
X548275Y-83933D01*
X548683Y-83667D01*
X549150Y-83600D01*
X549617Y-83667D01*
X550025Y-83933D01*
X550375Y-84333D01*
X550608Y-84800D01*
X550725Y-85333D01*
Y-85867D01*
X550608Y-86400D01*
X550375Y-86867D01*
X550025Y-87267D01*
X549617Y-87533D01*
X549150Y-87600D01*
G01X552433D02*
Y-83600D01*
X553950Y-86933D01*
X555467Y-83600D01*
Y-87600D01*
G01X557583D02*
Y-83600D01*
X558983D01*
X559450Y-83800D01*
X559800Y-84267D01*
X559917Y-84800D01*
X559800Y-85333D01*
X559508Y-85733D01*
X558983Y-85933D01*
X557583D01*
G01X562092Y-87600D02*
X563550Y-83600D01*
X565008Y-87600D01*
G01X564483Y-86200D02*
X562617D01*
G01X567008Y-87600D02*
Y-83600D01*
X569692Y-87600D01*
Y-83600D01*
G01X573150Y-87600D02*
Y-85800D01*
X571983Y-83600D01*
G01X574317D02*
X573150Y-85800D01*
G01X581583Y-87600D02*
Y-83600D01*
X582983D01*
X583450Y-83800D01*
X583800Y-84267D01*
X583917Y-84800D01*
X583800Y-85333D01*
X583508Y-85733D01*
X582983Y-85933D01*
X581583D01*
G01X586267Y-83600D02*
Y-86467D01*
X586500Y-87067D01*
X586967Y-87467D01*
X587550Y-87600D01*
X588133Y-87467D01*
X588600Y-87067D01*
X588833Y-86467D01*
Y-83600D01*
G01X592817Y-85467D02*
X593050Y-85267D01*
X593225Y-84933D01*
X593342Y-84467D01*
X593225Y-84067D01*
X592992Y-83800D01*
X592583Y-83600D01*
X591008D01*
Y-87600D01*
X592933D01*
X593342Y-87333D01*
X593575Y-86933D01*
X593692Y-86467D01*
X593575Y-86000D01*
X593225Y-85600D01*
X592817Y-85467D01*
X591008D01*
G01X595983Y-83600D02*
Y-87600D01*
X598317D01*
G01X601250Y-83600D02*
X602650D01*
G01X601950D02*
Y-87600D01*
G01X601250D02*
X602650D01*
G01X608033Y-83933D02*
X607683Y-83733D01*
X607275Y-83600D01*
X606808D01*
X606283Y-83800D01*
X605875Y-84133D01*
X605583Y-84533D01*
X605350Y-85200D01*
X605292Y-85800D01*
X605408Y-86400D01*
X605583Y-86800D01*
X605933Y-87200D01*
X606342Y-87467D01*
X606750Y-87600D01*
X607158D01*
X607567Y-87467D01*
X607917Y-87267D01*
X608208Y-87000D01*
G01X528105Y-104600D02*
X531395Y-98300D01*
G01X528105D02*
X531395Y-104600D01*
G01X563808Y-135600D02*
Y-131600D01*
X566492Y-135600D01*
Y-131600D01*
G01X568667D02*
Y-134467D01*
X568900Y-135067D01*
X569367Y-135467D01*
X569950Y-135600D01*
X570533Y-135467D01*
X571000Y-135067D01*
X571233Y-134467D01*
Y-131600D01*
G01X573233Y-135600D02*
Y-131600D01*
X574750Y-134933D01*
X576267Y-131600D01*
Y-135600D01*
G01X580017Y-133467D02*
X580250Y-133267D01*
X580425Y-132933D01*
X580542Y-132467D01*
X580425Y-132067D01*
X580192Y-131800D01*
X579783Y-131600D01*
X578208D01*
Y-135600D01*
X580133D01*
X580542Y-135333D01*
X580775Y-134933D01*
X580892Y-134467D01*
X580775Y-134000D01*
X580425Y-133600D01*
X580017Y-133467D01*
X578208D01*
G01X585517Y-135600D02*
X583183D01*
Y-131600D01*
X585517D01*
G01X584583Y-133533D02*
X583183D01*
G01X587983Y-135600D02*
Y-131600D01*
X589442D01*
X589908Y-131800D01*
X590200Y-132067D01*
X590317Y-132600D01*
X590200Y-133133D01*
X589850Y-133467D01*
X589442Y-133667D01*
X587983D01*
G01X589442D02*
X590317Y-135600D01*
G01X586862Y-65700D02*
Y-59400D01*
X589838D01*
G01X588742Y-62445D02*
X586862D01*
G01X593083Y-65700D02*
Y-59400D01*
X595042D01*
X595668Y-59715D01*
X596060Y-60135D01*
X596217Y-60975D01*
X596060Y-61815D01*
X595590Y-62340D01*
X595042Y-62655D01*
X593083D01*
G01X595042D02*
X596217Y-65700D01*
G01X599227D02*
Y-59400D01*
X600793D01*
X601420Y-59715D01*
X601890Y-60135D01*
X602282Y-60765D01*
X602595Y-61500D01*
X602673Y-62550D01*
X602595Y-63600D01*
X602282Y-64335D01*
X601890Y-64965D01*
X601420Y-65385D01*
X600793Y-65700D01*
X599227D01*
G01X605213D02*
Y-59400D01*
X607250Y-64650D01*
X609287Y-59400D01*
Y-65700D01*
G01X612532Y-63600D02*
X614568D01*
G01X617813Y-65700D02*
Y-59400D01*
X619850Y-64650D01*
X621887Y-59400D01*
Y-65700D01*
G01X627873Y-59925D02*
X627403Y-59610D01*
X626855Y-59400D01*
X626228D01*
X625523Y-59715D01*
X624975Y-60240D01*
X624583Y-60870D01*
X624270Y-61920D01*
X624192Y-62865D01*
X624348Y-63810D01*
X624583Y-64440D01*
X625053Y-65070D01*
X625602Y-65490D01*
X626150Y-65700D01*
X626698D01*
X627247Y-65490D01*
X627717Y-65175D01*
X628108Y-64755D01*
G01X630805Y-65700D02*
X634095Y-59400D01*
G01X630805D02*
X634095Y-65700D01*
G01X640473Y-59925D02*
X640003Y-59610D01*
X639455Y-59400D01*
X638828D01*
X638123Y-59715D01*
X637575Y-60240D01*
X637183Y-60870D01*
X636870Y-61920D01*
X636792Y-62865D01*
X636948Y-63810D01*
X637183Y-64440D01*
X637653Y-65070D01*
X638202Y-65490D01*
X638750Y-65700D01*
X639298D01*
X639847Y-65490D01*
X640317Y-65175D01*
X640708Y-64755D01*
G01X645990Y-65700D02*
Y-59400D01*
X643092Y-63915D01*
X647008D01*
G01X652290Y-65700D02*
Y-59400D01*
X649392Y-63915D01*
X653308D01*
G01X658590Y-65700D02*
Y-59400D01*
X655692Y-63915D01*
X659608D01*
G01X598750Y-142800D02*
Y-136500D01*
X597810Y-137760D01*
G01Y-142800D02*
X599690D01*
G01X604893D02*
X605050Y-141435D01*
X605285Y-140280D01*
X605598Y-139230D01*
X605990Y-138075D01*
X606617Y-136500D01*
X603483D01*
G01X611350D02*
X610723Y-136710D01*
X610253Y-137235D01*
X609940Y-137865D01*
X609705Y-138705D01*
X609627Y-139650D01*
X609705Y-140595D01*
X609940Y-141435D01*
X610253Y-142065D01*
X610723Y-142590D01*
X611350Y-142800D01*
X611977Y-142590D01*
X612447Y-142065D01*
X612760Y-141435D01*
X612995Y-140595D01*
X613073Y-139650D01*
X612995Y-138705D01*
X612760Y-137865D01*
X612447Y-137235D01*
X611977Y-136710D01*
X611350Y-136500D01*
G01X616632Y-140700D02*
X618668D01*
G01X622618Y-142065D02*
X623167Y-142590D01*
X623793Y-142800D01*
X624420Y-142590D01*
X624968Y-141960D01*
X625360Y-141015D01*
X625517Y-140070D01*
Y-138915D01*
X625360Y-137970D01*
X624968Y-137130D01*
X624498Y-136710D01*
X623950Y-136500D01*
X623323Y-136710D01*
X622853Y-137130D01*
X622540Y-137760D01*
X622383Y-138600D01*
X622540Y-139335D01*
X622932Y-140070D01*
X623402Y-140490D01*
X623950Y-140595D01*
X624577Y-140385D01*
X625047Y-139860D01*
X625517Y-138915D01*
G01X628527Y-141540D02*
X628997Y-142275D01*
X629623Y-142695D01*
X630328Y-142800D01*
X630955Y-142695D01*
X631582Y-142170D01*
X631973Y-141540D01*
X632052Y-140910D01*
X631895Y-140175D01*
X631347Y-139650D01*
X630798Y-139440D01*
X630093D01*
G01X630798D02*
X631268Y-139125D01*
X631660Y-138600D01*
X631817Y-137970D01*
X631660Y-137340D01*
X631268Y-136815D01*
X630563Y-136500D01*
X629858Y-136605D01*
X629153Y-137025D01*
G01X637490Y-142800D02*
Y-136500D01*
X634592Y-141015D01*
X638508D01*
G01X643790Y-142800D02*
Y-136500D01*
X640892Y-141015D01*
X644808D01*
G01X649150Y-136500D02*
X648523Y-136710D01*
X648053Y-137235D01*
X647740Y-137865D01*
X647505Y-138705D01*
X647427Y-139650D01*
X647505Y-140595D01*
X647740Y-141435D01*
X648053Y-142065D01*
X648523Y-142590D01*
X649150Y-142800D01*
X649777Y-142590D01*
X650247Y-142065D01*
X650560Y-141435D01*
X650795Y-140595D01*
X650873Y-139650D01*
X650795Y-138705D01*
X650560Y-137865D01*
X650247Y-137235D01*
X649777Y-136710D01*
X649150Y-136500D01*
G01X691683Y-142800D02*
Y-136500D01*
X693642D01*
X694268Y-136815D01*
X694660Y-137235D01*
X694817Y-138075D01*
X694660Y-138915D01*
X694190Y-139440D01*
X693642Y-139755D01*
X691683D01*
G01X693642D02*
X694817Y-142800D01*
G01X701117D02*
X697983D01*
Y-136500D01*
X701117D01*
G01X699863Y-139545D02*
X697983D01*
G01X703892Y-136500D02*
X705850Y-142800D01*
X707808Y-136500D01*
G01X716492Y-142800D02*
X718450Y-136500D01*
X720408Y-142800D01*
G01X719703Y-140595D02*
X717197D01*
G54D23*
X204000Y54500D03*
Y144500D03*
G54D14*
X10500Y48500D03*
G54D33*
G01X42500Y176500D02*
X43500Y175500D01*
X110500D01*
X137500Y148500D01*
Y121500D01*
X132000Y116000D01*
G01X122000Y73000D02*
X120126D01*
X97920Y95206D01*
G01X122000Y81000D02*
X114300D01*
X100100Y95200D01*
G01X100500Y61500D02*
Y49280D01*
G01Y61500D02*
X105500Y66500D01*
X122000D01*
X129500Y59000D01*
X177500D01*
X182000Y63500D01*
X231500D01*
G01X100500Y182000D02*
X105500Y177000D01*
X111000D01*
X139500Y148500D01*
Y124500D01*
X147000Y117000D01*
X202000D01*
X211498Y107502D01*
X244864D01*
X244866Y107500D01*
G01X184000Y151500D02*
X141500D01*
X115000Y178000D01*
Y184500D01*
X112500Y187000D01*
X105000D01*
X100500Y191500D01*
Y192000D01*
G01X106500Y97000D02*
Y92000D01*
X114500Y84000D01*
X125000D01*
X127000Y82000D01*
Y67000D01*
X133500Y60500D01*
X157940D01*
X158500Y61060D01*
G01X116500Y92000D02*
X113250Y95250D01*
X109750D01*
G01X110500Y182000D02*
Y180000D01*
X141500Y149000D01*
Y125500D01*
X148500Y118500D01*
X204134D01*
X213134Y109500D01*
X247000D01*
X249000Y107500D01*
G01X189000Y151500D02*
X186500Y154000D01*
X141000D01*
X116440Y178560D01*
Y186060D01*
X110500Y192000D01*
G01X162500Y61060D02*
X160560Y63000D01*
X156000D01*
X155000Y62000D01*
X134000D01*
X128500Y67500D01*
Y112500D01*
X132000Y116000D01*
G01X153750Y63750D02*
X135250D01*
X130000Y69000D01*
Y95500D01*
X132000Y97500D01*
G01Y73000D02*
X134500Y75500D01*
X153000D01*
X155000Y73500D01*
X224500D01*
X235000Y84000D01*
G01X132000Y77000D02*
X133000Y78000D01*
X224500D01*
X230500Y84000D01*
G01X235000Y88000D02*
X219500D01*
X217820Y86320D01*
X202181D01*
X200001Y88500D01*
X146500D01*
X144000Y86000D01*
X140500D01*
X135500Y81000D01*
X132000D01*
G01Y92000D02*
X135000Y95000D01*
X144500D01*
X146500Y93000D01*
X198000D01*
X201560Y96560D01*
X235000D01*
G01X140000Y159000D02*
X135500Y163500D01*
Y187000D01*
X140500Y192000D01*
G01X244000Y54500D02*
X245500Y56000D01*
Y65500D01*
X244000Y67000D01*
X170500D01*
X169280Y65780D01*
X142720D01*
X139000Y69500D01*
G01Y73000D02*
X144500Y67500D01*
X157000D01*
G01X140000Y159000D02*
X142500Y156500D01*
X207500D01*
G01X142000Y83500D02*
X146000Y79500D01*
X221500D01*
X226000Y84000D01*
G01X249000Y88000D02*
X245500Y91500D01*
X217500D01*
X215205Y89205D01*
X203295D01*
X201000Y91500D01*
X143000D01*
X142000Y92500D01*
G01Y88500D02*
X143500Y90000D01*
X200500D01*
X202680Y87820D01*
X216320D01*
X218500Y90000D01*
X242500D01*
X244500Y88000D01*
G01X222600Y100500D02*
X203000D01*
X197000Y94500D01*
X149500D01*
X142000Y102000D01*
X141500D01*
G01X145000Y159000D02*
Y186500D01*
X150500Y192000D01*
G01X197220Y159000D02*
X145000D01*
G01X153750Y63750D02*
X154500Y64500D01*
X169500D01*
X170500Y65500D01*
X233650D01*
X235575Y63575D01*
G01X227000Y69000D02*
X226500Y68500D01*
X158000D01*
X157000Y67500D01*
G01X161500Y36000D02*
X198500D01*
X202000Y39500D01*
X279500D01*
G01X197220Y163000D02*
X179000D01*
X165500Y176500D01*
Y187000D01*
X160500Y192000D01*
G01X221500Y83000D02*
X219500Y81000D01*
X164560D01*
X164000Y81560D01*
G01X207500Y169500D02*
X184500D01*
X175500Y178500D01*
Y187000D01*
X170500Y192000D01*
G01X224500Y171500D02*
X191000D01*
X185500Y177000D01*
Y187000D01*
X180500Y192000D01*
G01X184000Y22500D02*
X187500Y19000D01*
X219500D01*
X226500Y12000D01*
G01X184000Y27500D02*
X186500Y25000D01*
X222000D01*
X224500Y27500D01*
X243500D01*
X252000Y36000D01*
X295500D01*
X300000Y31500D01*
X306500D01*
G01X184000Y151500D02*
X186000Y149500D01*
X219000D01*
X224000Y144500D01*
G01X188300Y22500D02*
X190300Y20500D01*
X228000D01*
X236500Y12000D01*
G01X306500Y37406D02*
X249406D01*
X241500Y29500D01*
X190140D01*
X188200Y27560D01*
Y27500D01*
G01X185500Y70500D02*
X215500D01*
G01X234000Y144500D02*
X226000Y152500D01*
X190000D01*
X189000Y151500D01*
G01X193050Y22500D02*
X231000D01*
X237000Y16500D01*
X262000D01*
X266500Y12000D01*
G01X193000Y39500D02*
X195500Y42000D01*
X254000D01*
G01X260000Y172000D02*
X229500D01*
X227940Y173560D01*
X200940D01*
X198000Y176500D01*
Y184500D01*
X190500Y192000D01*
G01X328000Y146626D02*
X315626Y159000D01*
X197220D01*
G01X299500Y163000D02*
X197220D01*
G01X285500Y44000D02*
X214500D01*
X204000Y54500D01*
G01X283000Y84500D02*
Y84000D01*
X281280Y82280D01*
X277220D01*
X268000Y91500D01*
X251500D01*
X250000Y93000D01*
X206000D01*
X204100Y91100D01*
X204000D01*
G01X279500Y84500D02*
X271000Y93000D01*
X252122D01*
X250622Y94500D01*
X204700D01*
X204000Y93800D01*
G01X259060Y136500D02*
X256560Y139000D01*
X209500D01*
X204000Y144500D01*
G01X237500Y174500D02*
X236000Y176000D01*
X212500D01*
X206500Y182000D01*
G01X207500Y156500D02*
X308126D01*
X328000Y136626D01*
G01Y166626D02*
X319126Y175500D01*
X267500D01*
X261500Y169500D01*
X207500D01*
G01X285500Y49500D02*
X219000D01*
X214000Y54500D01*
G01X215000Y112500D02*
X222500D01*
G01X212500Y116000D02*
X222500D01*
G01X216000Y136550D02*
X236050Y116500D01*
X297000D01*
X306500Y107000D01*
Y96461D01*
G01X338000Y156626D02*
X333322Y161304D01*
Y174178D01*
X320500Y187000D01*
X221500D01*
X216500Y192000D01*
G01X294000Y96500D02*
X292000Y94500D01*
X254500D01*
X250500Y98500D01*
X224600D01*
X222600Y100500D01*
G01X221000Y136550D02*
X239550Y118000D01*
X299000D01*
X311500Y105500D01*
Y91335D01*
X310720Y90555D01*
X306500D01*
G01X226500Y2000D02*
X232000Y-3500D01*
X280500D01*
X283500Y-500D01*
Y13500D01*
G01X226000Y84000D02*
X228000Y86000D01*
X271000D01*
X276000Y81000D01*
X291780D01*
X295280Y84500D01*
G01X306500Y78744D02*
X302280D01*
X301000Y80024D01*
Y99500D01*
X295500Y105000D01*
X278000D01*
X276000Y103000D01*
X264000D01*
X261500Y100500D01*
X228000D01*
G01X225500Y136550D02*
X242550Y119500D01*
X300999D01*
X314000Y106499D01*
Y87930D01*
X310720Y84650D01*
X306500D01*
G01X338000Y166626D02*
Y174000D01*
X315500Y196500D01*
X231000D01*
X226500Y192000D01*
G01X230000Y136550D02*
X236275Y130275D01*
X293727D01*
X316500Y107502D01*
Y78619D01*
X310720Y72839D01*
X306500D01*
G01Y66933D02*
X311434D01*
X319000Y74499D01*
Y108001D01*
X295001Y132000D01*
X239050D01*
X234500Y136550D01*
G01X293000Y18500D02*
X247000D01*
X241000Y24500D01*
G01X306500Y61028D02*
X311528D01*
X321500Y71000D01*
Y109000D01*
X296500Y134000D01*
X241550D01*
X239000Y136550D01*
G01X244000Y144500D02*
X248500Y149000D01*
X282500D01*
G01X254000Y42000D02*
X288500D01*
X299500Y53000D01*
G01X254000Y144500D02*
X259500Y139000D01*
X282000D01*
G01X259000Y98440D02*
X288560D01*
X290500Y96500D01*
G01X267000Y167500D02*
X272500Y173000D01*
X300000D01*
G01X306500Y55122D02*
X299500Y62122D01*
Y97500D01*
X294000Y103000D01*
X279000D01*
X277000Y101000D01*
X270500D01*
G01X274000Y107500D02*
X283000D01*
G01X286500D02*
X281500Y112500D01*
X274000D01*
G01X306500Y49217D02*
X298000Y57717D01*
Y96000D01*
X293000Y101000D01*
X280500D01*
G01X338000Y136626D02*
X332374Y131000D01*
X316500D01*
X310874Y136626D01*
X284374D01*
X282000Y139000D01*
G01X282500Y149000D02*
X302000D01*
X318500Y132500D01*
X331000D01*
X333500Y135000D01*
Y142126D01*
X338000Y146626D01*
G01X328000Y156626D02*
X321626Y163000D01*
X299500D01*
G54D24*
X214000Y54500D03*
Y144500D03*
X224000Y54500D03*
Y144500D03*
X234000Y54500D03*
Y144500D03*
X244000Y54500D03*
Y144500D03*
X254000Y54500D03*
Y144500D03*
X264000Y54500D03*
Y144500D03*
X274000Y54500D03*
Y144500D03*
G54D15*
X10185Y74576D03*
Y77922D03*
Y81269D03*
Y84615D03*
Y87962D03*
Y91308D03*
Y94655D03*
Y98001D03*
Y137421D03*
Y134075D03*
Y140768D03*
Y144114D03*
Y147461D03*
Y150807D03*
Y154154D03*
Y157500D03*
X15500Y74576D03*
Y77922D03*
Y81269D03*
Y84615D03*
Y87962D03*
Y91308D03*
Y94655D03*
Y134075D03*
Y137421D03*
Y140768D03*
Y144114D03*
Y150807D03*
Y147461D03*
Y154154D03*
G54D34*
G01Y87962D02*
X13532D01*
X10185Y84615D01*
G01X15500Y147461D02*
X13532D01*
X10185Y144114D01*
G01X33657Y85024D02*
X32556Y86125D01*
X24051D01*
X23824Y85898D01*
X16783D01*
X15500Y84615D01*
G01X33657Y88007D02*
X32555Y86905D01*
X23727D01*
X23500Y86678D01*
X16784D01*
X15500Y87962D01*
G01X34157Y143524D02*
X33056Y144625D01*
X22771D01*
X21999Y145397D01*
X16783D01*
X15500Y144114D01*
G01X34157Y146507D02*
X33055Y145405D01*
X23095D01*
X22323Y146177D01*
X16784D01*
X15500Y147461D01*
G01X39000Y139000D02*
Y140052D01*
X38650Y140402D01*
X38450D01*
X38100Y140752D01*
Y141452D01*
X38450Y141802D01*
X38650D01*
X39000Y142152D01*
Y143396D01*
X37771Y144625D01*
X35258D01*
X34157Y143524D01*
G01X39780Y139000D02*
Y143720D01*
X38095Y145405D01*
X35259D01*
X34157Y146507D01*
G01X39000Y139000D02*
Y117000D01*
X48829Y107171D01*
X90329D01*
X90679Y106821D01*
Y105208D01*
X90329Y104858D01*
X88030D01*
G01X39780Y139000D02*
Y117324D01*
X49153Y107951D01*
X90653D01*
X91459Y107145D01*
Y105209D01*
X91809Y104859D01*
X94108D01*
G54D16*
X15500Y98001D03*
Y157500D03*
G54D25*
X226500Y2000D03*
X236500D03*
Y12000D03*
X246500Y2000D03*
Y12000D03*
X256500Y2000D03*
Y12000D03*
X266500Y2000D03*
Y12000D03*
X276500Y2000D03*
Y12000D03*
G54D26*
X226500D03*
G54D17*
X57500Y49874D03*
X57000Y150200D03*
X67500Y49874D03*
X71126Y150200D03*
X100500Y71500D03*
X114500D03*
X175000Y111000D03*
Y124000D03*
Y137500D03*
G54D27*
X306500Y31500D03*
Y37406D03*
Y43311D03*
Y49217D03*
Y55122D03*
Y61028D03*
Y66933D03*
Y72839D03*
Y78744D03*
Y84650D03*
Y90555D03*
Y96461D03*
G54D18*
X57000Y160200D03*
X71126D03*
X77500Y49874D03*
X100500Y61500D03*
X114500D03*
X165000Y111000D03*
Y124000D03*
Y137500D03*
G54D28*
G01X335400Y-127600D02*
X735400D01*
G01X335400Y-97600D02*
Y-77600D01*
X735400D01*
G01X385400Y-147600D02*
Y-127600D01*
G01X510900Y-147600D02*
Y-127600D01*
G01X510400Y-77600D02*
Y-47600D01*
G01X560400Y-147600D02*
Y-127600D01*
G54D19*
X85530Y104880D03*
X88030Y104858D03*
X89000Y116500D03*
X94108Y104859D03*
X100100Y95200D03*
X97920Y95206D03*
G54D29*
G01X35000Y117000D02*
Y121000D01*
G01X188500Y100500D02*
Y96500D01*
G01X248000Y126000D02*
X245000Y123000D01*
Y122500D01*
G01X252500Y126000D02*
X256000Y122500D01*
X259500D01*
M02*
