G04 ================== begin FILE IDENTIFICATION RECORD ==================*
G04 Layout Name:  LAY-93440_A.brd*
G04 Film Name:    sss.art*
G04 File Format:  Gerber RS274X*
G04 File Origin:  Cadence Allegro 17.4-S021*
G04 Origin Date:  Fri Mar 15 10:31:20 2024*
G04 *
G04 Layer:  REF DES/SILKSCREEN_BOTTOM*
G04 Layer:  PACKAGE GEOMETRY/SILKSCREEN_BOTTOM*
G04 Layer:  DRAWING FORMAT/FILM_TITLE_BLOCK*
G04 Layer:  BOARD GEOMETRY/SILKSCREEN_BOTTOM*
G04 Layer:  BOARD GEOMETRY/DESIGN_OUTLINE*
G04 Layer:  BOARD GEOMETRY/CUTOUT*
G04 *
G04 Offset:    (0.00 0.00)*
G04 Mirror:    No*
G04 Mode:      Positive*
G04 Rotation:  0*
G04 FullContactRelief:  No*
G04 UndefLineWidth:     8.00*
G04 ================== end FILE IDENTIFICATION RECORD ====================*
%FSLAX55Y55*MOIN*%
%IR0*IPPOS*OFA0.00000B0.00000*MIA0B0*SFA1.00000B1.00000*%
%ADD10C,.01*%
%ADD11C,.02*%
%ADD12C,.008*%
%ADD13C,.006*%
%ADD14C,.007*%
G75*
%LPD*%
G75*
G54D10*
G01X124500Y16000D02*
X24500D01*
Y41000D01*
X124500D01*
Y16000D01*
G01X137000Y85000D02*
X37000D01*
Y110000D01*
X137000D01*
Y85000D01*
G01X293000Y85200D02*
X193000D01*
Y110200D01*
X293000D01*
Y85200D01*
G01X287900Y174500D02*
X306900Y186700D01*
G01X313000Y174500D02*
X288200D01*
X300500Y199400D01*
X313100Y174500D01*
G01X335400Y-127600D02*
X735400D01*
G01X335400Y-97600D02*
Y-77600D01*
X735400D01*
G01X385400Y-147600D02*
Y-127600D01*
G01X510900Y-147600D02*
Y-127600D01*
G01X510400Y-77600D02*
Y-47600D01*
G01X560400Y-147600D02*
Y-127600D01*
G54D11*
G01X735400Y-47600D02*
Y-147600D01*
X335400D01*
G01D02*
Y-47600D01*
X735400D01*
G54D12*
G01X-626Y-10500D02*
X343626D01*
G03X351500Y-2626I0J7874D01*
G01Y196626D01*
G03X343626Y204500I-7874J0D01*
G01X-626D01*
G03X-8500Y196626I0J-7874D01*
G01Y-2626D01*
G03X-626Y-10500I7874J0D01*
G01X130807Y94500D02*
X130650Y95865D01*
X130415Y97020D01*
X130102Y98070D01*
X129710Y99225D01*
X129083Y100800D01*
X132217D01*
G01X124350D02*
X124977Y100590D01*
X125447Y100065D01*
X125760Y99435D01*
X125995Y98595D01*
X126073Y97650D01*
X125995Y96705D01*
X125760Y95865D01*
X125447Y95235D01*
X124977Y94710D01*
X124350Y94500D01*
X123723Y94710D01*
X123253Y95235D01*
X122940Y95865D01*
X122705Y96705D01*
X122627Y97650D01*
X122705Y98595D01*
X122940Y99435D01*
X123253Y100065D01*
X123723Y100590D01*
X124350Y100800D01*
G01X118050D02*
X118677Y100590D01*
X119147Y100065D01*
X119460Y99435D01*
X119695Y98595D01*
X119773Y97650D01*
X119695Y96705D01*
X119460Y95865D01*
X119147Y95235D01*
X118677Y94710D01*
X118050Y94500D01*
X117423Y94710D01*
X116953Y95235D01*
X116640Y95865D01*
X116405Y96705D01*
X116327Y97650D01*
X116405Y98595D01*
X116640Y99435D01*
X116953Y100065D01*
X117423Y100590D01*
X118050Y100800D01*
G01X112768Y96600D02*
X110732D01*
G01X107095Y94500D02*
X103805Y100800D01*
G01X107095D02*
X103805Y94500D01*
G01X100795D02*
X97505Y100800D01*
G01X100795D02*
X97505Y94500D01*
G01X94495D02*
X91205Y100800D01*
G01X94495D02*
X91205Y94500D01*
G01X88195D02*
X84905Y100800D01*
G01X88195D02*
X84905Y94500D01*
G01X81895D02*
X78605Y100800D01*
G01X81895D02*
X78605Y94500D01*
G01X69217D02*
Y100800D01*
X67258D01*
X66632Y100485D01*
X66240Y100065D01*
X66083Y99225D01*
X66240Y98385D01*
X66710Y97860D01*
X67258Y97545D01*
X69217D01*
G01X67258D02*
X66083Y94500D01*
G01X59783D02*
X62917D01*
Y100800D01*
X59783D01*
G01X61037Y97755D02*
X62917D01*
G01X57008Y100800D02*
X55050Y94500D01*
X53092Y100800D01*
G01X44095Y94500D02*
X40805Y100800D01*
G01X44095D02*
X40805Y94500D01*
G01X123295Y43840D02*
X122668Y43315D01*
X121963Y43000D01*
X121337D01*
X120710Y43315D01*
X120240Y43840D01*
X120005Y44575D01*
X120162Y45310D01*
X120553Y45940D01*
X121258Y46360D01*
X122198Y46570D01*
X122747Y46990D01*
X122982Y47725D01*
X122825Y48460D01*
X122433Y48985D01*
X121885Y49300D01*
X121337D01*
X120788Y49090D01*
X120318Y48565D01*
G01X116760Y42790D02*
X113940Y49300D01*
G01X110852Y43000D02*
Y49300D01*
X107248Y43000D01*
Y49300D01*
G01X289795Y96040D02*
X289168Y95515D01*
X288463Y95200D01*
X287837D01*
X287210Y95515D01*
X286740Y96040D01*
X286505Y96775D01*
X286662Y97510D01*
X287053Y98140D01*
X287758Y98560D01*
X288698Y98770D01*
X289247Y99190D01*
X289482Y99925D01*
X289325Y100660D01*
X288933Y101185D01*
X288385Y101500D01*
X287837D01*
X287288Y101290D01*
X286818Y100765D01*
G01X280127Y100975D02*
X280597Y101290D01*
X281145Y101500D01*
X281772D01*
X282477Y101185D01*
X283025Y100660D01*
X283417Y100030D01*
X283730Y98980D01*
X283808Y98035D01*
X283652Y97090D01*
X283417Y96460D01*
X282947Y95830D01*
X282398Y95410D01*
X281850Y95200D01*
X281302D01*
X280753Y95410D01*
X280283Y95725D01*
X279892Y96145D01*
G01X277195Y95200D02*
Y101500D01*
G01X273905D02*
Y95200D01*
G01Y98350D02*
X277195D01*
G01X270268Y97300D02*
X268232D01*
G01X264595Y95200D02*
X261305Y101500D01*
G01X264595D02*
X261305Y95200D01*
G01X258295D02*
X255005Y101500D01*
G01X258295D02*
X255005Y95200D01*
G01X251995D02*
X248705Y101500D01*
G01X251995D02*
X248705Y95200D01*
G01X245695D02*
X242405Y101500D01*
G01X245695D02*
X242405Y95200D01*
G01X239395D02*
X236105Y101500D01*
G01X239395D02*
X236105Y95200D01*
G01X226717D02*
Y101500D01*
X224758D01*
X224132Y101185D01*
X223740Y100765D01*
X223583Y99925D01*
X223740Y99085D01*
X224210Y98560D01*
X224758Y98245D01*
X226717D01*
G01X224758D02*
X223583Y95200D01*
G01X217283D02*
X220417D01*
Y101500D01*
X217283D01*
G01X218537Y98455D02*
X220417D01*
G01X214508Y101500D02*
X212550Y95200D01*
X210592Y101500D01*
G01X201595Y95200D02*
X198305Y101500D01*
G01X201595D02*
X198305Y95200D01*
G01X293300Y183800D02*
G02X295700Y182700I0J-3168D01*
G03X296400Y182100I2331J2011D01*
G01X300000Y180900D01*
G02X302500Y178500I0J-2502D01*
G03X303400Y178200I572J217D01*
G01X303500Y178400D01*
G03X303400Y180100I-1530J763D01*
G03X302700Y181100I-17462J-11479D01*
G03X300700Y182300I-2459J-1832D01*
G01X294600Y187000D02*
G02X295300Y186900I0J-2500D01*
G03X295900Y186800I720J2469D01*
G03X297400I750J16061D01*
G03X299900Y187200I-529J11319D01*
G02X303800Y186400I1168J-4210D01*
G02X304300Y185700I-987J-1234D01*
G03X305000Y184900I1358J482D01*
G01X305500Y184500D01*
X306100Y184000D01*
G02X306700Y182900I-1090J-1308D01*
G01Y182800D01*
X306600Y182400D01*
X306500Y181800D01*
X306400Y181000D01*
Y179700D01*
G02X305700Y178000I-2414J0D01*
G02X304900Y178600I-350J367D01*
G01X305200Y179200D01*
X305000Y180600D01*
G02X305100Y181400I1511J217D01*
G03X305400Y182200I-13600J5556D01*
G01X304800Y182300D01*
G02X304300Y182500I207J1242D01*
G02X302800Y183600I15546J22772D01*
G54D13*
G01X1301Y22500D02*
Y25500D01*
X1Y23000D01*
X-1299Y25500D01*
Y22500D01*
G01X-1950D02*
Y25500D01*
G01X-4050D02*
Y22500D01*
G01Y24000D02*
X-1950D01*
G01X-4901Y23100D02*
X-5201Y22750D01*
X-5601Y22550D01*
X-6051Y22500D01*
X-6451Y22550D01*
X-6851Y22800D01*
X-7101Y23100D01*
X-7151Y23400D01*
X-7051Y23750D01*
X-6701Y24000D01*
X-6351Y24100D01*
X-5901D01*
G01X-6351D02*
X-6651Y24250D01*
X-6901Y24500D01*
X-7001Y24800D01*
X-6901Y25100D01*
X-6651Y25350D01*
X-6201Y25500D01*
X-5751Y25450D01*
X-5301Y25250D01*
G01X3100Y34000D02*
X2800Y34250D01*
X2600Y34550D01*
X2500Y34900D01*
X2600Y35300D01*
X2800Y35600D01*
X3100Y35900D01*
X3500Y36000D01*
X5500D01*
G01X2500Y38001D02*
X5500D01*
X4900Y37401D01*
G01X2500D02*
Y38601D01*
G01X5500Y41002D02*
X5400Y40602D01*
X5150Y40302D01*
X4850Y40102D01*
X4450Y39952D01*
X4000Y39902D01*
X3550Y39952D01*
X3150Y40102D01*
X2850Y40302D01*
X2600Y40602D01*
X2500Y41002D01*
X2600Y41402D01*
X2850Y41702D01*
X3150Y41902D01*
X3550Y42052D01*
X4000Y42102D01*
X4450Y42052D01*
X4850Y41902D01*
X5150Y41702D01*
X5400Y41402D01*
X5500Y41002D01*
G01X4350Y27650D02*
X4100Y28000D01*
X4000Y28400D01*
X4100Y28800D01*
X4400Y29150D01*
X4850Y29400D01*
X5300Y29500D01*
X5850D01*
X6300Y29400D01*
X6700Y29150D01*
X6900Y28850D01*
X7000Y28500D01*
X6900Y28100D01*
X6700Y27800D01*
X6400Y27600D01*
X6000Y27500D01*
X5650Y27600D01*
X5300Y27850D01*
X5100Y28150D01*
X5050Y28500D01*
X5150Y28900D01*
X5400Y29200D01*
X5850Y29500D01*
G01X3500Y48500D02*
X6500D01*
X5900Y47900D01*
G01X3500D02*
Y49100D01*
G01X12101Y64100D02*
X11901Y64250D01*
X11751Y64500D01*
X11651Y64850D01*
X11751Y65150D01*
X11951Y65350D01*
X12301Y65500D01*
X13651D01*
Y62500D01*
X12001D01*
X11651Y62700D01*
X11451Y63000D01*
X11351Y63350D01*
X11451Y63700D01*
X11751Y64000D01*
X12101Y64100D01*
X13651D01*
G01X9500Y62500D02*
Y65500D01*
X10100Y64900D01*
G01Y62500D02*
X8900D01*
G01X14101Y109100D02*
X13901Y109250D01*
X13751Y109500D01*
X13651Y109850D01*
X13751Y110150D01*
X13951Y110350D01*
X14301Y110500D01*
X15651D01*
Y107500D01*
X14001D01*
X13651Y107700D01*
X13451Y108000D01*
X13351Y108350D01*
X13451Y108700D01*
X13751Y109000D01*
X14101Y109100D01*
X15651D01*
G01X11500Y107500D02*
Y110500D01*
X12100Y109900D01*
G01Y107500D02*
X10900D01*
G01X9449Y110000D02*
X9149Y110300D01*
X8799Y110450D01*
X8399Y110500D01*
X7899Y110400D01*
X7549Y110150D01*
X7449Y109850D01*
X7499Y109550D01*
X7699Y109300D01*
X8699Y108800D01*
X9149Y108450D01*
X9449Y107950D01*
X9549Y107500D01*
X7449D01*
G01X14101Y123600D02*
X13901Y123750D01*
X13751Y124000D01*
X13651Y124350D01*
X13751Y124650D01*
X13951Y124850D01*
X14301Y125000D01*
X15651D01*
Y122000D01*
X14001D01*
X13651Y122200D01*
X13451Y122500D01*
X13351Y122850D01*
X13451Y123200D01*
X13751Y123500D01*
X14101Y123600D01*
X15651D01*
G01X11500Y122000D02*
Y125000D01*
X12100Y124400D01*
G01Y122000D02*
X10900D01*
G01X14101Y168100D02*
X13901Y168250D01*
X13751Y168500D01*
X13651Y168850D01*
X13751Y169150D01*
X13951Y169350D01*
X14301Y169500D01*
X15651D01*
Y166500D01*
X14001D01*
X13651Y166700D01*
X13451Y167000D01*
X13351Y167350D01*
X13451Y167700D01*
X13751Y168000D01*
X14101Y168100D01*
X15651D01*
G01X11500Y166500D02*
Y169500D01*
X12100Y168900D01*
G01Y166500D02*
X10900D01*
G01X9449Y169000D02*
X9149Y169300D01*
X8799Y169450D01*
X8399Y169500D01*
X7899Y169400D01*
X7549Y169150D01*
X7449Y168850D01*
X7499Y168550D01*
X7699Y168300D01*
X8699Y167800D01*
X9149Y167450D01*
X9449Y166950D01*
X9549Y166500D01*
X7449D01*
G01X19000Y26500D02*
X22000D01*
X21400Y25900D01*
G01X19000D02*
Y27100D01*
G01X22000Y29501D02*
X21900Y29101D01*
X21650Y28801D01*
X21350Y28601D01*
X20950Y28451D01*
X20500Y28401D01*
X20050Y28451D01*
X19650Y28601D01*
X19350Y28801D01*
X19100Y29101D01*
X19000Y29501D01*
X19100Y29901D01*
X19350Y30201D01*
X19650Y30401D01*
X20050Y30551D01*
X20500Y30601D01*
X20950Y30551D01*
X21350Y30401D01*
X21650Y30201D01*
X21900Y29901D01*
X22000Y29501D01*
G01X21500Y47550D02*
X21800Y47850D01*
X21950Y48200D01*
X22000Y48600D01*
X21900Y49100D01*
X21650Y49450D01*
X21350Y49550D01*
X21050Y49500D01*
X20800Y49300D01*
X20300Y48300D01*
X19950Y47850D01*
X19450Y47550D01*
X19000Y47450D01*
Y49550D01*
G01X20600Y82499D02*
X20300Y82749D01*
X20100Y83049D01*
X20000Y83399D01*
X20100Y83799D01*
X20300Y84099D01*
X20600Y84399D01*
X21000Y84499D01*
X23000D01*
G01X20000Y86500D02*
X23000D01*
X22400Y85900D01*
G01X20000D02*
Y87100D01*
G01X22500Y88551D02*
X22800Y88851D01*
X22950Y89201D01*
X23000Y89601D01*
X22900Y90101D01*
X22650Y90451D01*
X22350Y90551D01*
X22050Y90501D01*
X21800Y90301D01*
X21300Y89301D01*
X20950Y88851D01*
X20450Y88551D01*
X20000Y88451D01*
Y90551D01*
G01X20600Y138499D02*
X20300Y138749D01*
X20100Y139049D01*
X20000Y139399D01*
X20100Y139799D01*
X20300Y140099D01*
X20600Y140399D01*
X21000Y140499D01*
X23000D01*
G01X20000Y142500D02*
X23000D01*
X22400Y141900D01*
G01X20000D02*
Y143100D01*
G01X20600Y144401D02*
X20250Y144701D01*
X20050Y145101D01*
X20000Y145551D01*
X20050Y145951D01*
X20300Y146351D01*
X20600Y146601D01*
X20900Y146651D01*
X21250Y146551D01*
X21500Y146201D01*
X21600Y145851D01*
Y145401D01*
G01Y145851D02*
X21750Y146151D01*
X22000Y146401D01*
X22300Y146501D01*
X22600Y146401D01*
X22850Y146151D01*
X23000Y145701D01*
X22950Y145251D01*
X22750Y144801D01*
G01X30801Y197500D02*
Y200500D01*
X29501Y198000D01*
X28201Y200500D01*
Y197500D01*
G01X27550D02*
Y200500D01*
G01X25450D02*
Y197500D01*
G01Y199000D02*
X27550D01*
G01X23499Y197500D02*
Y200500D01*
X24099Y199900D01*
G01Y197500D02*
X22899D01*
G01X35195Y-1000D02*
G03I-3195J0D01*
G01X40002Y126000D02*
Y129000D01*
X38802D01*
X38402Y128850D01*
X38102Y128500D01*
X38002Y128100D01*
X38102Y127700D01*
X38352Y127400D01*
X38802Y127250D01*
X40002D01*
G01X37101Y126450D02*
X36801Y126200D01*
X36451Y126050D01*
X36001Y126000D01*
X35551Y126100D01*
X35201Y126300D01*
X34951Y126650D01*
X34901Y127050D01*
X35001Y127450D01*
X35251Y127700D01*
X35601Y127900D01*
X35951Y127950D01*
X36301Y127900D01*
X36751Y127700D01*
X36601Y129000D01*
X35251D01*
G01X34250D02*
X33000Y126000D01*
X31750Y129000D01*
G01X29999D02*
X30399Y128900D01*
X30699Y128650D01*
X30899Y128350D01*
X31049Y127950D01*
X31099Y127500D01*
X31049Y127050D01*
X30899Y126650D01*
X30699Y126350D01*
X30399Y126100D01*
X29999Y126000D01*
X29599Y126100D01*
X29299Y126350D01*
X29099Y126650D01*
X28949Y127050D01*
X28899Y127500D01*
X28949Y127950D01*
X29099Y128350D01*
X29299Y128650D01*
X29599Y128900D01*
X29999Y129000D01*
G01X38195Y117000D02*
G03I-3195J0D01*
G01X37840Y124360D02*
Y121360D01*
G01X38990Y124360D02*
X36690D01*
G01X35839Y121360D02*
Y124360D01*
X34639D01*
X34239Y124210D01*
X33939Y123860D01*
X33839Y123460D01*
X33939Y123060D01*
X34189Y122760D01*
X34639Y122610D01*
X35839D01*
G01X32688Y121710D02*
X32338Y121460D01*
X31938Y121360D01*
X31538Y121460D01*
X31188Y121760D01*
X30938Y122210D01*
X30838Y122660D01*
Y123210D01*
X30938Y123660D01*
X31188Y124060D01*
X31488Y124260D01*
X31838Y124360D01*
X32238Y124260D01*
X32538Y124060D01*
X32738Y123760D01*
X32838Y123360D01*
X32738Y123010D01*
X32488Y122660D01*
X32188Y122460D01*
X31838Y122410D01*
X31438Y122510D01*
X31138Y122760D01*
X30838Y123210D01*
G01X43840Y360D02*
Y-2640D01*
G01X44990Y360D02*
X42690D01*
G01X41839Y-2640D02*
Y360D01*
X40639D01*
X40239Y210D01*
X39939Y-140D01*
X39839Y-540D01*
X39939Y-940D01*
X40189Y-1240D01*
X40639Y-1390D01*
X41839D01*
G01X38938Y-2190D02*
X38638Y-2440D01*
X38288Y-2590D01*
X37838Y-2640D01*
X37388Y-2540D01*
X37038Y-2340D01*
X36788Y-1990D01*
X36738Y-1590D01*
X36838Y-1190D01*
X37088Y-940D01*
X37438Y-740D01*
X37788Y-690D01*
X38138Y-740D01*
X38588Y-940D01*
X38438Y360D01*
X37088D01*
G01X43201Y4000D02*
X42201D01*
Y3100D01*
X42501Y2800D01*
X42851Y2600D01*
X43351Y2500D01*
X43851Y2600D01*
X44201Y2800D01*
X44501Y3100D01*
X44701Y3450D01*
X44801Y3850D01*
Y4200D01*
X44701Y4500D01*
X44501Y4850D01*
X44201Y5150D01*
X43901Y5350D01*
X43501Y5500D01*
X43151D01*
X42751Y5400D01*
X42451Y5200D01*
G01X41650Y2500D02*
Y5500D01*
X39350Y2500D01*
Y5500D01*
G01X38599Y2500D02*
Y5500D01*
X37599D01*
X37199Y5350D01*
X36899Y5150D01*
X36649Y4850D01*
X36449Y4500D01*
X36399Y4000D01*
X36449Y3500D01*
X36649Y3150D01*
X36899Y2850D01*
X37199Y2650D01*
X37599Y2500D01*
X38599D01*
G01X44195Y50000D02*
G03I-3195J0D01*
G01X45001Y58000D02*
Y55000D01*
G01X46151Y58000D02*
X43851D01*
G01X43000Y55000D02*
Y58000D01*
X41800D01*
X41400Y57850D01*
X41100Y57500D01*
X41000Y57100D01*
X41100Y56700D01*
X41350Y56400D01*
X41800Y56250D01*
X43000D01*
G01X38999Y55000D02*
Y58000D01*
X39599Y57400D01*
G01Y55000D02*
X38399D01*
G01X35998D02*
Y58000D01*
X36598Y57400D01*
G01Y55000D02*
X35398D01*
G01X46002Y60000D02*
Y63000D01*
X44802D01*
X44402Y62850D01*
X44102Y62500D01*
X44002Y62100D01*
X44102Y61700D01*
X44352Y61400D01*
X44802Y61250D01*
X46002D01*
G01X43101Y60450D02*
X42801Y60200D01*
X42451Y60050D01*
X42001Y60000D01*
X41551Y60100D01*
X41201Y60300D01*
X40951Y60650D01*
X40901Y61050D01*
X41001Y61450D01*
X41251Y61700D01*
X41601Y61900D01*
X41951Y61950D01*
X42301Y61900D01*
X42751Y61700D01*
X42601Y63000D01*
X41251D01*
G01X40250D02*
X39000Y60000D01*
X37750Y63000D01*
G01X35999D02*
X36399Y62900D01*
X36699Y62650D01*
X36899Y62350D01*
X37049Y61950D01*
X37099Y61500D01*
X37049Y61050D01*
X36899Y60650D01*
X36699Y60350D01*
X36399Y60100D01*
X35999Y60000D01*
X35599Y60100D01*
X35299Y60350D01*
X35099Y60650D01*
X34949Y61050D01*
X34899Y61500D01*
X34949Y61950D01*
X35099Y62350D01*
X35299Y62650D01*
X35599Y62900D01*
X35999Y63000D01*
G01X58100Y42974D02*
X57800Y42624D01*
X57400Y42424D01*
X56950Y42374D01*
X56550Y42424D01*
X56150Y42674D01*
X55900Y42974D01*
X55850Y43274D01*
X55950Y43624D01*
X56300Y43874D01*
X56650Y43974D01*
X57100D01*
G01X56650D02*
X56350Y44124D01*
X56100Y44374D01*
X56000Y44674D01*
X56100Y44974D01*
X56350Y45224D01*
X56800Y45374D01*
X57250Y45324D01*
X57700Y45124D01*
G01X61501Y167600D02*
X61251Y167300D01*
X60951Y167100D01*
X60601Y167000D01*
X60201Y167100D01*
X59901Y167300D01*
X59601Y167600D01*
X59501Y168000D01*
Y170000D01*
G01X58500Y167000D02*
Y170000D01*
X57300D01*
X56900Y169850D01*
X56600Y169500D01*
X56500Y169100D01*
X56600Y168700D01*
X56850Y168400D01*
X57300Y168250D01*
X58500D01*
G01X53899Y167000D02*
Y170000D01*
X55749Y167850D01*
X53249D01*
G01X61201Y177500D02*
X60201D01*
Y176600D01*
X60501Y176300D01*
X60851Y176100D01*
X61351Y176000D01*
X61851Y176100D01*
X62201Y176300D01*
X62501Y176600D01*
X62701Y176950D01*
X62801Y177350D01*
Y177700D01*
X62701Y178000D01*
X62501Y178350D01*
X62201Y178650D01*
X61901Y178850D01*
X61501Y179000D01*
X61151D01*
X60751Y178900D01*
X60451Y178700D01*
G01X59650Y176000D02*
Y179000D01*
X57350Y176000D01*
Y179000D01*
G01X56599Y176000D02*
Y179000D01*
X55599D01*
X55199Y178850D01*
X54899Y178650D01*
X54649Y178350D01*
X54449Y178000D01*
X54399Y177500D01*
X54449Y177000D01*
X54649Y176650D01*
X54899Y176350D01*
X55199Y176150D01*
X55599Y176000D01*
X56599D01*
G01X61500Y184000D02*
Y181000D01*
G01X62650Y184000D02*
X60350D01*
G01X59499Y181000D02*
Y184000D01*
X58299D01*
X57899Y183850D01*
X57599Y183500D01*
X57499Y183100D01*
X57599Y182700D01*
X57849Y182400D01*
X58299Y182250D01*
X59499D01*
G01X56448D02*
X56098Y182600D01*
X55798Y182800D01*
X55398Y182900D01*
X55048Y182800D01*
X54798Y182600D01*
X54598Y182300D01*
X54548Y181950D01*
X54598Y181650D01*
X54798Y181350D01*
X55098Y181100D01*
X55448Y181000D01*
X55848Y181100D01*
X56198Y181400D01*
X56398Y181850D01*
X56448Y182350D01*
X56348Y183000D01*
X56198Y183350D01*
X55948Y183700D01*
X55598Y183950D01*
X55248Y184000D01*
X54898Y183900D01*
X54648Y183650D01*
G01X71501Y55600D02*
X71251Y55300D01*
X70951Y55100D01*
X70601Y55000D01*
X70201Y55100D01*
X69901Y55300D01*
X69601Y55600D01*
X69501Y56000D01*
Y58000D01*
G01X67500Y55000D02*
Y58000D01*
X68100Y57400D01*
G01Y55000D02*
X66900D01*
G01X64499D02*
Y58000D01*
X65099Y57400D01*
G01Y55000D02*
X63899D01*
G01X63500Y159500D02*
Y162500D01*
X64100Y161900D01*
G01Y159500D02*
X62900D01*
G01X70695Y182500D02*
G03I-3195J0D01*
G01X75501Y167600D02*
X75251Y167300D01*
X74951Y167100D01*
X74601Y167000D01*
X74201Y167100D01*
X73901Y167300D01*
X73601Y167600D01*
X73501Y168000D01*
Y170000D01*
G01X72500Y167000D02*
Y170000D01*
X71300D01*
X70900Y169850D01*
X70600Y169500D01*
X70500Y169100D01*
X70600Y168700D01*
X70850Y168400D01*
X71300Y168250D01*
X72500D01*
G01X69449Y169500D02*
X69149Y169800D01*
X68799Y169950D01*
X68399Y170000D01*
X67899Y169900D01*
X67549Y169650D01*
X67449Y169350D01*
X67499Y169050D01*
X67699Y168800D01*
X68699Y168300D01*
X69149Y167950D01*
X69449Y167450D01*
X69549Y167000D01*
X67449D01*
G01X77500Y42374D02*
Y45374D01*
X78100Y44774D01*
G01Y42374D02*
X76900D01*
G01X78626Y159000D02*
Y162000D01*
X79226Y161400D01*
G01Y159000D02*
X78026D01*
G01X111504Y-500D02*
Y2500D01*
X110304D01*
X109904Y2350D01*
X109604Y2000D01*
X109504Y1600D01*
X109604Y1200D01*
X109854Y900D01*
X110304Y750D01*
X111504D01*
G01X108603Y100D02*
X108303Y-250D01*
X107903Y-450D01*
X107453Y-500D01*
X107053Y-450D01*
X106653Y-200D01*
X106403Y100D01*
X106353Y400D01*
X106453Y750D01*
X106803Y1000D01*
X107153Y1100D01*
X107603D01*
G01X107153D02*
X106853Y1250D01*
X106603Y1500D01*
X106503Y1800D01*
X106603Y2100D01*
X106853Y2350D01*
X107303Y2500D01*
X107753Y2450D01*
X108203Y2250D01*
G01X105752Y2500D02*
X104502Y-500D01*
X103252Y2500D01*
G01X102601Y100D02*
X102301Y-250D01*
X101901Y-450D01*
X101451Y-500D01*
X101051Y-450D01*
X100651Y-200D01*
X100401Y100D01*
X100351Y400D01*
X100451Y750D01*
X100801Y1000D01*
X101151Y1100D01*
X101601D01*
G01X101151D02*
X100851Y1250D01*
X100601Y1500D01*
X100501Y1800D01*
X100601Y2100D01*
X100851Y2350D01*
X101301Y2500D01*
X101751Y2450D01*
X102201Y2250D01*
G01X100000Y-1500D02*
X97000D01*
G01X96799Y-500D02*
Y2500D01*
X95499Y0D01*
X94199Y2500D01*
Y-500D01*
G01X91398Y2250D02*
X91698Y2400D01*
X92048Y2500D01*
X92448D01*
X92898Y2350D01*
X93248Y2100D01*
X93498Y1800D01*
X93698Y1300D01*
X93748Y850D01*
X93648Y400D01*
X93498Y100D01*
X93198Y-200D01*
X92848Y-400D01*
X92498Y-500D01*
X92148D01*
X91798Y-400D01*
X91498Y-250D01*
X91248Y-50D01*
G01X90597Y2500D02*
Y350D01*
X90397Y-100D01*
X89997Y-400D01*
X89497Y-500D01*
X88997Y-400D01*
X88597Y-100D01*
X88397Y350D01*
Y2500D01*
G01X100646Y154354D02*
X102768Y156475D01*
X101919Y157323D01*
X101530Y157500D01*
X101071Y157465D01*
X100717Y157253D01*
X100505Y156899D01*
X100470Y156510D01*
X100682Y156086D01*
X101530Y155237D01*
G01X99939Y159304D02*
X97817Y157183D01*
G01X100752Y158491D02*
X99125Y160117D01*
G01X96544Y160719D02*
X96509Y160966D01*
X96579Y161249D01*
X96756Y161567D01*
X97039Y161709D01*
X97322D01*
X97675Y161567D01*
X98630Y160613D01*
X96509Y158491D01*
X95342Y159658D01*
X95236Y160047D01*
X95306Y160401D01*
X95483Y160719D01*
X95801Y160896D01*
X96226D01*
X96544Y160719D01*
X97640Y159623D01*
G01X93573Y161427D02*
X95695Y163548D01*
Y162699D01*
G01X93998Y161002D02*
X93149Y161851D01*
G01X93007Y163761D02*
Y164256D01*
X92936Y164609D01*
X92724Y164963D01*
X92406Y165140D01*
X92088Y165175D01*
X91734Y165104D01*
X91451Y164892D01*
X91275Y164645D01*
X91204Y164291D01*
X91239Y163902D01*
X91416Y163584D01*
X91770Y163372D01*
X92229Y163336D01*
X92689Y163513D01*
X93078Y163831D01*
X93467Y164362D01*
X93608Y164715D01*
X93679Y165140D01*
X93608Y165564D01*
X93396Y165847D01*
X93078Y166024D01*
X92724D01*
G01X94501Y180500D02*
Y183500D01*
X95101Y182900D01*
G01Y180500D02*
X93901D01*
G01X92350Y180850D02*
X92000Y180600D01*
X91600Y180500D01*
X91200Y180600D01*
X90850Y180900D01*
X90600Y181350D01*
X90500Y181800D01*
Y182350D01*
X90600Y182800D01*
X90850Y183200D01*
X91150Y183400D01*
X91500Y183500D01*
X91900Y183400D01*
X92200Y183200D01*
X92400Y182900D01*
X92500Y182500D01*
X92400Y182150D01*
X92150Y181800D01*
X91850Y181600D01*
X91500Y181550D01*
X91100Y181650D01*
X90800Y181900D01*
X90500Y182350D01*
G01X94951Y192500D02*
X94651Y192800D01*
X94301Y192950D01*
X93901Y193000D01*
X93401Y192900D01*
X93051Y192650D01*
X92951Y192350D01*
X93001Y192050D01*
X93201Y191800D01*
X94201Y191300D01*
X94651Y190950D01*
X94951Y190450D01*
X95051Y190000D01*
X92951D01*
G01X91000Y193000D02*
X91400Y192900D01*
X91700Y192650D01*
X91900Y192350D01*
X92050Y191950D01*
X92100Y191500D01*
X92050Y191050D01*
X91900Y190650D01*
X91700Y190350D01*
X91400Y190100D01*
X91000Y190000D01*
X90600Y190100D01*
X90300Y190350D01*
X90100Y190650D01*
X89950Y191050D01*
X89900Y191500D01*
X89950Y191950D01*
X90100Y192350D01*
X90300Y192650D01*
X90600Y192900D01*
X91000Y193000D01*
G01X100646Y167354D02*
X102768Y169475D01*
X101919Y170323D01*
X101530Y170500D01*
X101071Y170465D01*
X100717Y170253D01*
X100505Y169899D01*
X100470Y169510D01*
X100682Y169086D01*
X101530Y168237D01*
G01X99939Y172304D02*
X97817Y170183D01*
G01X100752Y171491D02*
X99125Y173117D01*
G01X94988Y173012D02*
X96402Y171598D01*
X98524Y173719D01*
X97110Y175133D01*
G01X96650Y173542D02*
X97498Y172694D01*
G01X93573Y174427D02*
X95695Y176548D01*
Y175699D01*
G01X93998Y174002D02*
X93149Y174851D01*
G01X103501Y8500D02*
Y5500D01*
G01X104651Y8500D02*
X102351D01*
G01X101500Y5500D02*
Y8500D01*
X100300D01*
X99900Y8350D01*
X99600Y8000D01*
X99500Y7600D01*
X99600Y7200D01*
X99850Y6900D01*
X100300Y6750D01*
X101500D01*
G01X98599Y6100D02*
X98299Y5750D01*
X97899Y5550D01*
X97449Y5500D01*
X97049Y5550D01*
X96649Y5800D01*
X96399Y6100D01*
X96349Y6400D01*
X96449Y6750D01*
X96799Y7000D01*
X97149Y7100D01*
X97599D01*
G01X97149D02*
X96849Y7250D01*
X96599Y7500D01*
X96499Y7800D01*
X96599Y8100D01*
X96849Y8350D01*
X97299Y8500D01*
X97749Y8450D01*
X98199Y8250D01*
G01X101000Y53000D02*
Y56000D01*
X101600Y55400D01*
G01Y53000D02*
X100400D01*
G01X105001Y78600D02*
X104751Y78300D01*
X104451Y78100D01*
X104101Y78000D01*
X103701Y78100D01*
X103401Y78300D01*
X103101Y78600D01*
X103001Y79000D01*
Y81000D01*
G01X102000Y78000D02*
Y81000D01*
X100800D01*
X100400Y80850D01*
X100100Y80500D01*
X100000Y80100D01*
X100100Y79700D01*
X100350Y79400D01*
X100800Y79250D01*
X102000D01*
G01X99099Y78450D02*
X98799Y78200D01*
X98449Y78050D01*
X97999Y78000D01*
X97549Y78100D01*
X97199Y78300D01*
X96949Y78650D01*
X96899Y79050D01*
X96999Y79450D01*
X97249Y79700D01*
X97599Y79900D01*
X97949Y79950D01*
X98299Y79900D01*
X98749Y79700D01*
X98599Y81000D01*
X97249D01*
G01X112646Y153854D02*
X114768Y155975D01*
X113919Y156823D01*
X113530Y157000D01*
X113071Y156965D01*
X112717Y156753D01*
X112505Y156399D01*
X112470Y156010D01*
X112682Y155586D01*
X113530Y154737D01*
G01X111939Y158804D02*
X109817Y156683D01*
G01X112752Y157991D02*
X111125Y159617D01*
G01X108544Y160219D02*
X108509Y160466D01*
X108579Y160749D01*
X108756Y161067D01*
X109039Y161209D01*
X109322D01*
X109675Y161067D01*
X110630Y160113D01*
X108509Y157991D01*
X107342Y159158D01*
X107236Y159547D01*
X107306Y159901D01*
X107483Y160219D01*
X107801Y160396D01*
X108226D01*
X108544Y160219D01*
X109640Y159123D01*
G01X105573Y160927D02*
X107695Y163048D01*
Y162199D01*
G01X105998Y160502D02*
X105149Y161351D01*
G01X103522Y162978D02*
X103911Y163508D01*
X104194Y164003D01*
X104406Y164498D01*
X104618Y165064D01*
X104866Y165877D01*
X106280Y164463D01*
G01X112146Y166854D02*
X114268Y168975D01*
X113419Y169823D01*
X113030Y170000D01*
X112571Y169965D01*
X112217Y169753D01*
X112005Y169399D01*
X111970Y169010D01*
X112182Y168586D01*
X113030Y167737D01*
G01X111439Y171804D02*
X109317Y169683D01*
G01X112252Y170991D02*
X110625Y172617D01*
G01X106488Y172512D02*
X107902Y171098D01*
X110024Y173219D01*
X108610Y174633D01*
G01X108150Y173042D02*
X108998Y172194D01*
G01X107195Y176048D02*
X107407Y175694D01*
X107442Y175306D01*
X107371Y174952D01*
X107195Y174563D01*
X106912Y174209D01*
X106558Y173927D01*
X106169Y173750D01*
X105816Y173679D01*
X105427Y173714D01*
X105073Y173927D01*
X104861Y174280D01*
X104826Y174669D01*
X104897Y175023D01*
X105073Y175412D01*
X105356Y175765D01*
X105710Y176048D01*
X106099Y176225D01*
X106452Y176295D01*
X106841Y176260D01*
X107195Y176048D01*
G01X114195Y7500D02*
G03I-3195J0D01*
G01X114500Y53000D02*
Y56000D01*
X115100Y55400D01*
G01Y53000D02*
X113900D01*
G01X118501Y78600D02*
X118251Y78300D01*
X117951Y78100D01*
X117601Y78000D01*
X117201Y78100D01*
X116901Y78300D01*
X116601Y78600D01*
X116501Y79000D01*
Y81000D01*
G01X115500Y78000D02*
Y81000D01*
X114300D01*
X113900Y80850D01*
X113600Y80500D01*
X113500Y80100D01*
X113600Y79700D01*
X113850Y79400D01*
X114300Y79250D01*
X115500D01*
G01X112599Y78600D02*
X112299Y78250D01*
X111899Y78050D01*
X111449Y78000D01*
X111049Y78050D01*
X110649Y78300D01*
X110399Y78600D01*
X110349Y78900D01*
X110449Y79250D01*
X110799Y79500D01*
X111149Y79600D01*
X111599D01*
G01X111149D02*
X110849Y79750D01*
X110599Y80000D01*
X110499Y80300D01*
X110599Y80600D01*
X110849Y80850D01*
X111299Y81000D01*
X111749Y80950D01*
X112199Y80750D01*
G01X122323Y166677D02*
X123561Y169682D01*
X120555Y168445D01*
G01X121616Y168869D02*
X122747Y167737D01*
G01X120024Y168976D02*
X122146Y171097D01*
X121262Y171981D01*
X120873Y172157D01*
X120555Y172193D01*
X120201Y171981D01*
X119989Y171627D01*
X120024Y171238D01*
X120166Y170885D01*
X121050Y170001D01*
G01X120166Y170885D02*
X118610Y170390D01*
G01X116488Y172512D02*
X117902Y171098D01*
X120024Y173219D01*
X118610Y174633D01*
G01X118150Y173042D02*
X118998Y172194D01*
G01X115745Y173255D02*
X117866Y175376D01*
X116523Y176720D01*
G01X115993Y175199D02*
X116841Y174351D01*
G01X120253Y156747D02*
X122374Y158869D01*
X118626Y158374D01*
X120747Y160495D01*
G01X118484Y162405D02*
X118802Y162299D01*
X119120Y162122D01*
X119403Y161839D01*
X119615Y161415D01*
X119686Y160991D01*
X119651Y160602D01*
X119439Y160107D01*
X119156Y159753D01*
X118767Y159506D01*
X118449Y159400D01*
X118024D01*
X117636Y159506D01*
X117317Y159683D01*
X117070Y159930D01*
X116893Y160248D01*
X116787Y160567D01*
X116752Y160885D01*
G01X131253Y15747D02*
X133374Y17869D01*
X129626Y17374D01*
X131747Y19495D01*
G01X129484Y21405D02*
X129802Y21299D01*
X130120Y21122D01*
X130403Y20839D01*
X130615Y20415D01*
X130686Y19991D01*
X130651Y19602D01*
X130439Y19107D01*
X130156Y18753D01*
X129767Y18506D01*
X129449Y18400D01*
X129024D01*
X128636Y18506D01*
X128317Y18683D01*
X128070Y18930D01*
X127893Y19248D01*
X127787Y19567D01*
X127752Y19885D01*
G01X135502Y122500D02*
Y125500D01*
X134302D01*
X133902Y125350D01*
X133602Y125000D01*
X133502Y124600D01*
X133602Y124200D01*
X133852Y123900D01*
X134302Y123750D01*
X135502D01*
G01X132601Y123100D02*
X132301Y122750D01*
X131901Y122550D01*
X131451Y122500D01*
X131051Y122550D01*
X130651Y122800D01*
X130401Y123100D01*
X130351Y123400D01*
X130451Y123750D01*
X130801Y124000D01*
X131151Y124100D01*
X131601D01*
G01X131151D02*
X130851Y124250D01*
X130601Y124500D01*
X130501Y124800D01*
X130601Y125100D01*
X130851Y125350D01*
X131301Y125500D01*
X131751Y125450D01*
X132201Y125250D01*
G01X129750Y125500D02*
X128500Y122500D01*
X127250Y125500D01*
G01X126599Y123100D02*
X126299Y122750D01*
X125899Y122550D01*
X125449Y122500D01*
X125049Y122550D01*
X124649Y122800D01*
X124399Y123100D01*
X124349Y123400D01*
X124449Y123750D01*
X124799Y124000D01*
X125149Y124100D01*
X125599D01*
G01X125149D02*
X124849Y124250D01*
X124599Y124500D01*
X124499Y124800D01*
X124599Y125100D01*
X124849Y125350D01*
X125299Y125500D01*
X125749Y125450D01*
X126199Y125250D01*
G01X135000Y138500D02*
Y135500D01*
G01X136150Y138500D02*
X133850D01*
G01X132999Y135500D02*
Y138500D01*
X131799D01*
X131399Y138350D01*
X131099Y138000D01*
X130999Y137600D01*
X131099Y137200D01*
X131349Y136900D01*
X131799Y136750D01*
X132999D01*
G01X128998Y135500D02*
Y138500D01*
X129598Y137900D01*
G01Y135500D02*
X128398D01*
G01X125997Y138500D02*
X126397Y138400D01*
X126697Y138150D01*
X126897Y137850D01*
X127047Y137450D01*
X127097Y137000D01*
X127047Y136550D01*
X126897Y136150D01*
X126697Y135850D01*
X126397Y135600D01*
X125997Y135500D01*
X125597Y135600D01*
X125297Y135850D01*
X125097Y136150D01*
X124947Y136550D01*
X124897Y137000D01*
X124947Y137450D01*
X125097Y137850D01*
X125297Y138150D01*
X125597Y138400D01*
X125997Y138500D01*
G01X130753Y156747D02*
X132874Y158869D01*
X129126Y158374D01*
X131247Y160495D01*
G01X128984Y162405D02*
X129302Y162299D01*
X129620Y162122D01*
X129903Y161839D01*
X130115Y161415D01*
X130186Y160991D01*
X130151Y160602D01*
X129939Y160107D01*
X129656Y159753D01*
X129267Y159506D01*
X128949Y159400D01*
X128524D01*
X128136Y159506D01*
X127817Y159683D01*
X127570Y159930D01*
X127393Y160248D01*
X127287Y160567D01*
X127252Y160885D01*
G01X131788Y168333D02*
X131081Y169041D01*
X130444Y168404D01*
Y167980D01*
X130550Y167591D01*
X130833Y167167D01*
X131258Y166884D01*
X131646Y166778D01*
X132071D01*
X132460Y166884D01*
X132813Y167096D01*
X133061Y167343D01*
X133202Y167626D01*
X133308Y168015D01*
Y168440D01*
X133237Y168793D01*
X133061Y169182D01*
X132813Y169429D01*
X132460Y169642D01*
X132106Y169712D01*
G01X129631Y168369D02*
X131752Y170491D01*
X128004Y169996D01*
X130125Y172117D01*
G01X127473Y170527D02*
X129594Y172648D01*
X128887Y173355D01*
X128498Y173532D01*
X128145Y173603D01*
X127756Y173567D01*
X127367Y173461D01*
X126978Y173143D01*
X126660Y172754D01*
X126554Y172365D01*
X126519Y171976D01*
X126589Y171623D01*
X126766Y171234D01*
X127473Y170527D01*
G01X133753Y-6253D02*
X135874Y-4131D01*
X132126Y-4626D01*
X134247Y-2505D01*
G01X131984Y-595D02*
X132302Y-701D01*
X132620Y-878D01*
X132903Y-1161D01*
X133115Y-1585D01*
X133186Y-2009D01*
X133151Y-2398D01*
X132939Y-2893D01*
X132656Y-3247D01*
X132267Y-3494D01*
X131949Y-3600D01*
X131524D01*
X131136Y-3494D01*
X130817Y-3317D01*
X130570Y-3070D01*
X130393Y-2752D01*
X130287Y-2433D01*
X130252Y-2115D01*
G01X130950Y3500D02*
X130650Y3800D01*
X130300Y3950D01*
X129900Y4000D01*
X129400Y3900D01*
X129050Y3650D01*
X128950Y3350D01*
X129000Y3050D01*
X129200Y2800D01*
X130200Y2300D01*
X130650Y1950D01*
X130950Y1450D01*
X131050Y1000D01*
X128950D01*
G01X130000Y10000D02*
Y13000D01*
X130600Y12400D01*
G01Y10000D02*
X129400D01*
G01X135195Y130500D02*
G03I-3195J0D01*
G01X140753Y156247D02*
X142874Y158369D01*
X139126Y157874D01*
X141247Y159995D01*
G01X138984Y161905D02*
X139302Y161799D01*
X139620Y161622D01*
X139903Y161339D01*
X140115Y160915D01*
X140186Y160491D01*
X140151Y160102D01*
X139939Y159607D01*
X139656Y159253D01*
X139267Y159006D01*
X138949Y158900D01*
X138524D01*
X138136Y159006D01*
X137817Y159183D01*
X137570Y159430D01*
X137393Y159748D01*
X137287Y160067D01*
X137252Y160385D01*
G01X141646Y166354D02*
X143768Y168475D01*
X142919Y169323D01*
X142530Y169500D01*
X142071Y169465D01*
X141717Y169253D01*
X141505Y168899D01*
X141470Y168510D01*
X141682Y168086D01*
X142530Y167237D01*
G01X140939Y171304D02*
X138817Y169183D01*
G01X141752Y170491D02*
X140125Y172117D01*
G01X137473Y170527D02*
X139594Y172648D01*
X138887Y173355D01*
X138498Y173532D01*
X138145Y173603D01*
X137756Y173567D01*
X137367Y173461D01*
X136978Y173143D01*
X136660Y172754D01*
X136554Y172365D01*
X136519Y171976D01*
X136589Y171623D01*
X136766Y171234D01*
X137473Y170527D01*
G01X135669Y172967D02*
X135280Y173002D01*
X134927Y173144D01*
X134573Y173427D01*
X134326Y173816D01*
X134220Y174204D01*
X134290Y174629D01*
X134538Y174947D01*
X134892Y175159D01*
X135245D01*
X135634Y175053D01*
X135917Y174841D01*
X136129Y174558D01*
X136306Y174098D01*
X137119Y175124D01*
X136164Y176078D01*
G01X146141Y-7293D02*
X145682Y-7328D01*
X145258Y-7187D01*
X144904Y-6904D01*
X144656Y-6586D01*
X144550Y-6126D01*
X144586Y-5737D01*
X144763Y-5490D01*
X145081Y-5313D01*
X145505Y-5384D01*
X145823Y-5560D01*
X146141Y-5879D01*
G01X145823Y-5560D02*
X145717Y-5242D01*
Y-4889D01*
X145859Y-4606D01*
X146141Y-4464D01*
X146495Y-4465D01*
X146919Y-4677D01*
X147202Y-5030D01*
X147379Y-5490D01*
G01X145823Y-3580D02*
X142817Y-4817D01*
X144055Y-1812D01*
G01X141897Y-3049D02*
X141438Y-3084D01*
X141014Y-2943D01*
X140660Y-2660D01*
X140412Y-2342D01*
X140306Y-1882D01*
X140342Y-1493D01*
X140519Y-1246D01*
X140837Y-1069D01*
X141261Y-1140D01*
X141579Y-1316D01*
X141897Y-1635D01*
G01X141579Y-1316D02*
X141473Y-998D01*
Y-645D01*
X141615Y-362D01*
X141897Y-220D01*
X142251Y-221D01*
X142675Y-433D01*
X142958Y-786D01*
X143135Y-1246D01*
G01X141753Y15247D02*
X143874Y17369D01*
X140126Y16874D01*
X142247Y18995D01*
G01X139984Y20905D02*
X140302Y20799D01*
X140620Y20622D01*
X140903Y20339D01*
X141115Y19915D01*
X141186Y19491D01*
X141151Y19102D01*
X140939Y18607D01*
X140656Y18253D01*
X140267Y18006D01*
X139949Y17900D01*
X139524D01*
X139136Y18006D01*
X138817Y18183D01*
X138570Y18430D01*
X138393Y18748D01*
X138287Y19067D01*
X138252Y19385D01*
G01X151646Y166354D02*
X153768Y168475D01*
X152919Y169323D01*
X152530Y169500D01*
X152071Y169465D01*
X151717Y169253D01*
X151505Y168899D01*
X151470Y168510D01*
X151682Y168086D01*
X152530Y167237D01*
G01X150939Y171304D02*
X148817Y169183D01*
G01X151752Y170491D02*
X150125Y172117D01*
G01X147473Y170527D02*
X149594Y172648D01*
X148887Y173355D01*
X148498Y173532D01*
X148145Y173603D01*
X147756Y173567D01*
X147367Y173461D01*
X146978Y173143D01*
X146660Y172754D01*
X146554Y172365D01*
X146519Y171976D01*
X146589Y171623D01*
X146766Y171234D01*
X147473Y170527D01*
G01X144644Y173356D02*
X145033Y173886D01*
X145316Y174381D01*
X145528Y174876D01*
X145740Y175442D01*
X145988Y176255D01*
X147402Y174841D01*
G01X148501Y186100D02*
X148251Y185800D01*
X147951Y185600D01*
X147601Y185500D01*
X147201Y185600D01*
X146901Y185800D01*
X146601Y186100D01*
X146501Y186500D01*
Y188500D01*
G01X145450Y188000D02*
X145150Y188300D01*
X144800Y188450D01*
X144400Y188500D01*
X143900Y188400D01*
X143550Y188150D01*
X143450Y187850D01*
X143500Y187550D01*
X143700Y187300D01*
X144700Y186800D01*
X145150Y186450D01*
X145450Y185950D01*
X145550Y185500D01*
X143450D01*
G01X155146Y-7646D02*
X157268Y-5525D01*
X156384Y-4641D01*
X155995Y-4465D01*
X155677Y-4429D01*
X155323Y-4641D01*
X155111Y-4995D01*
X155146Y-5384D01*
X155288Y-5737D01*
X156172Y-6621D01*
G01X155288Y-5737D02*
X153732Y-6232D01*
G01X153343Y-5277D02*
X152883Y-5171D01*
X152459Y-4959D01*
X152176Y-4676D01*
X151999Y-4287D01*
X151964Y-3898D01*
X152105Y-3545D01*
X152423Y-3368D01*
X152812Y-3332D01*
X153272Y-3509D01*
X153767Y-3863D01*
X154156Y-3969D01*
X154509Y-3827D01*
X154686Y-3509D01*
Y-3156D01*
X154545Y-2802D01*
X154297Y-2555D01*
X153979Y-2378D01*
X153590Y-2342D01*
G01X152317Y-574D02*
X150195Y-2695D01*
G01X153130Y-1387D02*
X151503Y239D01*
G01X151253Y15247D02*
X153374Y17369D01*
X149626Y16874D01*
X151747Y18995D01*
G01X149484Y20905D02*
X149802Y20799D01*
X150120Y20622D01*
X150403Y20339D01*
X150615Y19915D01*
X150686Y19491D01*
X150651Y19102D01*
X150439Y18607D01*
X150156Y18253D01*
X149767Y18006D01*
X149449Y17900D01*
X149024D01*
X148636Y18006D01*
X148317Y18183D01*
X148070Y18430D01*
X147893Y18748D01*
X147787Y19067D01*
X147752Y19385D01*
G01X156001Y110600D02*
X155751Y110300D01*
X155451Y110100D01*
X155101Y110000D01*
X154701Y110100D01*
X154401Y110300D01*
X154101Y110600D01*
X154001Y111000D01*
Y113000D01*
G01X153000Y110000D02*
Y113000D01*
X151800D01*
X151400Y112850D01*
X151100Y112500D01*
X151000Y112100D01*
X151100Y111700D01*
X151350Y111400D01*
X151800Y111250D01*
X153000D01*
G01X148999Y110000D02*
Y113000D01*
X149599Y112400D01*
G01Y110000D02*
X148399D01*
G01X157001Y123100D02*
X156751Y122800D01*
X156451Y122600D01*
X156101Y122500D01*
X155701Y122600D01*
X155401Y122800D01*
X155101Y123100D01*
X155001Y123500D01*
Y125500D01*
G01X154000Y122500D02*
Y125500D01*
X152800D01*
X152400Y125350D01*
X152100Y125000D01*
X152000Y124600D01*
X152100Y124200D01*
X152350Y123900D01*
X152800Y123750D01*
X154000D01*
G01X150099Y122500D02*
X149999Y123150D01*
X149849Y123700D01*
X149649Y124200D01*
X149399Y124750D01*
X148999Y125500D01*
X150999D01*
G01X157001Y137100D02*
X156751Y136800D01*
X156451Y136600D01*
X156101Y136500D01*
X155701Y136600D01*
X155401Y136800D01*
X155101Y137100D01*
X155001Y137500D01*
Y139500D01*
G01X154000Y136500D02*
Y139500D01*
X152800D01*
X152400Y139350D01*
X152100Y139000D01*
X152000Y138600D01*
X152100Y138200D01*
X152350Y137900D01*
X152800Y137750D01*
X154000D01*
G01X150949D02*
X150599Y138100D01*
X150299Y138300D01*
X149899Y138400D01*
X149549Y138300D01*
X149299Y138100D01*
X149099Y137800D01*
X149049Y137450D01*
X149099Y137150D01*
X149299Y136850D01*
X149599Y136600D01*
X149949Y136500D01*
X150349Y136600D01*
X150699Y136900D01*
X150899Y137350D01*
X150949Y137850D01*
X150849Y138500D01*
X150699Y138850D01*
X150449Y139200D01*
X150099Y139450D01*
X149749Y139500D01*
X149399Y139400D01*
X149149Y139150D01*
G01X150253Y156247D02*
X152374Y158369D01*
X148626Y157874D01*
X150747Y159995D01*
G01X148484Y161905D02*
X148802Y161799D01*
X149120Y161622D01*
X149403Y161339D01*
X149615Y160915D01*
X149686Y160491D01*
X149651Y160102D01*
X149439Y159607D01*
X149156Y159253D01*
X148767Y159006D01*
X148449Y158900D01*
X148024D01*
X147636Y159006D01*
X147317Y159183D01*
X147070Y159430D01*
X146893Y159748D01*
X146787Y160067D01*
X146752Y160385D01*
G01X162146Y166354D02*
X164268Y168475D01*
X163419Y169323D01*
X163030Y169500D01*
X162571Y169465D01*
X162217Y169253D01*
X162005Y168899D01*
X161970Y168510D01*
X162182Y168086D01*
X163030Y167237D01*
G01X161439Y171304D02*
X159317Y169183D01*
G01X162252Y170491D02*
X160625Y172117D01*
G01X157973Y170527D02*
X160094Y172648D01*
X159387Y173355D01*
X158998Y173532D01*
X158645Y173603D01*
X158256Y173567D01*
X157867Y173461D01*
X157478Y173143D01*
X157160Y172754D01*
X157054Y172365D01*
X157019Y171976D01*
X157089Y171623D01*
X157266Y171234D01*
X157973Y170527D01*
G01X156629Y173639D02*
Y174134D01*
X156558Y174487D01*
X156346Y174841D01*
X156028Y175018D01*
X155710Y175053D01*
X155356Y174982D01*
X155073Y174770D01*
X154897Y174523D01*
X154826Y174169D01*
X154861Y173780D01*
X155038Y173462D01*
X155392Y173250D01*
X155851Y173214D01*
X156311Y173391D01*
X156700Y173709D01*
X157089Y174240D01*
X157230Y174593D01*
X157301Y175018D01*
X157230Y175442D01*
X157018Y175725D01*
X156700Y175902D01*
X156346D01*
G01X165141Y-7293D02*
X164682Y-7328D01*
X164258Y-7187D01*
X163904Y-6904D01*
X163656Y-6586D01*
X163550Y-6126D01*
X163586Y-5737D01*
X163763Y-5490D01*
X164081Y-5313D01*
X164505Y-5384D01*
X164823Y-5560D01*
X165141Y-5879D01*
G01X164823Y-5560D02*
X164717Y-5242D01*
Y-4889D01*
X164859Y-4606D01*
X165141Y-4464D01*
X165495Y-4465D01*
X165919Y-4677D01*
X166202Y-5030D01*
X166379Y-5490D01*
G01X164823Y-3580D02*
X161817Y-4817D01*
X163055Y-1812D01*
G01X160897Y-3049D02*
X160438Y-3084D01*
X160014Y-2943D01*
X159660Y-2660D01*
X159412Y-2342D01*
X159306Y-1882D01*
X159342Y-1493D01*
X159519Y-1246D01*
X159837Y-1069D01*
X160261Y-1140D01*
X160579Y-1316D01*
X160897Y-1635D01*
G01X160579Y-1316D02*
X160473Y-998D01*
Y-645D01*
X160615Y-362D01*
X160897Y-220D01*
X161251Y-221D01*
X161675Y-433D01*
X161958Y-786D01*
X162135Y-1246D01*
G01X161253Y15247D02*
X163374Y17369D01*
X159626Y16874D01*
X161747Y18995D01*
G01X159484Y20905D02*
X159802Y20799D01*
X160120Y20622D01*
X160403Y20339D01*
X160615Y19915D01*
X160686Y19491D01*
X160651Y19102D01*
X160439Y18607D01*
X160156Y18253D01*
X159767Y18006D01*
X159449Y17900D01*
X159024D01*
X158636Y18006D01*
X158317Y18183D01*
X158070Y18430D01*
X157893Y18748D01*
X157787Y19067D01*
X157752Y19385D01*
G01X160753Y156247D02*
X162874Y158369D01*
X159126Y157874D01*
X161247Y159995D01*
G01X158984Y161905D02*
X159302Y161799D01*
X159620Y161622D01*
X159903Y161339D01*
X160115Y160915D01*
X160186Y160491D01*
X160151Y160102D01*
X159939Y159607D01*
X159656Y159253D01*
X159267Y159006D01*
X158949Y158900D01*
X158524D01*
X158136Y159006D01*
X157817Y159183D01*
X157570Y159430D01*
X157393Y159748D01*
X157287Y160067D01*
X157252Y160385D01*
G01X171253Y15247D02*
X173374Y17369D01*
X169626Y16874D01*
X171747Y18995D01*
G01X169484Y20905D02*
X169802Y20799D01*
X170120Y20622D01*
X170403Y20339D01*
X170615Y19915D01*
X170686Y19491D01*
X170651Y19102D01*
X170439Y18607D01*
X170156Y18253D01*
X169767Y18006D01*
X169449Y17900D01*
X169024D01*
X168636Y18006D01*
X168317Y18183D01*
X168070Y18430D01*
X167893Y18748D01*
X167787Y19067D01*
X167752Y19385D01*
G01X165000Y103000D02*
Y106000D01*
X165600Y105400D01*
G01Y103000D02*
X164400D01*
G01X165000Y115500D02*
Y118500D01*
X165600Y117900D01*
G01Y115500D02*
X164400D01*
G01X165000Y129500D02*
Y132500D01*
X165600Y131900D01*
G01Y129500D02*
X164400D01*
G01X170753Y156247D02*
X172874Y158369D01*
X169126Y157874D01*
X171247Y159995D01*
G01X168984Y161905D02*
X169302Y161799D01*
X169620Y161622D01*
X169903Y161339D01*
X170115Y160915D01*
X170186Y160491D01*
X170151Y160102D01*
X169939Y159607D01*
X169656Y159253D01*
X169267Y159006D01*
X168949Y158900D01*
X168524D01*
X168136Y159006D01*
X167817Y159183D01*
X167570Y159430D01*
X167393Y159748D01*
X167287Y160067D01*
X167252Y160385D01*
G01X172146Y165854D02*
X174268Y167975D01*
X173419Y168823D01*
X173030Y169000D01*
X172571Y168965D01*
X172217Y168753D01*
X172005Y168399D01*
X171970Y168010D01*
X172182Y167586D01*
X173030Y166737D01*
G01X171439Y170804D02*
X169317Y168683D01*
G01X172252Y169991D02*
X170625Y171617D01*
G01X167973Y170027D02*
X170094Y172148D01*
X169387Y172855D01*
X168998Y173032D01*
X168645Y173103D01*
X168256Y173067D01*
X167867Y172961D01*
X167478Y172643D01*
X167160Y172254D01*
X167054Y171865D01*
X167019Y171476D01*
X167089Y171123D01*
X167266Y170734D01*
X167973Y170027D01*
G01X164649Y173351D02*
X166770Y175472D01*
X166558Y172644D01*
X164790Y174412D01*
G01X175535Y-6899D02*
X175146Y-6864D01*
X174793Y-6722D01*
X174439Y-6439D01*
X174192Y-6050D01*
X174086Y-5662D01*
X174156Y-5237D01*
X174404Y-4919D01*
X174758Y-4707D01*
X175111D01*
X175500Y-4813D01*
X175783Y-5025D01*
X175995Y-5308D01*
X176172Y-5768D01*
X176985Y-4742D01*
X176030Y-3788D01*
G01X175323Y-3080D02*
X172317Y-4317D01*
X173555Y-1312D01*
G01X172317Y-74D02*
X172529Y-428D01*
X172564Y-816D01*
X172493Y-1170D01*
X172317Y-1559D01*
X172034Y-1913D01*
X171680Y-2195D01*
X171291Y-2372D01*
X170938Y-2443D01*
X170549Y-2408D01*
X170195Y-2195D01*
X169983Y-1842D01*
X169948Y-1453D01*
X170019Y-1099D01*
X170195Y-710D01*
X170478Y-357D01*
X170832Y-74D01*
X171221Y103D01*
X171574Y173D01*
X171963Y138D01*
X172317Y-74D01*
G01X174500Y6600D02*
X174250Y6300D01*
X173950Y6100D01*
X173600Y6000D01*
X173200Y6100D01*
X172900Y6300D01*
X172600Y6600D01*
X172500Y7000D01*
Y9000D01*
G01X171599Y6600D02*
X171299Y6250D01*
X170899Y6050D01*
X170449Y6000D01*
X170049Y6050D01*
X169649Y6300D01*
X169399Y6600D01*
X169349Y6900D01*
X169449Y7250D01*
X169799Y7500D01*
X170149Y7600D01*
X170599D01*
G01X170149D02*
X169849Y7750D01*
X169599Y8000D01*
X169499Y8300D01*
X169599Y8600D01*
X169849Y8850D01*
X170299Y9000D01*
X170749Y8950D01*
X171199Y8750D01*
G01X180753Y14747D02*
X182874Y16869D01*
X179126Y16374D01*
X181247Y18495D01*
G01X178984Y20405D02*
X179302Y20299D01*
X179620Y20122D01*
X179903Y19839D01*
X180115Y19415D01*
X180186Y18991D01*
X180151Y18602D01*
X179939Y18107D01*
X179656Y17753D01*
X179267Y17506D01*
X178949Y17400D01*
X178524D01*
X178136Y17506D01*
X177817Y17683D01*
X177570Y17930D01*
X177393Y18248D01*
X177287Y18567D01*
X177252Y18885D01*
G01X182500Y102000D02*
Y99000D01*
G01X183650Y102000D02*
X181350D01*
G01X180499Y99000D02*
Y102000D01*
X179299D01*
X178899Y101850D01*
X178599Y101500D01*
X178499Y101100D01*
X178599Y100700D01*
X178849Y100400D01*
X179299Y100250D01*
X180499D01*
G01X175898Y99000D02*
Y102000D01*
X177748Y99850D01*
X175248D01*
G01X180253Y156247D02*
X182374Y158369D01*
X178626Y157874D01*
X180747Y159995D01*
G01X178484Y161905D02*
X178802Y161799D01*
X179120Y161622D01*
X179403Y161339D01*
X179615Y160915D01*
X179686Y160491D01*
X179651Y160102D01*
X179439Y159607D01*
X179156Y159253D01*
X178767Y159006D01*
X178449Y158900D01*
X178024D01*
X177636Y159006D01*
X177317Y159183D01*
X177070Y159430D01*
X176893Y159748D01*
X176787Y160067D01*
X176752Y160385D01*
G01X181646Y165854D02*
X183768Y167975D01*
X182919Y168823D01*
X182530Y169000D01*
X182071Y168965D01*
X181717Y168753D01*
X181505Y168399D01*
X181470Y168010D01*
X181682Y167586D01*
X182530Y166737D01*
G01X180939Y170804D02*
X178817Y168683D01*
G01X181752Y169991D02*
X180125Y171617D01*
G01X177473Y170027D02*
X179594Y172148D01*
X178887Y172855D01*
X178498Y173032D01*
X178145Y173103D01*
X177756Y173067D01*
X177367Y172961D01*
X176978Y172643D01*
X176660Y172254D01*
X176554Y171865D01*
X176519Y171476D01*
X176589Y171123D01*
X176766Y170734D01*
X177473Y170027D01*
G01X177013Y174023D02*
Y174447D01*
X176871Y174801D01*
X176624Y175119D01*
X176200Y175402D01*
X175775Y175472D01*
X175493Y175331D01*
X175316Y175083D01*
X175280Y174765D01*
X175634Y173704D01*
X175705Y173139D01*
X175563Y172573D01*
X175316Y172184D01*
X173831Y173669D01*
G01X185288Y-5167D02*
X184581Y-4459D01*
X183944Y-5096D01*
Y-5520D01*
X184050Y-5909D01*
X184333Y-6333D01*
X184758Y-6616D01*
X185146Y-6722D01*
X185571D01*
X185960Y-6616D01*
X186313Y-6404D01*
X186561Y-6157D01*
X186702Y-5874D01*
X186808Y-5485D01*
Y-5060D01*
X186737Y-4707D01*
X186561Y-4318D01*
X186313Y-4071D01*
X185960Y-3858D01*
X185606Y-3788D01*
G01X183131Y-5131D02*
X185252Y-3009D01*
X181504Y-3504D01*
X183625Y-1383D01*
G01X180973Y-2973D02*
X183094Y-852D01*
X182387Y-145D01*
X181998Y32D01*
X181645Y103D01*
X181256Y67D01*
X180867Y-39D01*
X180478Y-357D01*
X180160Y-746D01*
X180054Y-1135D01*
X180019Y-1524D01*
X180089Y-1877D01*
X180266Y-2266D01*
X180973Y-2973D01*
G01X202504Y121000D02*
Y124000D01*
X201304D01*
X200904Y123850D01*
X200604Y123500D01*
X200504Y123100D01*
X200604Y122700D01*
X200854Y122400D01*
X201304Y122250D01*
X202504D01*
G01X199603Y121600D02*
X199303Y121250D01*
X198903Y121050D01*
X198453Y121000D01*
X198053Y121050D01*
X197653Y121300D01*
X197403Y121600D01*
X197353Y121900D01*
X197453Y122250D01*
X197803Y122500D01*
X198153Y122600D01*
X198603D01*
G01X198153D02*
X197853Y122750D01*
X197603Y123000D01*
X197503Y123300D01*
X197603Y123600D01*
X197853Y123850D01*
X198303Y124000D01*
X198753Y123950D01*
X199203Y123750D01*
G01X196752Y124000D02*
X195502Y121000D01*
X194252Y124000D01*
G01X193601Y121600D02*
X193301Y121250D01*
X192901Y121050D01*
X192451Y121000D01*
X192051Y121050D01*
X191651Y121300D01*
X191401Y121600D01*
X191351Y121900D01*
X191451Y122250D01*
X191801Y122500D01*
X192151Y122600D01*
X192601D01*
G01X192151D02*
X191851Y122750D01*
X191601Y123000D01*
X191501Y123300D01*
X191601Y123600D01*
X191851Y123850D01*
X192301Y124000D01*
X192751Y123950D01*
X193201Y123750D01*
G01X191000Y120000D02*
X188000D01*
G01X187799Y121000D02*
Y124000D01*
X186499Y121500D01*
X185199Y124000D01*
Y121000D01*
G01X182398Y123750D02*
X182698Y123900D01*
X183048Y124000D01*
X183448D01*
X183898Y123850D01*
X184248Y123600D01*
X184498Y123300D01*
X184698Y122800D01*
X184748Y122350D01*
X184648Y121900D01*
X184498Y121600D01*
X184198Y121300D01*
X183848Y121100D01*
X183498Y121000D01*
X183148D01*
X182798Y121100D01*
X182498Y121250D01*
X182248Y121450D01*
G01X181597Y124000D02*
Y121850D01*
X181397Y121400D01*
X180997Y121100D01*
X180497Y121000D01*
X179997Y121100D01*
X179597Y121400D01*
X179397Y121850D01*
Y124000D01*
G01X192840Y118360D02*
Y115360D01*
G01X193990Y118360D02*
X191690D01*
G01X190839Y115360D02*
Y118360D01*
X189639D01*
X189239Y118210D01*
X188939Y117860D01*
X188839Y117460D01*
X188939Y117060D01*
X189189Y116760D01*
X189639Y116610D01*
X190839D01*
G01X186838Y115360D02*
Y118360D01*
X187438Y117760D01*
G01Y115360D02*
X186238D01*
G01X184787Y117860D02*
X184487Y118160D01*
X184137Y118310D01*
X183737Y118360D01*
X183237Y118260D01*
X182887Y118010D01*
X182787Y117710D01*
X182837Y117410D01*
X183037Y117160D01*
X184037Y116660D01*
X184487Y116310D01*
X184787Y115810D01*
X184887Y115360D01*
X182787D01*
G01X192146Y165854D02*
X194268Y167975D01*
X193419Y168823D01*
X193030Y169000D01*
X192571Y168965D01*
X192217Y168753D01*
X192005Y168399D01*
X191970Y168010D01*
X192182Y167586D01*
X193030Y166737D01*
G01X191439Y170804D02*
X189317Y168683D01*
G01X192252Y169991D02*
X190625Y171617D01*
G01X188079Y169921D02*
X189317Y172926D01*
X186311Y171689D01*
G01X187372Y172113D02*
X188503Y170981D01*
G01X185073Y172927D02*
X187195Y175048D01*
Y174199D01*
G01X185498Y172502D02*
X184649Y173351D01*
G01X184153Y174695D02*
X183694Y174660D01*
X183270Y174801D01*
X182916Y175084D01*
X182668Y175402D01*
X182562Y175862D01*
X182598Y176251D01*
X182775Y176498D01*
X183093Y176675D01*
X183517Y176604D01*
X183835Y176428D01*
X184153Y176109D01*
G01X183835Y176428D02*
X183729Y176746D01*
Y177099D01*
X183871Y177382D01*
X184153Y177524D01*
X184507Y177523D01*
X184931Y177311D01*
X185214Y176958D01*
X185391Y176498D01*
G01X195288Y-5167D02*
X194581Y-4459D01*
X193944Y-5096D01*
Y-5520D01*
X194050Y-5909D01*
X194333Y-6333D01*
X194758Y-6616D01*
X195146Y-6722D01*
X195571D01*
X195960Y-6616D01*
X196313Y-6404D01*
X196561Y-6157D01*
X196702Y-5874D01*
X196808Y-5485D01*
Y-5060D01*
X196737Y-4707D01*
X196561Y-4318D01*
X196313Y-4071D01*
X195960Y-3858D01*
X195606Y-3788D01*
G01X193131Y-5131D02*
X195252Y-3009D01*
X191504Y-3504D01*
X193625Y-1383D01*
G01X190973Y-2973D02*
X193094Y-852D01*
X192387Y-145D01*
X191998Y32D01*
X191645Y103D01*
X191256Y67D01*
X190867Y-39D01*
X190478Y-357D01*
X190160Y-746D01*
X190054Y-1135D01*
X190019Y-1524D01*
X190089Y-1877D01*
X190266Y-2266D01*
X190973Y-2973D01*
G01X190753Y15247D02*
X192874Y17369D01*
X189126Y16874D01*
X191247Y18995D01*
G01X188984Y20905D02*
X189302Y20799D01*
X189620Y20622D01*
X189903Y20339D01*
X190115Y19915D01*
X190186Y19491D01*
X190151Y19102D01*
X189939Y18607D01*
X189656Y18253D01*
X189267Y18006D01*
X188949Y17900D01*
X188524D01*
X188136Y18006D01*
X187817Y18183D01*
X187570Y18430D01*
X187393Y18748D01*
X187287Y19067D01*
X187252Y19385D01*
G01X191695Y100500D02*
G03I-3195J0D01*
G01Y111500D02*
G03I-3195J0D01*
G01X190253Y156247D02*
X192374Y158369D01*
X188626Y157874D01*
X190747Y159995D01*
G01X188484Y161905D02*
X188802Y161799D01*
X189120Y161622D01*
X189403Y161339D01*
X189615Y160915D01*
X189686Y160491D01*
X189651Y160102D01*
X189439Y159607D01*
X189156Y159253D01*
X188767Y159006D01*
X188449Y158900D01*
X188024D01*
X187636Y159006D01*
X187317Y159183D01*
X187070Y159430D01*
X186893Y159748D01*
X186787Y160067D01*
X186752Y160385D01*
G01X191450Y199500D02*
X191150Y199800D01*
X190800Y199950D01*
X190400Y200000D01*
X189900Y199900D01*
X189550Y199650D01*
X189450Y199350D01*
X189500Y199050D01*
X189700Y198800D01*
X190700Y198300D01*
X191150Y197950D01*
X191450Y197450D01*
X191550Y197000D01*
X189450D01*
G01X192000Y174000D02*
Y177000D01*
X192600Y176400D01*
G01Y174000D02*
X191400D01*
G01X207445Y-5702D02*
X204439Y-6939D01*
X205677Y-3934D01*
G01X204863Y-3120D02*
X204014Y-2272D01*
G01X204439Y-2696D02*
X202317Y-4817D01*
G01X202742Y-5242D02*
X201893Y-4393D01*
G01X201009Y-3509D02*
X203130Y-1387D01*
X199382Y-1882D01*
X201503Y239D01*
G01X201253Y15247D02*
X203374Y17369D01*
X199626Y16874D01*
X201747Y18995D01*
G01X199484Y20905D02*
X199802Y20799D01*
X200120Y20622D01*
X200403Y20339D01*
X200615Y19915D01*
X200686Y19491D01*
X200651Y19102D01*
X200439Y18607D01*
X200156Y18253D01*
X199767Y18006D01*
X199449Y17900D01*
X199024D01*
X198636Y18006D01*
X198317Y18183D01*
X198070Y18430D01*
X197893Y18748D01*
X197787Y19067D01*
X197752Y19385D01*
G01X196500Y53000D02*
Y56000D01*
X197100Y55400D01*
G01Y53000D02*
X195900D01*
G01X197000Y143000D02*
Y146000D01*
X197600Y145400D01*
G01Y143000D02*
X196400D01*
G01X200500Y174000D02*
Y177000D01*
X201100Y176400D01*
G01Y174000D02*
X199900D01*
G01X198599Y174450D02*
X198299Y174200D01*
X197949Y174050D01*
X197499Y174000D01*
X197049Y174100D01*
X196699Y174300D01*
X196449Y174650D01*
X196399Y175050D01*
X196499Y175450D01*
X196749Y175700D01*
X197099Y175900D01*
X197449Y175950D01*
X197799Y175900D01*
X198249Y175700D01*
X198099Y177000D01*
X196749D01*
G01X202500Y60000D02*
X205500D01*
Y61200D01*
X205350Y61600D01*
X205000Y61900D01*
X204600Y62000D01*
X204200Y61900D01*
X203900Y61650D01*
X203750Y61200D01*
Y60000D01*
G01X205500Y64001D02*
X202500D01*
G01X205500Y62851D02*
Y65151D01*
G01X204100Y67402D02*
X204250Y67602D01*
X204500Y67752D01*
X204850Y67852D01*
X205150Y67752D01*
X205350Y67552D01*
X205500Y67202D01*
Y65852D01*
X202500D01*
Y67502D01*
X202700Y67852D01*
X203000Y68052D01*
X203350Y68152D01*
X203700Y68052D01*
X204000Y67752D01*
X204100Y67402D01*
Y65852D01*
G01X205500Y70003D02*
X205400Y69603D01*
X205150Y69303D01*
X204850Y69103D01*
X204450Y68953D01*
X204000Y68903D01*
X203550Y68953D01*
X203150Y69103D01*
X202850Y69303D01*
X202600Y69603D01*
X202500Y70003D01*
X202600Y70403D01*
X202850Y70703D01*
X203150Y70903D01*
X203550Y71053D01*
X204000Y71103D01*
X204450Y71053D01*
X204850Y70903D01*
X205150Y70703D01*
X205400Y70403D01*
X205500Y70003D01*
G01X202500Y126000D02*
X205500D01*
Y127200D01*
X205350Y127600D01*
X205000Y127900D01*
X204600Y128000D01*
X204200Y127900D01*
X203900Y127650D01*
X203750Y127200D01*
Y126000D01*
G01X205500Y130001D02*
X202500D01*
G01X205500Y128851D02*
Y131151D01*
G01X202500Y131752D02*
X205500Y133002D01*
X202500Y134252D01*
G01X203550Y133802D02*
Y132202D01*
G01X202500Y136003D02*
X205500D01*
X204900Y135403D01*
G01X202500D02*
Y136603D01*
G01X205000Y138054D02*
X205300Y138354D01*
X205450Y138704D01*
X205500Y139104D01*
X205400Y139604D01*
X205150Y139954D01*
X204850Y140054D01*
X204550Y140004D01*
X204300Y139804D01*
X203800Y138804D01*
X203450Y138354D01*
X202950Y138054D01*
X202500Y137954D01*
Y140054D01*
G01X205500Y151100D02*
X205250Y150800D01*
X204950Y150600D01*
X204600Y150500D01*
X204200Y150600D01*
X203900Y150800D01*
X203600Y151100D01*
X203500Y151500D01*
Y153500D01*
G01X202599Y150950D02*
X202299Y150700D01*
X201949Y150550D01*
X201499Y150500D01*
X201049Y150600D01*
X200699Y150800D01*
X200449Y151150D01*
X200399Y151550D01*
X200499Y151950D01*
X200749Y152200D01*
X201099Y152400D01*
X201449Y152450D01*
X201799Y152400D01*
X202249Y152200D01*
X202099Y153500D01*
X200749D01*
G01X212646Y153354D02*
X214768Y155475D01*
X213919Y156323D01*
X213530Y156500D01*
X213071Y156465D01*
X212717Y156253D01*
X212505Y155899D01*
X212470Y155510D01*
X212682Y155086D01*
X213530Y154237D01*
G01X211939Y158304D02*
X209817Y156183D01*
G01X212752Y157491D02*
X211125Y159117D01*
G01X208862Y161027D02*
X209180Y160921D01*
X209498Y160744D01*
X209781Y160461D01*
X209993Y160037D01*
X210064Y159613D01*
X210029Y159224D01*
X209817Y158729D01*
X209534Y158375D01*
X209145Y158128D01*
X208827Y158022D01*
X208402D01*
X208014Y158128D01*
X207695Y158305D01*
X207448Y158552D01*
X207271Y158870D01*
X207165Y159189D01*
X207130Y159507D01*
G01X206669Y159967D02*
X206280Y160002D01*
X205927Y160144D01*
X205573Y160427D01*
X205326Y160816D01*
X205220Y161204D01*
X205290Y161629D01*
X205538Y161947D01*
X205892Y162159D01*
X206245D01*
X206634Y162053D01*
X206917Y161841D01*
X207129Y161558D01*
X207306Y161098D01*
X208119Y162124D01*
X207164Y163078D01*
G01X214146Y165354D02*
X216268Y167475D01*
X215419Y168323D01*
X215030Y168500D01*
X214571Y168465D01*
X214217Y168253D01*
X214005Y167899D01*
X213970Y167510D01*
X214182Y167086D01*
X215030Y166237D01*
G01X213439Y170304D02*
X211317Y168183D01*
G01X214252Y169491D02*
X212625Y171117D01*
G01X208488Y171012D02*
X209902Y169598D01*
X212024Y171719D01*
X210610Y173133D01*
G01X210150Y171542D02*
X210998Y170694D01*
G01X208275Y172073D02*
X207816Y172038D01*
X207392Y172179D01*
X207038Y172462D01*
X206790Y172780D01*
X206684Y173240D01*
X206720Y173629D01*
X206897Y173876D01*
X207215Y174053D01*
X207639Y173982D01*
X207957Y173806D01*
X208275Y173487D01*
G01X207957Y173806D02*
X207851Y174124D01*
Y174477D01*
X207993Y174760D01*
X208275Y174902D01*
X208629Y174901D01*
X209053Y174689D01*
X209336Y174336D01*
X209513Y173876D01*
G01X207073Y176670D02*
X207285Y176316D01*
X207320Y175928D01*
X207249Y175574D01*
X207073Y175185D01*
X206790Y174831D01*
X206436Y174549D01*
X206047Y174372D01*
X205694Y174301D01*
X205305Y174336D01*
X204951Y174549D01*
X204739Y174902D01*
X204704Y175291D01*
X204775Y175645D01*
X204951Y176034D01*
X205234Y176387D01*
X205588Y176670D01*
X205977Y176847D01*
X206330Y176917D01*
X206719Y176882D01*
X207073Y176670D01*
G01X208000Y197000D02*
Y200000D01*
X208600Y199400D01*
G01Y197000D02*
X207400D01*
G01X205949Y198250D02*
X205599Y198600D01*
X205299Y198800D01*
X204899Y198900D01*
X204549Y198800D01*
X204299Y198600D01*
X204099Y198300D01*
X204049Y197950D01*
X204099Y197650D01*
X204299Y197350D01*
X204599Y197100D01*
X204949Y197000D01*
X205349Y197100D01*
X205699Y197400D01*
X205899Y197850D01*
X205949Y198350D01*
X205849Y199000D01*
X205699Y199350D01*
X205449Y199700D01*
X205099Y199950D01*
X204749Y200000D01*
X204399Y199900D01*
X204149Y199650D01*
G01X214500Y-3500D02*
Y-500D01*
X215100Y-1100D01*
G01Y-3500D02*
X213900D01*
G01X212449Y-2250D02*
X212099Y-1900D01*
X211799Y-1700D01*
X211399Y-1600D01*
X211049Y-1700D01*
X210799Y-1900D01*
X210599Y-2200D01*
X210549Y-2550D01*
X210599Y-2850D01*
X210799Y-3150D01*
X211099Y-3400D01*
X211449Y-3500D01*
X211849Y-3400D01*
X212199Y-3100D01*
X212399Y-2650D01*
X212449Y-2150D01*
X212349Y-1500D01*
X212199Y-1150D01*
X211949Y-800D01*
X211599Y-550D01*
X211249Y-500D01*
X210899Y-600D01*
X210649Y-850D01*
G01X214500Y16000D02*
Y19000D01*
X215100Y18400D01*
G01Y16000D02*
X213900D01*
G01X212599Y16450D02*
X212299Y16200D01*
X211949Y16050D01*
X211499Y16000D01*
X211049Y16100D01*
X210699Y16300D01*
X210449Y16650D01*
X210399Y17050D01*
X210499Y17450D01*
X210749Y17700D01*
X211099Y17900D01*
X211449Y17950D01*
X211799Y17900D01*
X212249Y17700D01*
X212099Y19000D01*
X210749D01*
G01X212000Y60000D02*
X215000D01*
Y61200D01*
X214850Y61600D01*
X214500Y61900D01*
X214100Y62000D01*
X213700Y61900D01*
X213400Y61650D01*
X213250Y61200D01*
Y60000D01*
G01X215000Y64001D02*
X212000D01*
G01X215000Y62851D02*
Y65151D01*
G01X212000Y68002D02*
Y66002D01*
X215000D01*
Y68002D01*
G01X213550Y67202D02*
Y66002D01*
G01X212600Y68903D02*
X212250Y69203D01*
X212050Y69603D01*
X212000Y70053D01*
X212050Y70453D01*
X212300Y70853D01*
X212600Y71103D01*
X212900Y71153D01*
X213250Y71053D01*
X213500Y70703D01*
X213600Y70353D01*
Y69903D01*
G01Y70353D02*
X213750Y70653D01*
X214000Y70903D01*
X214300Y71003D01*
X214600Y70903D01*
X214850Y70653D01*
X215000Y70203D01*
X214950Y69753D01*
X214750Y69303D01*
G01X215000Y73004D02*
X214900Y72604D01*
X214650Y72304D01*
X214350Y72104D01*
X213950Y71954D01*
X213500Y71904D01*
X213050Y71954D01*
X212650Y72104D01*
X212350Y72304D01*
X212100Y72604D01*
X212000Y73004D01*
X212100Y73404D01*
X212350Y73704D01*
X212650Y73904D01*
X213050Y74054D01*
X213500Y74104D01*
X213950Y74054D01*
X214350Y73904D01*
X214650Y73704D01*
X214900Y73404D01*
X215000Y73004D01*
G01X212000Y128500D02*
X215000D01*
Y129700D01*
X214850Y130100D01*
X214500Y130400D01*
X214100Y130500D01*
X213700Y130400D01*
X213400Y130150D01*
X213250Y129700D01*
Y128500D01*
G01X215000Y132501D02*
X212000D01*
G01X215000Y131351D02*
Y133651D01*
G01X212000Y134402D02*
X215000D01*
Y135402D01*
X214850Y135802D01*
X214650Y136102D01*
X214350Y136352D01*
X214000Y136552D01*
X213500Y136602D01*
X213000Y136552D01*
X212650Y136352D01*
X212350Y136102D01*
X212150Y135802D01*
X212000Y135402D01*
Y134402D01*
G01X212600Y137403D02*
X212250Y137703D01*
X212050Y138103D01*
X212000Y138553D01*
X212050Y138953D01*
X212300Y139353D01*
X212600Y139603D01*
X212900Y139653D01*
X213250Y139553D01*
X213500Y139203D01*
X213600Y138853D01*
Y138403D01*
G01Y138853D02*
X213750Y139153D01*
X214000Y139403D01*
X214300Y139503D01*
X214600Y139403D01*
X214850Y139153D01*
X215000Y138703D01*
X214950Y138253D01*
X214750Y137803D01*
G01X222646Y165354D02*
X224768Y167475D01*
X223919Y168323D01*
X223530Y168500D01*
X223071Y168465D01*
X222717Y168253D01*
X222505Y167899D01*
X222470Y167510D01*
X222682Y167086D01*
X223530Y166237D01*
G01X221939Y170304D02*
X219817Y168183D01*
G01X222752Y169491D02*
X221125Y171117D01*
G01X216988Y171012D02*
X218402Y169598D01*
X220524Y171719D01*
X219110Y173133D01*
G01X218650Y171542D02*
X219498Y170694D01*
G01X218013Y173523D02*
Y173947D01*
X217871Y174301D01*
X217624Y174619D01*
X217200Y174902D01*
X216775Y174972D01*
X216493Y174831D01*
X216316Y174583D01*
X216280Y174265D01*
X216634Y173204D01*
X216705Y172639D01*
X216563Y172073D01*
X216316Y171684D01*
X214831Y173169D01*
G01X214300Y174195D02*
X213876Y174266D01*
X213522Y174478D01*
X213310Y174831D01*
X213275Y175291D01*
X213416Y175786D01*
X213663Y176175D01*
X214052Y176564D01*
X214441Y176811D01*
X214901Y176917D01*
X215254Y176847D01*
X215573Y176670D01*
X215785Y176316D01*
X215855Y175963D01*
X215785Y175609D01*
X215573Y175256D01*
X215254Y175079D01*
X214830Y175008D01*
X214477Y175079D01*
X214194Y175291D01*
X213982Y175645D01*
X213946Y176034D01*
X214052Y176564D01*
G01X220753Y153247D02*
X222874Y155369D01*
X219126Y154874D01*
X221247Y156995D01*
G01X218984Y158905D02*
X219302Y158799D01*
X219620Y158622D01*
X219903Y158339D01*
X220115Y157915D01*
X220186Y157491D01*
X220151Y157102D01*
X219939Y156607D01*
X219656Y156253D01*
X219267Y156006D01*
X218949Y155900D01*
X218524D01*
X218136Y156006D01*
X217817Y156183D01*
X217570Y156430D01*
X217393Y156748D01*
X217287Y157067D01*
X217252Y157385D01*
G01X220950Y3000D02*
X220650Y3300D01*
X220300Y3450D01*
X219900Y3500D01*
X219400Y3400D01*
X219050Y3150D01*
X218950Y2850D01*
X219000Y2550D01*
X219200Y2300D01*
X220200Y1800D01*
X220650Y1450D01*
X220950Y950D01*
X221050Y500D01*
X218950D01*
G01X220000Y9500D02*
Y12500D01*
X220600Y11900D01*
G01Y9500D02*
X219400D01*
G01X231646Y14354D02*
X233768Y16475D01*
X232919Y17323D01*
X232530Y17500D01*
X232071Y17465D01*
X231717Y17253D01*
X231505Y16899D01*
X231470Y16510D01*
X231682Y16086D01*
X232530Y15237D01*
G01X230939Y19304D02*
X228817Y17183D01*
G01X231752Y18491D02*
X230125Y20117D01*
G01X225988Y20012D02*
X227402Y18598D01*
X229524Y20719D01*
X228110Y22133D01*
G01X227650Y20542D02*
X228498Y19694D01*
G01X227013Y22523D02*
Y22947D01*
X226871Y23301D01*
X226624Y23619D01*
X226200Y23902D01*
X225775Y23972D01*
X225493Y23831D01*
X225316Y23583D01*
X225280Y23265D01*
X225634Y22204D01*
X225705Y21639D01*
X225563Y21073D01*
X225316Y20684D01*
X223831Y22169D01*
G01X224573Y25670D02*
X224785Y25316D01*
X224820Y24928D01*
X224749Y24574D01*
X224573Y24185D01*
X224290Y23831D01*
X223936Y23549D01*
X223547Y23372D01*
X223194Y23301D01*
X222805Y23336D01*
X222451Y23549D01*
X222239Y23902D01*
X222204Y24291D01*
X222275Y24645D01*
X222451Y25034D01*
X222734Y25387D01*
X223088Y25670D01*
X223477Y25847D01*
X223830Y25917D01*
X224219Y25882D01*
X224573Y25670D01*
G01X222000Y60000D02*
X225000D01*
Y61200D01*
X224850Y61600D01*
X224500Y61900D01*
X224100Y62000D01*
X223700Y61900D01*
X223400Y61650D01*
X223250Y61200D01*
Y60000D01*
G01X225000Y64001D02*
X222000D01*
G01X225000Y62851D02*
Y65151D01*
G01X222000Y65902D02*
X225000D01*
Y66902D01*
X224850Y67302D01*
X224650Y67602D01*
X224350Y67852D01*
X224000Y68052D01*
X223500Y68102D01*
X223000Y68052D01*
X222650Y67852D01*
X222350Y67602D01*
X222150Y67302D01*
X222000Y66902D01*
Y65902D01*
G01Y70603D02*
X225000D01*
X222850Y68753D01*
Y71253D01*
G01X222000Y128500D02*
X225000D01*
Y129700D01*
X224850Y130100D01*
X224500Y130400D01*
X224100Y130500D01*
X223700Y130400D01*
X223400Y130150D01*
X223250Y129700D01*
Y128500D01*
G01X225000Y132501D02*
X222000D01*
G01X225000Y131351D02*
Y133651D01*
G01X222000Y136502D02*
Y134502D01*
X225000D01*
Y136502D01*
G01X223550Y135702D02*
Y134502D01*
G01X222000Y138503D02*
X225000D01*
X224400Y137903D01*
G01X222000D02*
Y139103D01*
G01X231646Y153354D02*
X233768Y155475D01*
X232919Y156323D01*
X232530Y156500D01*
X232071Y156465D01*
X231717Y156253D01*
X231505Y155899D01*
X231470Y155510D01*
X231682Y155086D01*
X232530Y154237D01*
G01X230939Y158304D02*
X228817Y156183D01*
G01X231752Y157491D02*
X230125Y159117D01*
G01X227862Y161027D02*
X228180Y160921D01*
X228498Y160744D01*
X228781Y160461D01*
X228993Y160037D01*
X229064Y159613D01*
X229029Y159224D01*
X228817Y158729D01*
X228534Y158375D01*
X228145Y158128D01*
X227827Y158022D01*
X227402D01*
X227014Y158128D01*
X226695Y158305D01*
X226448Y158552D01*
X226271Y158870D01*
X226165Y159189D01*
X226130Y159507D01*
G01X224644Y160356D02*
X225033Y160886D01*
X225316Y161381D01*
X225528Y161876D01*
X225740Y162442D01*
X225988Y163255D01*
X227402Y161841D01*
G01X231646Y165354D02*
X233768Y167475D01*
X232919Y168323D01*
X232530Y168500D01*
X232071Y168465D01*
X231717Y168253D01*
X231505Y167899D01*
X231470Y167510D01*
X231682Y167086D01*
X232530Y166237D01*
G01X230939Y170304D02*
X228817Y168183D01*
G01X231752Y169491D02*
X230125Y171117D01*
G01X227579Y169421D02*
X228817Y172426D01*
X225811Y171189D01*
G01X226872Y171613D02*
X228003Y170481D01*
G01X225669Y171967D02*
X225280Y172002D01*
X224927Y172144D01*
X224573Y172427D01*
X224326Y172816D01*
X224220Y173204D01*
X224290Y173629D01*
X224538Y173947D01*
X224892Y174159D01*
X225245D01*
X225634Y174053D01*
X225917Y173841D01*
X226129Y173558D01*
X226306Y173098D01*
X227119Y174124D01*
X226164Y175078D01*
G01X236529Y-8229D02*
X238721Y-6037D01*
X238070Y-5386D01*
X237744Y-5279D01*
X237326Y-5372D01*
X236979Y-5610D01*
X236741Y-5957D01*
X236657Y-6312D01*
X236792Y-6665D01*
X237442Y-7316D01*
G01X236128Y-3444D02*
X233936Y-5636D01*
G01X236751Y-4067D02*
X235504Y-2820D01*
G01X232837Y-2199D02*
X232838Y-1981D01*
X232940Y-1717D01*
X233141Y-1407D01*
X233415Y-1242D01*
X233669Y-1204D01*
X233968Y-1284D01*
X234700Y-2016D01*
X232508Y-4208D01*
X231614Y-3314D01*
X231570Y-2978D01*
X231681Y-2650D01*
X231882Y-2340D01*
X232192Y-2139D01*
X232574Y-2082D01*
X232837Y-2199D01*
X233677Y-3039D01*
G01X232026Y658D02*
X232170Y368D01*
X232150Y23D01*
X232039Y-305D01*
X231828Y-678D01*
X231526Y-1034D01*
X231170Y-1336D01*
X230797Y-1547D01*
X230469Y-1658D01*
X230124Y-1678D01*
X229834Y-1534D01*
X229690Y-1244D01*
X229710Y-899D01*
X229821Y-571D01*
X230032Y-197D01*
X230333Y158D01*
X230689Y460D01*
X231063Y671D01*
X231391Y782D01*
X231736Y802D01*
X232026Y658D01*
G01X241646Y14354D02*
X243768Y16475D01*
X242919Y17323D01*
X242530Y17500D01*
X242071Y17465D01*
X241717Y17253D01*
X241505Y16899D01*
X241470Y16510D01*
X241682Y16086D01*
X242530Y15237D01*
G01X240939Y19304D02*
X238817Y17183D01*
G01X241752Y18491D02*
X240125Y20117D01*
G01X235988Y20012D02*
X237402Y18598D01*
X239524Y20719D01*
X238110Y22133D01*
G01X237650Y20542D02*
X238498Y19694D01*
G01X237013Y22523D02*
Y22947D01*
X236871Y23301D01*
X236624Y23619D01*
X236200Y23902D01*
X235775Y23972D01*
X235493Y23831D01*
X235316Y23583D01*
X235280Y23265D01*
X235634Y22204D01*
X235705Y21639D01*
X235563Y21073D01*
X235316Y20684D01*
X233831Y22169D01*
G01X232451Y23549D02*
X234573Y25670D01*
Y24821D01*
G01X232876Y23124D02*
X232027Y23973D01*
G01X232000Y60000D02*
X235000D01*
Y61200D01*
X234850Y61600D01*
X234500Y61900D01*
X234100Y62000D01*
X233700Y61900D01*
X233400Y61650D01*
X233250Y61200D01*
Y60000D01*
G01X235000Y64001D02*
X232000D01*
G01X235000Y62851D02*
Y65151D01*
G01X232000Y65902D02*
X235000D01*
Y66902D01*
X234850Y67302D01*
X234650Y67602D01*
X234350Y67852D01*
X234000Y68052D01*
X233500Y68102D01*
X233000Y68052D01*
X232650Y67852D01*
X232350Y67602D01*
X232150Y67302D01*
X232000Y66902D01*
Y65902D01*
G01X232450Y68903D02*
X232200Y69203D01*
X232050Y69553D01*
X232000Y70003D01*
X232100Y70453D01*
X232300Y70803D01*
X232650Y71053D01*
X233050Y71103D01*
X233450Y71003D01*
X233700Y70753D01*
X233900Y70403D01*
X233950Y70053D01*
X233900Y69703D01*
X233700Y69253D01*
X235000Y69403D01*
Y70753D01*
G01X232500Y128500D02*
X235500D01*
Y129700D01*
X235350Y130100D01*
X235000Y130400D01*
X234600Y130500D01*
X234200Y130400D01*
X233900Y130150D01*
X233750Y129700D01*
Y128500D01*
G01X235500Y132501D02*
X232500D01*
G01X235500Y131351D02*
Y133651D01*
G01X232500Y136502D02*
Y134502D01*
X235500D01*
Y136502D01*
G01X234050Y135702D02*
Y134502D01*
G01X235500Y138503D02*
X235400Y138103D01*
X235150Y137803D01*
X234850Y137603D01*
X234450Y137453D01*
X234000Y137403D01*
X233550Y137453D01*
X233150Y137603D01*
X232850Y137803D01*
X232600Y138103D01*
X232500Y138503D01*
X232600Y138903D01*
X232850Y139203D01*
X233150Y139403D01*
X233550Y139553D01*
X234000Y139603D01*
X234450Y139553D01*
X234850Y139403D01*
X235150Y139203D01*
X235400Y138903D01*
X235500Y138503D01*
G01X241646Y153354D02*
X243768Y155475D01*
X242919Y156323D01*
X242530Y156500D01*
X242071Y156465D01*
X241717Y156253D01*
X241505Y155899D01*
X241470Y155510D01*
X241682Y155086D01*
X242530Y154237D01*
G01X240939Y158304D02*
X238817Y156183D01*
G01X241752Y157491D02*
X240125Y159117D01*
G01X237862Y161027D02*
X238180Y160921D01*
X238498Y160744D01*
X238781Y160461D01*
X238993Y160037D01*
X239064Y159613D01*
X239029Y159224D01*
X238817Y158729D01*
X238534Y158375D01*
X238145Y158128D01*
X237827Y158022D01*
X237402D01*
X237014Y158128D01*
X236695Y158305D01*
X236448Y158552D01*
X236271Y158870D01*
X236165Y159189D01*
X236130Y159507D01*
G01X236129Y160639D02*
Y161134D01*
X236058Y161487D01*
X235846Y161841D01*
X235528Y162018D01*
X235210Y162053D01*
X234856Y161982D01*
X234573Y161770D01*
X234397Y161523D01*
X234326Y161169D01*
X234361Y160780D01*
X234538Y160462D01*
X234892Y160250D01*
X235351Y160214D01*
X235811Y160391D01*
X236200Y160709D01*
X236589Y161240D01*
X236730Y161593D01*
X236801Y162018D01*
X236730Y162442D01*
X236518Y162725D01*
X236200Y162902D01*
X235846D01*
G01X240646Y165354D02*
X242768Y167475D01*
X241919Y168323D01*
X241530Y168500D01*
X241071Y168465D01*
X240717Y168253D01*
X240505Y167899D01*
X240470Y167510D01*
X240682Y167086D01*
X241530Y166237D01*
G01X239939Y170304D02*
X237817Y168183D01*
G01X240752Y169491D02*
X239125Y171117D01*
G01X236579Y169421D02*
X237817Y172426D01*
X234811Y171189D01*
G01X235872Y171613D02*
X237003Y170481D01*
G01X233149Y172851D02*
X235270Y174972D01*
X235058Y172144D01*
X233290Y173912D01*
G01X246429Y-8229D02*
X248621Y-6037D01*
X247970Y-5386D01*
X247644Y-5279D01*
X247226Y-5372D01*
X246879Y-5610D01*
X246641Y-5957D01*
X246557Y-6312D01*
X246692Y-6665D01*
X247342Y-7316D01*
G01X246028Y-3444D02*
X243836Y-5636D01*
G01X246651Y-4067D02*
X245404Y-2820D01*
G01X242737Y-2199D02*
X242738Y-1981D01*
X242840Y-1717D01*
X243041Y-1407D01*
X243315Y-1242D01*
X243569Y-1204D01*
X243868Y-1284D01*
X244600Y-2016D01*
X242408Y-4208D01*
X241514Y-3314D01*
X241470Y-2978D01*
X241581Y-2650D01*
X241782Y-2340D01*
X242092Y-2139D01*
X242474Y-2082D01*
X242737Y-2199D01*
X243577Y-3039D01*
G01X239734Y-1534D02*
X241926Y658D01*
X241813Y-105D01*
G01X240059Y-1859D02*
X239409Y-1209D01*
G01X250646Y14354D02*
X252768Y16475D01*
X251919Y17323D01*
X251530Y17500D01*
X251071Y17465D01*
X250717Y17253D01*
X250505Y16899D01*
X250470Y16510D01*
X250682Y16086D01*
X251530Y15237D01*
G01X249939Y19304D02*
X247817Y17183D01*
G01X250752Y18491D02*
X249125Y20117D01*
G01X244988Y20012D02*
X246402Y18598D01*
X248524Y20719D01*
X247110Y22133D01*
G01X246650Y20542D02*
X247498Y19694D01*
G01X246013Y22523D02*
Y22947D01*
X245871Y23301D01*
X245624Y23619D01*
X245200Y23902D01*
X244775Y23972D01*
X244493Y23831D01*
X244316Y23583D01*
X244280Y23265D01*
X244634Y22204D01*
X244705Y21639D01*
X244563Y21073D01*
X244316Y20684D01*
X242831Y22169D01*
G01X243891Y24645D02*
Y25069D01*
X243749Y25423D01*
X243502Y25741D01*
X243078Y26024D01*
X242653Y26094D01*
X242371Y25953D01*
X242194Y25705D01*
X242158Y25387D01*
X242512Y24326D01*
X242583Y23761D01*
X242441Y23195D01*
X242194Y22806D01*
X240709Y24291D01*
G01X246500Y46600D02*
X246250Y46300D01*
X245950Y46100D01*
X245600Y46000D01*
X245200Y46100D01*
X244900Y46300D01*
X244600Y46600D01*
X244500Y47000D01*
Y49000D01*
G01X243449Y47250D02*
X243099Y47600D01*
X242799Y47800D01*
X242399Y47900D01*
X242049Y47800D01*
X241799Y47600D01*
X241599Y47300D01*
X241549Y46950D01*
X241599Y46650D01*
X241799Y46350D01*
X242099Y46100D01*
X242449Y46000D01*
X242849Y46100D01*
X243199Y46400D01*
X243399Y46850D01*
X243449Y47350D01*
X243349Y48000D01*
X243199Y48350D01*
X242949Y48700D01*
X242599Y48950D01*
X242249Y49000D01*
X241899Y48900D01*
X241649Y48650D01*
G01X242500Y60000D02*
X245500D01*
Y61200D01*
X245350Y61600D01*
X245000Y61900D01*
X244600Y62000D01*
X244200Y61900D01*
X243900Y61650D01*
X243750Y61200D01*
Y60000D01*
G01X245500Y64001D02*
X242500D01*
G01X245500Y62851D02*
Y65151D01*
G01X242500Y65902D02*
X245500D01*
Y66902D01*
X245350Y67302D01*
X245150Y67602D01*
X244850Y67852D01*
X244500Y68052D01*
X244000Y68102D01*
X243500Y68052D01*
X243150Y67852D01*
X242850Y67602D01*
X242650Y67302D01*
X242500Y66902D01*
Y65902D01*
G01Y69903D02*
X243150Y70003D01*
X243700Y70153D01*
X244200Y70353D01*
X244750Y70603D01*
X245500Y71003D01*
Y69003D01*
G01X247700Y117500D02*
Y114500D01*
G01X248850Y117500D02*
X246550D01*
G01X245699Y114500D02*
Y117500D01*
X244499D01*
X244099Y117350D01*
X243799Y117000D01*
X243699Y116600D01*
X243799Y116200D01*
X244049Y115900D01*
X244499Y115750D01*
X245699D01*
G01X241698Y114500D02*
Y117500D01*
X242298Y116900D01*
G01Y114500D02*
X241098D01*
G01X248190Y122500D02*
G03I-3190J0D01*
G01X242500Y128500D02*
X245500D01*
Y129700D01*
X245350Y130100D01*
X245000Y130400D01*
X244600Y130500D01*
X244200Y130400D01*
X243900Y130150D01*
X243750Y129700D01*
Y128500D01*
G01X245500Y132501D02*
X242500D01*
G01X245500Y131351D02*
Y133651D01*
G01X245250Y136602D02*
X245400Y136302D01*
X245500Y135952D01*
Y135552D01*
X245350Y135102D01*
X245100Y134752D01*
X244800Y134502D01*
X244300Y134302D01*
X243850Y134252D01*
X243400Y134352D01*
X243100Y134502D01*
X242800Y134802D01*
X242600Y135152D01*
X242500Y135502D01*
Y135852D01*
X242600Y136202D01*
X242750Y136502D01*
X242950Y136752D01*
G01X242500Y138503D02*
X245500D01*
X244900Y137903D01*
G01X242500D02*
Y139103D01*
G01X251646Y153354D02*
X253768Y155475D01*
X252919Y156323D01*
X252530Y156500D01*
X252071Y156465D01*
X251717Y156253D01*
X251505Y155899D01*
X251470Y155510D01*
X251682Y155086D01*
X252530Y154237D01*
G01X250939Y158304D02*
X248817Y156183D01*
G01X251752Y157491D02*
X250125Y159117D01*
G01X247862Y161027D02*
X248180Y160921D01*
X248498Y160744D01*
X248781Y160461D01*
X248993Y160037D01*
X249064Y159613D01*
X249029Y159224D01*
X248817Y158729D01*
X248534Y158375D01*
X248145Y158128D01*
X247827Y158022D01*
X247402D01*
X247014Y158128D01*
X246695Y158305D01*
X246448Y158552D01*
X246271Y158870D01*
X246165Y159189D01*
X246130Y159507D01*
G01X244149Y160851D02*
X246270Y162972D01*
X246058Y160144D01*
X244290Y161912D01*
G01X251646Y165354D02*
X253768Y167475D01*
X252919Y168323D01*
X252530Y168500D01*
X252071Y168465D01*
X251717Y168253D01*
X251505Y167899D01*
X251470Y167510D01*
X251682Y167086D01*
X252530Y166237D01*
G01X250939Y170304D02*
X248817Y168183D01*
G01X251752Y169491D02*
X250125Y171117D01*
G01X247579Y169421D02*
X248817Y172426D01*
X245811Y171189D01*
G01X246872Y171613D02*
X248003Y170481D01*
G01X244573Y172427D02*
X246695Y174548D01*
Y173699D01*
G01X244998Y172002D02*
X244149Y172851D01*
G01X244891Y175645D02*
Y176069D01*
X244749Y176423D01*
X244502Y176741D01*
X244078Y177024D01*
X243653Y177094D01*
X243371Y176953D01*
X243194Y176705D01*
X243158Y176387D01*
X243512Y175326D01*
X243583Y174761D01*
X243441Y174195D01*
X243194Y173806D01*
X241709Y175291D01*
G01X244500Y186600D02*
X244250Y186300D01*
X243950Y186100D01*
X243600Y186000D01*
X243200Y186100D01*
X242900Y186300D01*
X242600Y186600D01*
X242500Y187000D01*
Y189000D01*
G01X240499Y186000D02*
Y189000D01*
X241099Y188400D01*
G01Y186000D02*
X239899D01*
G01X256629Y-8229D02*
X258821Y-6037D01*
X258170Y-5386D01*
X257844Y-5279D01*
X257426Y-5372D01*
X257079Y-5610D01*
X256841Y-5957D01*
X256757Y-6312D01*
X256892Y-6665D01*
X257542Y-7316D01*
G01X256228Y-3444D02*
X254036Y-5636D01*
G01X256851Y-4067D02*
X255604Y-2820D01*
G01X252937Y-2199D02*
X252938Y-1981D01*
X253040Y-1717D01*
X253241Y-1407D01*
X253515Y-1242D01*
X253769Y-1204D01*
X254068Y-1284D01*
X254800Y-2016D01*
X252608Y-4208D01*
X251714Y-3314D01*
X251670Y-2978D01*
X251781Y-2650D01*
X251982Y-2340D01*
X252292Y-2139D01*
X252674Y-2082D01*
X252937Y-2199D01*
X253777Y-3039D01*
G01X252276Y-222D02*
X252332Y160D01*
X252252Y459D01*
X252072Y712D01*
X251728Y910D01*
X251355Y917D01*
X251082Y753D01*
X250890Y506D01*
X250815Y215D01*
X250992Y-692D01*
X250980Y-1192D01*
X250778Y-1720D01*
X250503Y-2103D01*
X249365Y-965D01*
G01X254500Y6100D02*
X254250Y5800D01*
X253950Y5600D01*
X253600Y5500D01*
X253200Y5600D01*
X252900Y5800D01*
X252600Y6100D01*
X252500Y6500D01*
Y8500D01*
G01X249899Y5500D02*
Y8500D01*
X251749Y6350D01*
X249249D01*
G01X260646Y14354D02*
X262768Y16475D01*
X261919Y17323D01*
X261530Y17500D01*
X261071Y17465D01*
X260717Y17253D01*
X260505Y16899D01*
X260470Y16510D01*
X260682Y16086D01*
X261530Y15237D01*
G01X259939Y19304D02*
X257817Y17183D01*
G01X260752Y18491D02*
X259125Y20117D01*
G01X254988Y20012D02*
X256402Y18598D01*
X258524Y20719D01*
X257110Y22133D01*
G01X256650Y20542D02*
X257498Y19694D01*
G01X256013Y22523D02*
Y22947D01*
X255871Y23301D01*
X255624Y23619D01*
X255200Y23902D01*
X254775Y23972D01*
X254493Y23831D01*
X254316Y23583D01*
X254280Y23265D01*
X254634Y22204D01*
X254705Y21639D01*
X254563Y21073D01*
X254316Y20684D01*
X252831Y22169D01*
G01X252653Y23195D02*
X252194Y23160D01*
X251770Y23301D01*
X251416Y23584D01*
X251168Y23902D01*
X251062Y24362D01*
X251098Y24751D01*
X251275Y24998D01*
X251593Y25175D01*
X252017Y25104D01*
X252335Y24928D01*
X252653Y24609D01*
G01X252335Y24928D02*
X252229Y25246D01*
Y25599D01*
X252371Y25882D01*
X252653Y26024D01*
X253007Y26023D01*
X253431Y25811D01*
X253714Y25458D01*
X253891Y24998D01*
G01X259502Y31500D02*
Y34500D01*
X258302D01*
X257902Y34350D01*
X257602Y34000D01*
X257502Y33600D01*
X257602Y33200D01*
X257852Y32900D01*
X258302Y32750D01*
X259502D01*
G01X256601Y32100D02*
X256301Y31750D01*
X255901Y31550D01*
X255451Y31500D01*
X255051Y31550D01*
X254651Y31800D01*
X254401Y32100D01*
X254351Y32400D01*
X254451Y32750D01*
X254801Y33000D01*
X255151Y33100D01*
X255601D01*
G01X255151D02*
X254851Y33250D01*
X254601Y33500D01*
X254501Y33800D01*
X254601Y34100D01*
X254851Y34350D01*
X255301Y34500D01*
X255751Y34450D01*
X256201Y34250D01*
G01X253750Y34500D02*
X252500Y31500D01*
X251250Y34500D01*
G01X250599Y32100D02*
X250299Y31750D01*
X249899Y31550D01*
X249449Y31500D01*
X249049Y31550D01*
X248649Y31800D01*
X248399Y32100D01*
X248349Y32400D01*
X248449Y32750D01*
X248799Y33000D01*
X249149Y33100D01*
X249599D01*
G01X249149D02*
X248849Y33250D01*
X248599Y33500D01*
X248499Y33800D01*
X248599Y34100D01*
X248849Y34350D01*
X249299Y34500D01*
X249749Y34450D01*
X250199Y34250D01*
G01X252500Y60000D02*
X255500D01*
Y61200D01*
X255350Y61600D01*
X255000Y61900D01*
X254600Y62000D01*
X254200Y61900D01*
X253900Y61650D01*
X253750Y61200D01*
Y60000D01*
G01X255500Y64001D02*
X252500D01*
G01X255500Y62851D02*
Y65151D01*
G01X252500Y65902D02*
X255500D01*
Y66902D01*
X255350Y67302D01*
X255150Y67602D01*
X254850Y67852D01*
X254500Y68052D01*
X254000Y68102D01*
X253500Y68052D01*
X253150Y67852D01*
X252850Y67602D01*
X252650Y67302D01*
X252500Y66902D01*
Y65902D01*
G01X253750Y69053D02*
X254100Y69403D01*
X254300Y69703D01*
X254400Y70103D01*
X254300Y70453D01*
X254100Y70703D01*
X253800Y70903D01*
X253450Y70953D01*
X253150Y70903D01*
X252850Y70703D01*
X252600Y70403D01*
X252500Y70053D01*
X252600Y69653D01*
X252900Y69303D01*
X253350Y69103D01*
X253850Y69053D01*
X254500Y69153D01*
X254850Y69303D01*
X255200Y69553D01*
X255450Y69903D01*
X255500Y70253D01*
X255400Y70603D01*
X255150Y70853D01*
G01X252500Y128500D02*
X255500D01*
Y129700D01*
X255350Y130100D01*
X255000Y130400D01*
X254600Y130500D01*
X254200Y130400D01*
X253900Y130150D01*
X253750Y129700D01*
Y128500D01*
G01X255500Y132501D02*
X252500D01*
G01X255500Y131351D02*
Y133651D01*
G01X255250Y136602D02*
X255400Y136302D01*
X255500Y135952D01*
Y135552D01*
X255350Y135102D01*
X255100Y134752D01*
X254800Y134502D01*
X254300Y134302D01*
X253850Y134252D01*
X253400Y134352D01*
X253100Y134502D01*
X252800Y134802D01*
X252600Y135152D01*
X252500Y135502D01*
Y135852D01*
X252600Y136202D01*
X252750Y136502D01*
X252950Y136752D01*
G01X255000Y137553D02*
X255300Y137853D01*
X255450Y138203D01*
X255500Y138603D01*
X255400Y139103D01*
X255150Y139453D01*
X254850Y139553D01*
X254550Y139503D01*
X254300Y139303D01*
X253800Y138303D01*
X253450Y137853D01*
X252950Y137553D01*
X252500Y137453D01*
Y139553D01*
G01X263000Y117500D02*
Y114500D01*
G01X264150Y117500D02*
X261850D01*
G01X260999Y114500D02*
Y117500D01*
X259799D01*
X259399Y117350D01*
X259099Y117000D01*
X258999Y116600D01*
X259099Y116200D01*
X259349Y115900D01*
X259799Y115750D01*
X260999D01*
G01X257948Y117000D02*
X257648Y117300D01*
X257298Y117450D01*
X256898Y117500D01*
X256398Y117400D01*
X256048Y117150D01*
X255948Y116850D01*
X255998Y116550D01*
X256198Y116300D01*
X257198Y115800D01*
X257648Y115450D01*
X257948Y114950D01*
X258048Y114500D01*
X255948D01*
G01X262690Y122500D02*
G03I-3190J0D01*
G01X262646Y153354D02*
X264768Y155475D01*
X263919Y156323D01*
X263530Y156500D01*
X263071Y156465D01*
X262717Y156253D01*
X262505Y155899D01*
X262470Y155510D01*
X262682Y155086D01*
X263530Y154237D01*
G01X261939Y158304D02*
X259817Y156183D01*
G01X262752Y157491D02*
X261125Y159117D01*
G01X258862Y161027D02*
X259180Y160921D01*
X259498Y160744D01*
X259781Y160461D01*
X259993Y160037D01*
X260064Y159613D01*
X260029Y159224D01*
X259817Y158729D01*
X259534Y158375D01*
X259145Y158128D01*
X258827Y158022D01*
X258402D01*
X258014Y158128D01*
X257695Y158305D01*
X257448Y158552D01*
X257271Y158870D01*
X257165Y159189D01*
X257130Y159507D01*
G01X257695Y162548D02*
X257907Y162194D01*
X257942Y161806D01*
X257871Y161452D01*
X257695Y161063D01*
X257412Y160709D01*
X257058Y160427D01*
X256669Y160250D01*
X256316Y160179D01*
X255927Y160214D01*
X255573Y160427D01*
X255361Y160780D01*
X255326Y161169D01*
X255397Y161523D01*
X255573Y161912D01*
X255856Y162265D01*
X256210Y162548D01*
X256599Y162725D01*
X256952Y162795D01*
X257341Y162760D01*
X257695Y162548D01*
G01X261646Y165354D02*
X263768Y167475D01*
X262919Y168323D01*
X262530Y168500D01*
X262071Y168465D01*
X261717Y168253D01*
X261505Y167899D01*
X261470Y167510D01*
X261682Y167086D01*
X262530Y166237D01*
G01X260939Y170304D02*
X258817Y168183D01*
G01X261752Y169491D02*
X260125Y171117D01*
G01X257473Y169527D02*
X259594Y171648D01*
X258887Y172355D01*
X258498Y172532D01*
X258145Y172603D01*
X257756Y172567D01*
X257367Y172461D01*
X256978Y172143D01*
X256660Y171754D01*
X256554Y171365D01*
X256519Y170976D01*
X256589Y170623D01*
X256766Y170234D01*
X257473Y169527D01*
G01X255775Y172073D02*
X255316Y172038D01*
X254892Y172179D01*
X254538Y172462D01*
X254290Y172780D01*
X254184Y173240D01*
X254220Y173629D01*
X254397Y173876D01*
X254715Y174053D01*
X255139Y173982D01*
X255457Y173806D01*
X255775Y173487D01*
G01X255457Y173806D02*
X255351Y174124D01*
Y174477D01*
X255493Y174760D01*
X255775Y174902D01*
X256129Y174901D01*
X256553Y174689D01*
X256836Y174336D01*
X257013Y173876D01*
G01X266629Y-8229D02*
X268821Y-6037D01*
X268170Y-5386D01*
X267844Y-5279D01*
X267426Y-5372D01*
X267079Y-5610D01*
X266841Y-5957D01*
X266757Y-6312D01*
X266892Y-6665D01*
X267542Y-7316D01*
G01X266228Y-3444D02*
X264036Y-5636D01*
G01X266851Y-4067D02*
X265604Y-2820D01*
G01X262937Y-2199D02*
X262938Y-1981D01*
X263040Y-1717D01*
X263241Y-1407D01*
X263515Y-1242D01*
X263769Y-1204D01*
X264068Y-1284D01*
X264800Y-2016D01*
X262608Y-4208D01*
X261714Y-3314D01*
X261670Y-2978D01*
X261781Y-2650D01*
X261982Y-2340D01*
X262292Y-2139D01*
X262674Y-2082D01*
X262937Y-2199D01*
X263777Y-3039D01*
G01X260969Y-1692D02*
X260550Y-1785D01*
X260187Y-1714D01*
X259907Y-1507D01*
X259726Y-1253D01*
X259692Y-854D01*
X259776Y-499D01*
X259968Y-253D01*
X260278Y-51D01*
X260650Y-58D01*
X260913Y-175D01*
X261157Y-419D01*
G01X260913Y-175D02*
X260860Y97D01*
X260907Y415D01*
X261072Y689D01*
X261346Y854D01*
X261664Y901D01*
X262017Y767D01*
X262225Y486D01*
X262323Y96D01*
G01X267340Y40860D02*
Y37860D01*
G01X268490Y40860D02*
X266190D01*
G01X265339Y37860D02*
Y40860D01*
X264139D01*
X263739Y40710D01*
X263439Y40360D01*
X263339Y39960D01*
X263439Y39560D01*
X263689Y39260D01*
X264139Y39110D01*
X265339D01*
G01X261338Y37860D02*
X260988Y37910D01*
X260588Y38060D01*
X260338Y38310D01*
X260238Y38660D01*
X260338Y39010D01*
X260638Y39310D01*
X261088Y39460D01*
X261588D01*
X261888Y39560D01*
X262138Y39810D01*
X262238Y40160D01*
X262088Y40510D01*
X261738Y40760D01*
X261338Y40860D01*
X260938Y40760D01*
X260588Y40510D01*
X260438Y40160D01*
X260538Y39810D01*
X260788Y39560D01*
X261088Y39460D01*
X261588D01*
X262038Y39310D01*
X262338Y39010D01*
X262438Y38660D01*
X262338Y38310D01*
X262088Y38060D01*
X261688Y37910D01*
X261338Y37860D01*
G01X271646Y14354D02*
X273768Y16475D01*
X272919Y17323D01*
X272530Y17500D01*
X272071Y17465D01*
X271717Y17253D01*
X271505Y16899D01*
X271470Y16510D01*
X271682Y16086D01*
X272530Y15237D01*
G01X270939Y19304D02*
X268817Y17183D01*
G01X271752Y18491D02*
X270125Y20117D01*
G01X265988Y20012D02*
X267402Y18598D01*
X269524Y20719D01*
X268110Y22133D01*
G01X267650Y20542D02*
X268498Y19694D01*
G01X266695Y23548D02*
X266907Y23194D01*
X266942Y22806D01*
X266871Y22452D01*
X266695Y22063D01*
X266412Y21709D01*
X266058Y21427D01*
X265669Y21250D01*
X265316Y21179D01*
X264927Y21214D01*
X264573Y21427D01*
X264361Y21780D01*
X264326Y22169D01*
X264397Y22523D01*
X264573Y22912D01*
X264856Y23265D01*
X265210Y23548D01*
X265599Y23725D01*
X265952Y23795D01*
X266341Y23760D01*
X266695Y23548D01*
G01X267695Y33000D02*
G03I-3195J0D01*
G01X263100Y59900D02*
X262750Y60200D01*
X262550Y60600D01*
X262500Y61050D01*
X262550Y61450D01*
X262800Y61850D01*
X263100Y62100D01*
X263400Y62150D01*
X263750Y62050D01*
X264000Y61700D01*
X264100Y61350D01*
Y60900D01*
G01Y61350D02*
X264250Y61650D01*
X264500Y61900D01*
X264800Y62000D01*
X265100Y61900D01*
X265350Y61650D01*
X265500Y61200D01*
X265450Y60750D01*
X265250Y60300D01*
G01X265500Y62751D02*
X262500Y64001D01*
X265500Y65251D01*
G01X263100Y65902D02*
X262750Y66202D01*
X262550Y66602D01*
X262500Y67052D01*
X262550Y67452D01*
X262800Y67852D01*
X263100Y68102D01*
X263400Y68152D01*
X263750Y68052D01*
X264000Y67702D01*
X264100Y67352D01*
Y66902D01*
G01Y67352D02*
X264250Y67652D01*
X264500Y67902D01*
X264800Y68002D01*
X265100Y67902D01*
X265350Y67652D01*
X265500Y67202D01*
X265450Y66752D01*
X265250Y66302D01*
G01X262950Y129900D02*
X262700Y130200D01*
X262550Y130550D01*
X262500Y131000D01*
X262600Y131450D01*
X262800Y131800D01*
X263150Y132050D01*
X263550Y132100D01*
X263950Y132000D01*
X264200Y131750D01*
X264400Y131400D01*
X264450Y131050D01*
X264400Y130700D01*
X264200Y130250D01*
X265500Y130400D01*
Y131750D01*
G01Y132751D02*
X262500Y134001D01*
X265500Y135251D01*
G01Y137002D02*
X265400Y136602D01*
X265150Y136302D01*
X264850Y136102D01*
X264450Y135952D01*
X264000Y135902D01*
X263550Y135952D01*
X263150Y136102D01*
X262850Y136302D01*
X262600Y136602D01*
X262500Y137002D01*
X262600Y137402D01*
X262850Y137702D01*
X263150Y137902D01*
X263550Y138052D01*
X264000Y138102D01*
X264450Y138052D01*
X264850Y137902D01*
X265150Y137702D01*
X265400Y137402D01*
X265500Y137002D01*
G01X273646Y153354D02*
X275768Y155475D01*
X274919Y156323D01*
X274530Y156500D01*
X274071Y156465D01*
X273717Y156253D01*
X273505Y155899D01*
X273470Y155510D01*
X273682Y155086D01*
X274530Y154237D01*
G01X272939Y158304D02*
X270817Y156183D01*
G01X273752Y157491D02*
X272125Y159117D01*
G01X269544Y159719D02*
X269509Y159966D01*
X269579Y160249D01*
X269756Y160567D01*
X270039Y160709D01*
X270322D01*
X270675Y160567D01*
X271630Y159613D01*
X269509Y157491D01*
X268342Y158658D01*
X268236Y159047D01*
X268306Y159401D01*
X268483Y159719D01*
X268801Y159896D01*
X269226D01*
X269544Y159719D01*
X270640Y158623D01*
G01X266573Y160427D02*
X268695Y162548D01*
Y161699D01*
G01X266998Y160002D02*
X266149Y160851D01*
G01X265300Y162195D02*
X264876Y162266D01*
X264522Y162478D01*
X264310Y162831D01*
X264275Y163291D01*
X264416Y163786D01*
X264663Y164175D01*
X265052Y164564D01*
X265441Y164811D01*
X265901Y164917D01*
X266254Y164847D01*
X266573Y164670D01*
X266785Y164316D01*
X266855Y163963D01*
X266785Y163609D01*
X266573Y163256D01*
X266254Y163079D01*
X265830Y163008D01*
X265477Y163079D01*
X265194Y163291D01*
X264982Y163645D01*
X264946Y164034D01*
X265052Y164564D01*
G01X272646Y165354D02*
X274768Y167475D01*
X273919Y168323D01*
X273530Y168500D01*
X273071Y168465D01*
X272717Y168253D01*
X272505Y167899D01*
X272470Y167510D01*
X272682Y167086D01*
X273530Y166237D01*
G01X271939Y170304D02*
X269817Y168183D01*
G01X272752Y169491D02*
X271125Y171117D01*
G01X268579Y169421D02*
X269817Y172426D01*
X266811Y171189D01*
G01X267872Y171613D02*
X269003Y170481D01*
G01X268013Y173523D02*
Y173947D01*
X267871Y174301D01*
X267624Y174619D01*
X267200Y174902D01*
X266775Y174972D01*
X266493Y174831D01*
X266316Y174583D01*
X266280Y174265D01*
X266634Y173204D01*
X266705Y172639D01*
X266563Y172073D01*
X266316Y171684D01*
X264831Y173169D01*
G01X276629Y-8229D02*
X278821Y-6037D01*
X278170Y-5386D01*
X277844Y-5279D01*
X277426Y-5372D01*
X277079Y-5610D01*
X276841Y-5957D01*
X276757Y-6312D01*
X276892Y-6665D01*
X277542Y-7316D01*
G01X276228Y-3444D02*
X274036Y-5636D01*
G01X276851Y-4067D02*
X275604Y-2820D01*
G01X273398Y-979D02*
X273670Y-1032D01*
X273933Y-1149D01*
X274150Y-1366D01*
X274284Y-1719D01*
X274291Y-2092D01*
X274207Y-2446D01*
X273951Y-2920D01*
X273649Y-3276D01*
X273266Y-3551D01*
X272965Y-3689D01*
X272583Y-3745D01*
X272248Y-3701D01*
X271985Y-3585D01*
X271795Y-3395D01*
X271678Y-3132D01*
X271625Y-2860D01*
X271636Y-2578D01*
G01X272276Y-222D02*
X272332Y160D01*
X272252Y459D01*
X272072Y712D01*
X271728Y910D01*
X271355Y917D01*
X271082Y753D01*
X270890Y506D01*
X270815Y215D01*
X270992Y-692D01*
X270980Y-1192D01*
X270778Y-1720D01*
X270503Y-2103D01*
X269365Y-965D01*
G01X281646Y14354D02*
X283768Y16475D01*
X282919Y17323D01*
X282530Y17500D01*
X282071Y17465D01*
X281717Y17253D01*
X281505Y16899D01*
X281470Y16510D01*
X281682Y16086D01*
X282530Y15237D01*
G01X280939Y19304D02*
X278817Y17183D01*
G01X281752Y18491D02*
X280125Y20117D01*
G01X275988Y20012D02*
X277402Y18598D01*
X279524Y20719D01*
X278110Y22133D01*
G01X277650Y20542D02*
X278498Y19694D01*
G01X275775Y21073D02*
X275316Y21038D01*
X274892Y21179D01*
X274538Y21462D01*
X274290Y21780D01*
X274184Y22240D01*
X274220Y22629D01*
X274397Y22876D01*
X274715Y23053D01*
X275139Y22982D01*
X275457Y22806D01*
X275775Y22487D01*
G01X275457Y22806D02*
X275351Y23124D01*
Y23477D01*
X275493Y23760D01*
X275775Y23902D01*
X276129Y23901D01*
X276553Y23689D01*
X276836Y23336D01*
X277013Y22876D01*
G01X274573Y25670D02*
X274785Y25316D01*
X274820Y24928D01*
X274749Y24574D01*
X274573Y24185D01*
X274290Y23831D01*
X273936Y23549D01*
X273547Y23372D01*
X273194Y23301D01*
X272805Y23336D01*
X272451Y23549D01*
X272239Y23902D01*
X272204Y24291D01*
X272275Y24645D01*
X272451Y25034D01*
X272734Y25387D01*
X273088Y25670D01*
X273477Y25847D01*
X273830Y25917D01*
X274219Y25882D01*
X274573Y25670D01*
G01X274500Y61300D02*
Y62300D01*
X273600D01*
X273300Y62000D01*
X273100Y61650D01*
X273000Y61150D01*
X273100Y60650D01*
X273300Y60300D01*
X273600Y60000D01*
X273950Y59800D01*
X274350Y59700D01*
X274700D01*
X275000Y59800D01*
X275350Y60000D01*
X275650Y60300D01*
X275850Y60600D01*
X276000Y61000D01*
Y61350D01*
X275900Y61750D01*
X275700Y62050D01*
G01X273000Y62851D02*
X276000D01*
X273000Y65151D01*
X276000D01*
G01X273000Y65902D02*
X276000D01*
Y66902D01*
X275850Y67302D01*
X275650Y67602D01*
X275350Y67852D01*
X275000Y68052D01*
X274500Y68102D01*
X274000Y68052D01*
X273650Y67852D01*
X273350Y67602D01*
X273150Y67302D01*
X273000Y66902D01*
Y65902D01*
G01X274500Y131300D02*
Y132300D01*
X273600D01*
X273300Y132000D01*
X273100Y131650D01*
X273000Y131150D01*
X273100Y130650D01*
X273300Y130300D01*
X273600Y130000D01*
X273950Y129800D01*
X274350Y129700D01*
X274700D01*
X275000Y129800D01*
X275350Y130000D01*
X275650Y130300D01*
X275850Y130600D01*
X276000Y131000D01*
Y131350D01*
X275900Y131750D01*
X275700Y132050D01*
G01X273000Y132851D02*
X276000D01*
X273000Y135151D01*
X276000D01*
G01X273000Y135902D02*
X276000D01*
Y136902D01*
X275850Y137302D01*
X275650Y137602D01*
X275350Y137852D01*
X275000Y138052D01*
X274500Y138102D01*
X274000Y138052D01*
X273650Y137852D01*
X273350Y137602D01*
X273150Y137302D01*
X273000Y136902D01*
Y135902D01*
G01X282646Y165354D02*
X284768Y167475D01*
X283919Y168323D01*
X283530Y168500D01*
X283071Y168465D01*
X282717Y168253D01*
X282505Y167899D01*
X282470Y167510D01*
X282682Y167086D01*
X283530Y166237D01*
G01X281939Y170304D02*
X279817Y168183D01*
G01X282752Y169491D02*
X281125Y171117D01*
G01X278579Y169421D02*
X279817Y172426D01*
X276811Y171189D01*
G01X277872Y171613D02*
X279003Y170481D01*
G01X275573Y172427D02*
X277695Y174548D01*
Y173699D01*
G01X275998Y172002D02*
X275149Y172851D01*
G01X285646Y153354D02*
X287768Y155475D01*
X286919Y156323D01*
X286530Y156500D01*
X286071Y156465D01*
X285717Y156253D01*
X285505Y155899D01*
X285470Y155510D01*
X285682Y155086D01*
X286530Y154237D01*
G01X284939Y158304D02*
X282817Y156183D01*
G01X285752Y157491D02*
X284125Y159117D01*
G01X281544Y159719D02*
X281509Y159966D01*
X281579Y160249D01*
X281756Y160567D01*
X282039Y160709D01*
X282322D01*
X282675Y160567D01*
X283630Y159613D01*
X281509Y157491D01*
X280342Y158658D01*
X280236Y159047D01*
X280306Y159401D01*
X280483Y159719D01*
X280801Y159896D01*
X281226D01*
X281544Y159719D01*
X282640Y158623D01*
G01X278573Y160427D02*
X280695Y162548D01*
Y161699D01*
G01X278998Y160002D02*
X278149Y160851D01*
G01X276451Y162549D02*
X276239Y162831D01*
X276062Y163220D01*
Y163574D01*
X276239Y163892D01*
X276557Y164069D01*
X276982D01*
X277406Y163857D01*
X277759Y163503D01*
X278042Y163362D01*
X278396D01*
X278714Y163539D01*
X278855Y163892D01*
X278785Y164316D01*
X278573Y164670D01*
X278219Y164882D01*
X277795Y164953D01*
X277441Y164811D01*
X277265Y164493D01*
Y164140D01*
X277406Y163857D01*
X277759Y163503D01*
X277972Y163079D01*
Y162655D01*
X277795Y162337D01*
X277477Y162160D01*
X277123D01*
X276734Y162337D01*
X276451Y162549D01*
G01X287229Y-7729D02*
X289421Y-5537D01*
X288770Y-4886D01*
X288444Y-4779D01*
X288026Y-4872D01*
X287679Y-5110D01*
X287441Y-5457D01*
X287357Y-5812D01*
X287492Y-6165D01*
X288142Y-6816D01*
G01X286828Y-2944D02*
X284636Y-5136D01*
G01X287451Y-3567D02*
X286204Y-2320D01*
G01X283998Y-479D02*
X284270Y-532D01*
X284533Y-649D01*
X284750Y-866D01*
X284884Y-1219D01*
X284891Y-1592D01*
X284807Y-1946D01*
X284551Y-2420D01*
X284249Y-2776D01*
X283866Y-3051D01*
X283565Y-3189D01*
X283183Y-3245D01*
X282848Y-3201D01*
X282585Y-3085D01*
X282395Y-2895D01*
X282278Y-2632D01*
X282225Y-2360D01*
X282236Y-2078D01*
G01X280534Y-1034D02*
X282726Y1158D01*
X282613Y395D01*
G01X280859Y-1359D02*
X280209Y-709D01*
G01X282000Y52500D02*
X281650Y52550D01*
X281250Y52700D01*
X281000Y52950D01*
X280900Y53300D01*
X281000Y53650D01*
X281300Y53950D01*
X281750Y54100D01*
X282250D01*
X282550Y54200D01*
X282800Y54450D01*
X282900Y54800D01*
X282750Y55150D01*
X282400Y55400D01*
X282000Y55500D01*
X281600Y55400D01*
X281250Y55150D01*
X281100Y54800D01*
X281200Y54450D01*
X281450Y54200D01*
X281750Y54100D01*
X282250D01*
X282700Y53950D01*
X283000Y53650D01*
X283100Y53300D01*
X283000Y52950D01*
X282750Y52700D01*
X282350Y52550D01*
X282000Y52500D01*
G01X281500Y143000D02*
X281150Y143050D01*
X280750Y143200D01*
X280500Y143450D01*
X280400Y143800D01*
X280500Y144150D01*
X280800Y144450D01*
X281250Y144600D01*
X281750D01*
X282050Y144700D01*
X282300Y144950D01*
X282400Y145300D01*
X282250Y145650D01*
X281900Y145900D01*
X281500Y146000D01*
X281100Y145900D01*
X280750Y145650D01*
X280600Y145300D01*
X280700Y144950D01*
X280950Y144700D01*
X281250Y144600D01*
X281750D01*
X282200Y144450D01*
X282500Y144150D01*
X282600Y143800D01*
X282500Y143450D01*
X282250Y143200D01*
X281850Y143050D01*
X281500Y143000D01*
G01X282500Y179500D02*
Y182500D01*
X283100Y181900D01*
G01Y179500D02*
X281900D01*
G01X283450Y193500D02*
X283150Y193800D01*
X282800Y193950D01*
X282400Y194000D01*
X281900Y193900D01*
X281550Y193650D01*
X281450Y193350D01*
X281500Y193050D01*
X281700Y192800D01*
X282700Y192300D01*
X283150Y191950D01*
X283450Y191450D01*
X283550Y191000D01*
X281450D01*
G01X290000Y500D02*
Y3500D01*
X290600Y2900D01*
G01Y500D02*
X289400D01*
G01X287949Y3000D02*
X287649Y3300D01*
X287299Y3450D01*
X286899Y3500D01*
X286399Y3400D01*
X286049Y3150D01*
X285949Y2850D01*
X285999Y2550D01*
X286199Y2300D01*
X287199Y1800D01*
X287649Y1450D01*
X287949Y950D01*
X288049Y500D01*
X285949D01*
G01X290000Y10500D02*
Y13500D01*
X290600Y12900D01*
G01Y10500D02*
X289400D01*
G01X286999D02*
Y13500D01*
X287599Y12900D01*
G01Y10500D02*
X286399D01*
G01X301695Y7000D02*
G03I-3195J0D01*
G01X295000Y59400D02*
X298000D01*
Y60400D01*
X297850Y60800D01*
X297650Y61100D01*
X297350Y61350D01*
X297000Y61550D01*
X296500Y61600D01*
X296000Y61550D01*
X295650Y61350D01*
X295350Y61100D01*
X295150Y60800D01*
X295000Y60400D01*
Y59400D01*
G01X295400Y62451D02*
X295150Y62851D01*
X295000Y63301D01*
Y63701D01*
X295150Y64101D01*
X295400Y64401D01*
X295750Y64551D01*
X296100Y64451D01*
X296400Y64201D01*
X296600Y63751D01*
X296700Y63151D01*
X296900Y62801D01*
X297250Y62651D01*
X297600Y62751D01*
X297850Y63001D01*
X298000Y63351D01*
Y63701D01*
X297900Y64051D01*
X297650Y64351D01*
G01X295000Y66502D02*
X298000D01*
X297400Y65902D01*
G01X295000D02*
Y67102D01*
G01X309840Y8860D02*
Y5860D01*
G01X310990Y8860D02*
X308690D01*
G01X307839Y5860D02*
Y8860D01*
X306639D01*
X306239Y8710D01*
X305939Y8360D01*
X305839Y7960D01*
X305939Y7560D01*
X306189Y7260D01*
X306639Y7110D01*
X307839D01*
G01X303938Y5860D02*
X303838Y6510D01*
X303688Y7060D01*
X303488Y7560D01*
X303238Y8110D01*
X302838Y8860D01*
X304838D01*
G01X309701Y12500D02*
X308701D01*
Y11600D01*
X309001Y11300D01*
X309351Y11100D01*
X309851Y11000D01*
X310351Y11100D01*
X310701Y11300D01*
X311001Y11600D01*
X311201Y11950D01*
X311301Y12350D01*
Y12700D01*
X311201Y13000D01*
X311001Y13350D01*
X310701Y13650D01*
X310401Y13850D01*
X310001Y14000D01*
X309651D01*
X309251Y13900D01*
X308951Y13700D01*
G01X308150Y11000D02*
Y14000D01*
X305850Y11000D01*
Y14000D01*
G01X305099Y11000D02*
Y14000D01*
X304099D01*
X303699Y13850D01*
X303399Y13650D01*
X303149Y13350D01*
X302949Y13000D01*
X302899Y12500D01*
X302949Y12000D01*
X303149Y11650D01*
X303399Y11350D01*
X303699Y11150D01*
X304099Y11000D01*
X305099D01*
G01X306500Y23000D02*
Y26000D01*
X307100Y25400D01*
G01Y23000D02*
X305900D01*
G01X307500Y101000D02*
Y104000D01*
X308100Y103400D01*
G01Y101000D02*
X306900D01*
G01X305449Y103500D02*
X305149Y103800D01*
X304799Y103950D01*
X304399Y104000D01*
X303899Y103900D01*
X303549Y103650D01*
X303449Y103350D01*
X303499Y103050D01*
X303699Y102800D01*
X304699Y102300D01*
X305149Y101950D01*
X305449Y101450D01*
X305549Y101000D01*
X303449D01*
G01X318601Y-4500D02*
Y-1500D01*
X317301Y-4000D01*
X316001Y-1500D01*
Y-4500D01*
G01X315350D02*
Y-1500D01*
G01X313250D02*
Y-4500D01*
G01Y-3000D02*
X315350D01*
G01X310699Y-4500D02*
Y-1500D01*
X312549Y-3650D01*
X310049D01*
G01X321641Y112207D02*
X321182Y112172D01*
X320758Y112313D01*
X320404Y112596D01*
X320156Y112914D01*
X320050Y113374D01*
X320086Y113763D01*
X320263Y114010D01*
X320581Y114187D01*
X321005Y114116D01*
X321323Y113940D01*
X321641Y113621D01*
G01X321323Y113940D02*
X321217Y114258D01*
Y114611D01*
X321359Y114894D01*
X321641Y115036D01*
X321995Y115035D01*
X322419Y114823D01*
X322702Y114470D01*
X322879Y114010D01*
G01X321323Y115920D02*
X318317Y114683D01*
X319555Y117688D01*
G01X317397Y116451D02*
X316938Y116416D01*
X316514Y116557D01*
X316160Y116840D01*
X315912Y117158D01*
X315806Y117618D01*
X315842Y118007D01*
X316019Y118254D01*
X316337Y118431D01*
X316761Y118360D01*
X317079Y118184D01*
X317397Y117865D01*
G01X317079Y118184D02*
X316973Y118502D01*
Y118855D01*
X317115Y119138D01*
X317397Y119280D01*
X317751Y119279D01*
X318175Y119067D01*
X318458Y118714D01*
X318635Y118254D01*
G01X322646Y129854D02*
X324768Y131975D01*
X323919Y132823D01*
X323530Y133000D01*
X323071Y132965D01*
X322717Y132753D01*
X322505Y132399D01*
X322470Y132010D01*
X322682Y131586D01*
X323530Y130737D01*
G01X321939Y134804D02*
X319817Y132683D01*
G01X322752Y133991D02*
X321125Y135617D01*
G01X318473Y134027D02*
X320594Y136148D01*
X319887Y136855D01*
X319498Y137032D01*
X319145Y137103D01*
X318756Y137067D01*
X318367Y136961D01*
X317978Y136643D01*
X317660Y136254D01*
X317554Y135865D01*
X317519Y135476D01*
X317589Y135123D01*
X317766Y134734D01*
X318473Y134027D01*
G01X316669Y136467D02*
X316280Y136502D01*
X315927Y136644D01*
X315573Y136927D01*
X315326Y137316D01*
X315220Y137704D01*
X315290Y138129D01*
X315538Y138447D01*
X315892Y138659D01*
X316245D01*
X316634Y138553D01*
X316917Y138341D01*
X317129Y138058D01*
X317306Y137598D01*
X318119Y138624D01*
X317164Y139578D01*
G01X322646Y139354D02*
X324768Y141475D01*
X323919Y142323D01*
X323530Y142500D01*
X323071Y142465D01*
X322717Y142253D01*
X322505Y141899D01*
X322470Y141510D01*
X322682Y141086D01*
X323530Y140237D01*
G01X321939Y144304D02*
X319817Y142183D01*
G01X322752Y143491D02*
X321125Y145117D01*
G01X318473Y143527D02*
X320594Y145648D01*
X319887Y146355D01*
X319498Y146532D01*
X319145Y146603D01*
X318756Y146567D01*
X318367Y146461D01*
X317978Y146143D01*
X317660Y145754D01*
X317554Y145365D01*
X317519Y144976D01*
X317589Y144623D01*
X317766Y144234D01*
X318473Y143527D01*
G01X315644Y146356D02*
X316033Y146886D01*
X316316Y147381D01*
X316528Y147876D01*
X316740Y148442D01*
X316988Y149255D01*
X318402Y147841D01*
G01X323146Y148854D02*
X325268Y150975D01*
X324419Y151823D01*
X324030Y152000D01*
X323571Y151965D01*
X323217Y151753D01*
X323005Y151399D01*
X322970Y151010D01*
X323182Y150586D01*
X324030Y149737D01*
G01X322439Y153804D02*
X320317Y151683D01*
G01X323252Y152991D02*
X321625Y154617D01*
G01X318973Y153027D02*
X321094Y155148D01*
X320387Y155855D01*
X319998Y156032D01*
X319645Y156103D01*
X319256Y156067D01*
X318867Y155961D01*
X318478Y155643D01*
X318160Y155254D01*
X318054Y154865D01*
X318019Y154476D01*
X318089Y154123D01*
X318266Y153734D01*
X318973Y153027D01*
G01X317629Y156139D02*
Y156634D01*
X317558Y156987D01*
X317346Y157341D01*
X317028Y157518D01*
X316710Y157553D01*
X316356Y157482D01*
X316073Y157270D01*
X315897Y157023D01*
X315826Y156669D01*
X315861Y156280D01*
X316038Y155962D01*
X316392Y155750D01*
X316851Y155714D01*
X317311Y155891D01*
X317700Y156209D01*
X318089Y156740D01*
X318230Y157093D01*
X318301Y157518D01*
X318230Y157942D01*
X318018Y158225D01*
X317700Y158402D01*
X317346D01*
G01X321101Y198550D02*
Y201550D01*
X319801Y199050D01*
X318501Y201550D01*
Y198550D01*
G01X317850D02*
Y201550D01*
G01X315750D02*
Y198550D01*
G01Y200050D02*
X317850D01*
G01X314749Y201050D02*
X314449Y201350D01*
X314099Y201500D01*
X313699Y201550D01*
X313199Y201450D01*
X312849Y201200D01*
X312749Y200900D01*
X312799Y200600D01*
X312999Y200350D01*
X313999Y199850D01*
X314449Y199500D01*
X314749Y199000D01*
X314849Y198550D01*
X312749D01*
G01X323288Y121833D02*
X322581Y122541D01*
X321944Y121904D01*
Y121480D01*
X322050Y121091D01*
X322333Y120667D01*
X322758Y120384D01*
X323146Y120278D01*
X323571D01*
X323960Y120384D01*
X324313Y120596D01*
X324561Y120843D01*
X324702Y121126D01*
X324808Y121515D01*
Y121940D01*
X324737Y122293D01*
X324561Y122682D01*
X324313Y122929D01*
X323960Y123142D01*
X323606Y123212D01*
G01X321131Y121869D02*
X323252Y123991D01*
X319504Y123496D01*
X321625Y125617D01*
G01X318973Y124027D02*
X321094Y126148D01*
X320387Y126855D01*
X319998Y127032D01*
X319645Y127103D01*
X319256Y127067D01*
X318867Y126961D01*
X318478Y126643D01*
X318160Y126254D01*
X318054Y125865D01*
X318019Y125476D01*
X318089Y125123D01*
X318266Y124734D01*
X318973Y124027D01*
G01X323646Y158854D02*
X325768Y160975D01*
X324919Y161823D01*
X324530Y162000D01*
X324071Y161965D01*
X323717Y161753D01*
X323505Y161399D01*
X323470Y161010D01*
X323682Y160586D01*
X324530Y159737D01*
G01X322939Y163804D02*
X320817Y161683D01*
G01X323752Y162991D02*
X322125Y164617D01*
G01X319473Y163027D02*
X321594Y165148D01*
X320887Y165855D01*
X320498Y166032D01*
X320145Y166103D01*
X319756Y166067D01*
X319367Y165961D01*
X318978Y165643D01*
X318660Y165254D01*
X318554Y164865D01*
X318519Y164476D01*
X318589Y164123D01*
X318766Y163734D01*
X319473Y163027D01*
G01X316149Y166351D02*
X318270Y168472D01*
X318058Y165644D01*
X316290Y167412D01*
G01X322280Y169126D02*
Y172126D01*
X322880Y171526D01*
G01Y169126D02*
X321680D01*
G01X329100Y107896D02*
Y110896D01*
X329700Y110296D01*
G01Y107896D02*
X328500D01*
G01X326099D02*
Y110896D01*
X326699Y110296D01*
G01Y107896D02*
X325499D01*
G01X335500Y140726D02*
X335250Y140426D01*
X334950Y140226D01*
X334600Y140126D01*
X334200Y140226D01*
X333900Y140426D01*
X333600Y140726D01*
X333500Y141126D01*
Y143126D01*
G01X331599Y140126D02*
X331499Y140776D01*
X331349Y141326D01*
X331149Y141826D01*
X330899Y142376D01*
X330499Y143126D01*
X332499D01*
G01X338000Y107626D02*
Y110626D01*
X338600Y110026D01*
G01Y107626D02*
X337400D01*
G01X335949Y110126D02*
X335649Y110426D01*
X335299Y110576D01*
X334899Y110626D01*
X334399Y110526D01*
X334049Y110276D01*
X333949Y109976D01*
X333999Y109676D01*
X334199Y109426D01*
X335199Y108926D01*
X335649Y108576D01*
X335949Y108076D01*
X336049Y107626D01*
X333949D01*
G01X339250Y-138100D02*
X338623Y-138300D01*
X338153Y-138800D01*
X337840Y-139400D01*
X337605Y-140200D01*
X337527Y-141100D01*
X337605Y-142000D01*
X337840Y-142800D01*
X338153Y-143400D01*
X338623Y-143900D01*
X339250Y-144100D01*
X339877Y-143900D01*
X340347Y-143400D01*
X340660Y-142800D01*
X340895Y-142000D01*
X340973Y-141100D01*
X340895Y-140200D01*
X340660Y-139400D01*
X340347Y-138800D01*
X339877Y-138300D01*
X339250Y-138100D01*
G01X344218Y-143400D02*
X344767Y-143900D01*
X345393Y-144100D01*
X346020Y-143900D01*
X346568Y-143300D01*
X346960Y-142400D01*
X347117Y-141500D01*
Y-140400D01*
X346960Y-139500D01*
X346568Y-138700D01*
X346098Y-138300D01*
X345550Y-138100D01*
X344923Y-138300D01*
X344453Y-138700D01*
X344140Y-139300D01*
X343983Y-140100D01*
X344140Y-140800D01*
X344532Y-141500D01*
X345002Y-141900D01*
X345550Y-142000D01*
X346177Y-141800D01*
X346647Y-141300D01*
X347117Y-140400D01*
G01X338925Y-135067D02*
X339392Y-135400D01*
X339917Y-135600D01*
X340383D01*
X340850Y-135400D01*
X341200Y-135067D01*
X341375Y-134600D01*
X341258Y-134133D01*
X340967Y-133733D01*
X340442Y-133467D01*
X339742Y-133333D01*
X339333Y-133067D01*
X339158Y-132600D01*
X339275Y-132133D01*
X339567Y-131800D01*
X339975Y-131600D01*
X340383D01*
X340792Y-131733D01*
X341142Y-132067D01*
G01X343725Y-135600D02*
Y-131600D01*
G01X346175D02*
Y-135600D01*
G01Y-133600D02*
X343725D01*
G01X350917Y-135600D02*
X348583D01*
Y-131600D01*
X350917D01*
G01X349983Y-133533D02*
X348583D01*
G01X355717Y-135600D02*
X353383D01*
Y-131600D01*
X355717D01*
G01X354783Y-133533D02*
X353383D01*
G01X359350Y-131600D02*
Y-135600D01*
G01X358008Y-131600D02*
X360692D01*
G01X338692Y-74600D02*
X340150Y-70600D01*
X341608Y-74600D01*
G01X341083Y-73200D02*
X339217D01*
G01X343667Y-70600D02*
Y-73467D01*
X343900Y-74067D01*
X344367Y-74467D01*
X344950Y-74600D01*
X345533Y-74467D01*
X346000Y-74067D01*
X346233Y-73467D01*
Y-70600D01*
G01X348525Y-74067D02*
X348992Y-74400D01*
X349517Y-74600D01*
X349983D01*
X350450Y-74400D01*
X350800Y-74067D01*
X350975Y-73600D01*
X350858Y-73133D01*
X350567Y-72733D01*
X350042Y-72467D01*
X349342Y-72333D01*
X348933Y-72067D01*
X348758Y-71600D01*
X348875Y-71133D01*
X349167Y-70800D01*
X349575Y-70600D01*
X349983D01*
X350392Y-70733D01*
X350742Y-71067D01*
G01X354550Y-70600D02*
Y-74600D01*
G01X353208Y-70600D02*
X355892D01*
G01X358650D02*
X360050D01*
G01X359350D02*
Y-74600D01*
G01X358650D02*
X360050D01*
G01X362808D02*
Y-70600D01*
X365492Y-74600D01*
Y-70600D01*
G01X368950Y-74733D02*
X368833Y-74667D01*
Y-74533D01*
X368950Y-74467D01*
X369067Y-74533D01*
Y-74667D01*
X368950Y-74733D01*
G01X378550Y-70600D02*
Y-74600D01*
G01X377208Y-70600D02*
X379892D01*
G01X384517Y-74600D02*
X382183D01*
Y-70600D01*
X384517D01*
G01X383583Y-72533D02*
X382183D01*
G01X386925Y-74600D02*
X389375Y-70600D01*
G01X386925D02*
X389375Y-74600D01*
G01X391492D02*
X392950Y-70600D01*
X394408Y-74600D01*
G01X393883Y-73200D02*
X392017D01*
G01X396525Y-74067D02*
X396992Y-74400D01*
X397517Y-74600D01*
X397983D01*
X398450Y-74400D01*
X398800Y-74067D01*
X398975Y-73600D01*
X398858Y-73133D01*
X398567Y-72733D01*
X398042Y-72467D01*
X397342Y-72333D01*
X396933Y-72067D01*
X396758Y-71600D01*
X396875Y-71133D01*
X397167Y-70800D01*
X397575Y-70600D01*
X397983D01*
X398392Y-70733D01*
X398742Y-71067D01*
G01X407233Y-74600D02*
X407350Y-73733D01*
X407525Y-73000D01*
X407758Y-72333D01*
X408050Y-71600D01*
X408517Y-70600D01*
X406183D01*
G01X412150Y-74600D02*
X412558Y-74533D01*
X413025Y-74333D01*
X413317Y-74000D01*
X413433Y-73533D01*
X413317Y-73067D01*
X412967Y-72667D01*
X412442Y-72467D01*
X411858D01*
X411508Y-72333D01*
X411217Y-72000D01*
X411100Y-71533D01*
X411275Y-71067D01*
X411683Y-70733D01*
X412150Y-70600D01*
X412617Y-70733D01*
X413025Y-71067D01*
X413200Y-71533D01*
X413083Y-72000D01*
X412792Y-72333D01*
X412442Y-72467D01*
X411858D01*
X411333Y-72667D01*
X410983Y-73067D01*
X410867Y-73533D01*
X410983Y-74000D01*
X411275Y-74333D01*
X411742Y-74533D01*
X412150Y-74600D01*
G01X416833D02*
X416950Y-73733D01*
X417125Y-73000D01*
X417358Y-72333D01*
X417650Y-71600D01*
X418117Y-70600D01*
X415783D01*
G01X420467Y-73800D02*
X420817Y-74267D01*
X421283Y-74533D01*
X421808Y-74600D01*
X422275Y-74533D01*
X422742Y-74200D01*
X423033Y-73800D01*
X423092Y-73400D01*
X422975Y-72933D01*
X422567Y-72600D01*
X422158Y-72467D01*
X421633D01*
G01X422158D02*
X422508Y-72267D01*
X422800Y-71933D01*
X422917Y-71533D01*
X422800Y-71133D01*
X422508Y-70800D01*
X421983Y-70600D01*
X421458Y-70667D01*
X420933Y-70933D01*
G01X425267Y-74000D02*
X425617Y-74333D01*
X426025Y-74533D01*
X426550Y-74600D01*
X427075Y-74467D01*
X427483Y-74200D01*
X427775Y-73733D01*
X427833Y-73200D01*
X427717Y-72667D01*
X427425Y-72333D01*
X427017Y-72067D01*
X426608Y-72000D01*
X426200Y-72067D01*
X425675Y-72333D01*
X425850Y-70600D01*
X427425D01*
G01X434867D02*
Y-73467D01*
X435100Y-74067D01*
X435567Y-74467D01*
X436150Y-74600D01*
X436733Y-74467D01*
X437200Y-74067D01*
X437433Y-73467D01*
Y-70600D01*
G01X439725Y-74067D02*
X440192Y-74400D01*
X440717Y-74600D01*
X441183D01*
X441650Y-74400D01*
X442000Y-74067D01*
X442175Y-73600D01*
X442058Y-73133D01*
X441767Y-72733D01*
X441242Y-72467D01*
X440542Y-72333D01*
X440133Y-72067D01*
X439958Y-71600D01*
X440075Y-71133D01*
X440367Y-70800D01*
X440775Y-70600D01*
X441183D01*
X441592Y-70733D01*
X441942Y-71067D01*
G01X444292Y-74600D02*
X445750Y-70600D01*
X447208Y-74600D01*
G01X446683Y-73200D02*
X444817D01*
G01X339042Y-65933D02*
X339450Y-65467D01*
X339800Y-65200D01*
X340267Y-65067D01*
X340675Y-65200D01*
X340967Y-65467D01*
X341200Y-65867D01*
X341258Y-66333D01*
X341200Y-66733D01*
X340967Y-67133D01*
X340617Y-67467D01*
X340208Y-67600D01*
X339742Y-67467D01*
X339333Y-67067D01*
X339100Y-66467D01*
X339042Y-65800D01*
X339158Y-64933D01*
X339333Y-64467D01*
X339625Y-64000D01*
X340033Y-63667D01*
X340442Y-63600D01*
X340850Y-63733D01*
X341142Y-64067D01*
G01X343667Y-67000D02*
X344017Y-67333D01*
X344425Y-67533D01*
X344950Y-67600D01*
X345475Y-67467D01*
X345883Y-67200D01*
X346175Y-66733D01*
X346233Y-66200D01*
X346117Y-65667D01*
X345825Y-65333D01*
X345417Y-65067D01*
X345008Y-65000D01*
X344600Y-65067D01*
X344075Y-65333D01*
X344250Y-63600D01*
X345825D01*
G01X349750D02*
X349283Y-63733D01*
X348933Y-64067D01*
X348700Y-64467D01*
X348525Y-65000D01*
X348467Y-65600D01*
X348525Y-66200D01*
X348700Y-66733D01*
X348933Y-67133D01*
X349283Y-67467D01*
X349750Y-67600D01*
X350217Y-67467D01*
X350567Y-67133D01*
X350800Y-66733D01*
X350975Y-66200D01*
X351033Y-65600D01*
X350975Y-65000D01*
X350800Y-64467D01*
X350567Y-64067D01*
X350217Y-63733D01*
X349750Y-63600D01*
G01X354550Y-67600D02*
Y-63600D01*
X353850Y-64400D01*
G01Y-67600D02*
X355250D01*
G01X362400Y-63600D02*
X363217Y-67600D01*
X364150Y-63600D01*
X365083Y-67600D01*
X365900Y-63600D01*
G01X368250D02*
X369650D01*
G01X368950D02*
Y-67600D01*
G01X368250D02*
X369650D01*
G01X372583Y-63600D02*
Y-67600D01*
X374917D01*
G01X377383Y-63600D02*
Y-67600D01*
X379717D01*
G01X382650Y-63600D02*
X384050D01*
G01X383350D02*
Y-67600D01*
G01X382650D02*
X384050D01*
G01X386692D02*
X388150Y-63600D01*
X389608Y-67600D01*
G01X389083Y-66200D02*
X387217D01*
G01X391433Y-67600D02*
Y-63600D01*
X392950Y-66933D01*
X394467Y-63600D01*
Y-67600D01*
G01X403833Y-63933D02*
X403483Y-63733D01*
X403075Y-63600D01*
X402608D01*
X402083Y-63800D01*
X401675Y-64133D01*
X401383Y-64533D01*
X401150Y-65200D01*
X401092Y-65800D01*
X401208Y-66400D01*
X401383Y-66800D01*
X401733Y-67200D01*
X402142Y-67467D01*
X402550Y-67600D01*
X402958D01*
X403367Y-67467D01*
X403717Y-67267D01*
X404008Y-67000D01*
G01X405892Y-67600D02*
X407350Y-63600D01*
X408808Y-67600D01*
G01X408283Y-66200D02*
X406417D01*
G01X410808Y-67600D02*
Y-63600D01*
X413492Y-67600D01*
Y-63600D01*
G01X415608Y-67600D02*
Y-63600D01*
X418292Y-67600D01*
Y-63600D01*
G01X421750Y-67600D02*
X421283Y-67533D01*
X420875Y-67267D01*
X420525Y-66867D01*
X420292Y-66400D01*
X420175Y-65867D01*
Y-65333D01*
X420292Y-64800D01*
X420525Y-64333D01*
X420875Y-63933D01*
X421283Y-63667D01*
X421750Y-63600D01*
X422217Y-63667D01*
X422625Y-63933D01*
X422975Y-64333D01*
X423208Y-64800D01*
X423325Y-65333D01*
Y-65867D01*
X423208Y-66400D01*
X422975Y-66867D01*
X422625Y-67267D01*
X422217Y-67533D01*
X421750Y-67600D01*
G01X425208D02*
Y-63600D01*
X427892Y-67600D01*
Y-63600D01*
G01X434867Y-67600D02*
Y-63600D01*
X436033D01*
X436500Y-63800D01*
X436850Y-64067D01*
X437142Y-64467D01*
X437375Y-64933D01*
X437433Y-65600D01*
X437375Y-66267D01*
X437142Y-66733D01*
X436850Y-67133D01*
X436500Y-67400D01*
X436033Y-67600D01*
X434867D01*
G01X439783D02*
Y-63600D01*
X441242D01*
X441708Y-63800D01*
X442000Y-64067D01*
X442117Y-64600D01*
X442000Y-65133D01*
X441650Y-65467D01*
X441242Y-65667D01*
X439783D01*
G01X441242D02*
X442117Y-67600D01*
G01X445050Y-63600D02*
X446450D01*
G01X445750D02*
Y-67600D01*
G01X445050D02*
X446450D01*
G01X449092Y-63600D02*
X450550Y-67600D01*
X452008Y-63600D01*
G01X456517Y-67600D02*
X454183D01*
Y-63600D01*
X456517D01*
G01X455583Y-65533D02*
X454183D01*
G01X463200Y-63600D02*
X464017Y-67600D01*
X464950Y-63600D01*
X465883Y-67600D01*
X466700Y-63600D01*
G01X470917Y-67600D02*
X468583D01*
Y-63600D01*
X470917D01*
G01X469983Y-65533D02*
X468583D01*
G01X473325Y-67067D02*
X473792Y-67400D01*
X474317Y-67600D01*
X474783D01*
X475250Y-67400D01*
X475600Y-67067D01*
X475775Y-66600D01*
X475658Y-66133D01*
X475367Y-65733D01*
X474842Y-65467D01*
X474142Y-65333D01*
X473733Y-65067D01*
X473558Y-64600D01*
X473675Y-64133D01*
X473967Y-63800D01*
X474375Y-63600D01*
X474783D01*
X475192Y-63733D01*
X475542Y-64067D01*
G01X479350Y-63600D02*
Y-67600D01*
G01X478008Y-63600D02*
X480692D01*
G01X339053Y-58600D02*
Y-51100D01*
X343347Y-58600D01*
Y-51100D01*
G01X346740Y-58600D02*
X350660Y-51100D01*
G01X346740D02*
X350660Y-58600D01*
G01X354333D02*
Y-51100D01*
X356573D01*
X357320Y-51475D01*
X357880Y-52350D01*
X358067Y-53350D01*
X357880Y-54350D01*
X357413Y-55100D01*
X356573Y-55475D01*
X354333D01*
G01X369240Y-57600D02*
X369987Y-58225D01*
X370827Y-58600D01*
X371573D01*
X372320Y-58225D01*
X372880Y-57600D01*
X373160Y-56725D01*
X372973Y-55850D01*
X372507Y-55100D01*
X371667Y-54600D01*
X370547Y-54350D01*
X369893Y-53850D01*
X369613Y-52975D01*
X369800Y-52100D01*
X370267Y-51475D01*
X370920Y-51100D01*
X371573D01*
X372227Y-51350D01*
X372787Y-51975D01*
G01X380567Y-58600D02*
X376833D01*
Y-51100D01*
X380567D01*
G01X379073Y-54725D02*
X376833D01*
G01X383773Y-58600D02*
Y-51100D01*
X386200Y-57350D01*
X388627Y-51100D01*
Y-58600D01*
G01X392580Y-51100D02*
X394820D01*
G01X393700D02*
Y-58600D01*
G01X392580D02*
X394820D01*
G01X403253Y-51725D02*
X402693Y-51350D01*
X402040Y-51100D01*
X401293D01*
X400453Y-51475D01*
X399800Y-52100D01*
X399333Y-52850D01*
X398960Y-54100D01*
X398867Y-55225D01*
X399053Y-56350D01*
X399333Y-57100D01*
X399893Y-57850D01*
X400547Y-58350D01*
X401200Y-58600D01*
X401853D01*
X402507Y-58350D01*
X403067Y-57975D01*
X403533Y-57475D01*
G01X408700Y-58600D02*
X407953Y-58475D01*
X407300Y-57975D01*
X406740Y-57225D01*
X406367Y-56350D01*
X406180Y-55350D01*
Y-54350D01*
X406367Y-53350D01*
X406740Y-52475D01*
X407300Y-51725D01*
X407953Y-51225D01*
X408700Y-51100D01*
X409447Y-51225D01*
X410100Y-51725D01*
X410660Y-52475D01*
X411033Y-53350D01*
X411220Y-54350D01*
Y-55350D01*
X411033Y-56350D01*
X410660Y-57225D01*
X410100Y-57975D01*
X409447Y-58475D01*
X408700Y-58600D01*
G01X414053D02*
Y-51100D01*
X418347Y-58600D01*
Y-51100D01*
G01X421647Y-58600D02*
Y-51100D01*
X423513D01*
X424260Y-51475D01*
X424820Y-51975D01*
X425287Y-52725D01*
X425660Y-53600D01*
X425753Y-54850D01*
X425660Y-56100D01*
X425287Y-56975D01*
X424820Y-57725D01*
X424260Y-58225D01*
X423513Y-58600D01*
X421647D01*
G01X429147Y-51100D02*
Y-56475D01*
X429520Y-57600D01*
X430267Y-58350D01*
X431200Y-58600D01*
X432133Y-58350D01*
X432880Y-57600D01*
X433253Y-56475D01*
Y-51100D01*
G01X440753Y-51725D02*
X440193Y-51350D01*
X439540Y-51100D01*
X438793D01*
X437953Y-51475D01*
X437300Y-52100D01*
X436833Y-52850D01*
X436460Y-54100D01*
X436367Y-55225D01*
X436553Y-56350D01*
X436833Y-57100D01*
X437393Y-57850D01*
X438047Y-58350D01*
X438700Y-58600D01*
X439353D01*
X440007Y-58350D01*
X440567Y-57975D01*
X441033Y-57475D01*
G01X446200Y-51100D02*
Y-58600D01*
G01X444053Y-51100D02*
X448347D01*
G01X453700Y-58600D02*
X452953Y-58475D01*
X452300Y-57975D01*
X451740Y-57225D01*
X451367Y-56350D01*
X451180Y-55350D01*
Y-54350D01*
X451367Y-53350D01*
X451740Y-52475D01*
X452300Y-51725D01*
X452953Y-51225D01*
X453700Y-51100D01*
X454447Y-51225D01*
X455100Y-51725D01*
X455660Y-52475D01*
X456033Y-53350D01*
X456220Y-54350D01*
Y-55350D01*
X456033Y-56350D01*
X455660Y-57225D01*
X455100Y-57975D01*
X454447Y-58475D01*
X453700Y-58600D01*
G01X459333D02*
Y-51100D01*
X461667D01*
X462413Y-51475D01*
X462880Y-51975D01*
X463067Y-52975D01*
X462880Y-53975D01*
X462320Y-54600D01*
X461667Y-54975D01*
X459333D01*
G01X461667D02*
X463067Y-58600D01*
G01X466740Y-57600D02*
X467487Y-58225D01*
X468327Y-58600D01*
X469073D01*
X469820Y-58225D01*
X470380Y-57600D01*
X470660Y-56725D01*
X470473Y-55850D01*
X470007Y-55100D01*
X469167Y-54600D01*
X468047Y-54350D01*
X467393Y-53850D01*
X467113Y-52975D01*
X467300Y-52100D01*
X467767Y-51475D01*
X468420Y-51100D01*
X469073D01*
X469727Y-51350D01*
X470287Y-51975D01*
G01X348293Y116267D02*
X348328Y115808D01*
X348187Y115384D01*
X347904Y115030D01*
X347586Y114782D01*
X347126Y114676D01*
X346737Y114712D01*
X346490Y114889D01*
X346313Y115207D01*
X346384Y115631D01*
X346560Y115949D01*
X346879Y116267D01*
G01X346560Y115949D02*
X346242Y115843D01*
X345889D01*
X345606Y115985D01*
X345464Y116267D01*
X345465Y116621D01*
X345677Y117045D01*
X346030Y117328D01*
X346490Y117505D01*
G01X344580Y115949D02*
X345817Y112943D01*
X342812Y114181D01*
G01X344049Y112023D02*
X344084Y111564D01*
X343943Y111140D01*
X343660Y110786D01*
X343342Y110538D01*
X342882Y110432D01*
X342493Y110468D01*
X342246Y110645D01*
X342069Y110963D01*
X342140Y111387D01*
X342316Y111705D01*
X342635Y112023D01*
G01X342316Y111705D02*
X341998Y111599D01*
X341645D01*
X341362Y111741D01*
X341220Y112023D01*
X341221Y112377D01*
X341433Y112801D01*
X341786Y113084D01*
X342246Y113261D01*
G01X345667Y125414D02*
X344959Y124707D01*
X345596Y124070D01*
X346020D01*
X346409Y124176D01*
X346833Y124459D01*
X347116Y124884D01*
X347222Y125272D01*
Y125697D01*
X347116Y126086D01*
X346904Y126439D01*
X346657Y126687D01*
X346374Y126828D01*
X345985Y126934D01*
X345560D01*
X345207Y126863D01*
X344818Y126687D01*
X344571Y126439D01*
X344358Y126086D01*
X344288Y125732D01*
G01X345631Y123257D02*
X343509Y125378D01*
X344004Y121630D01*
X341883Y123751D01*
G01X343473Y121099D02*
X341352Y123220D01*
X340645Y122513D01*
X340468Y122124D01*
X340397Y121771D01*
X340433Y121382D01*
X340539Y120993D01*
X340857Y120604D01*
X341246Y120286D01*
X341635Y120180D01*
X342024Y120145D01*
X342377Y120215D01*
X342766Y120392D01*
X343473Y121099D01*
G01X349146Y137272D02*
X347025Y139394D01*
X346177Y138545D01*
X346000Y138156D01*
X346035Y137697D01*
X346247Y137343D01*
X346601Y137131D01*
X346990Y137096D01*
X347414Y137308D01*
X348263Y138156D01*
G01X344196Y136565D02*
X346317Y134443D01*
G01X345009Y137378D02*
X343383Y135751D01*
G01X341473Y133488D02*
X341579Y133806D01*
X341756Y134124D01*
X342039Y134407D01*
X342463Y134619D01*
X342887Y134690D01*
X343276Y134655D01*
X343771Y134443D01*
X344125Y134160D01*
X344372Y133771D01*
X344478Y133453D01*
Y133028D01*
X344372Y132640D01*
X344195Y132321D01*
X343948Y132074D01*
X343630Y131897D01*
X343311Y131791D01*
X342993Y131756D01*
G01X340977Y132639D02*
X340553D01*
X340199Y132497D01*
X339881Y132250D01*
X339598Y131826D01*
X339528Y131401D01*
X339669Y131119D01*
X339917Y130942D01*
X340235Y130906D01*
X341296Y131260D01*
X341861Y131331D01*
X342427Y131189D01*
X342816Y130942D01*
X341331Y129457D01*
G01X349146Y146772D02*
X347025Y148894D01*
X346177Y148045D01*
X346000Y147656D01*
X346035Y147197D01*
X346247Y146843D01*
X346601Y146631D01*
X346990Y146596D01*
X347414Y146808D01*
X348263Y147656D01*
G01X344196Y146065D02*
X346317Y143943D01*
G01X345009Y146878D02*
X343383Y145251D01*
G01X341473Y142988D02*
X341579Y143306D01*
X341756Y143624D01*
X342039Y143907D01*
X342463Y144119D01*
X342887Y144190D01*
X343276Y144155D01*
X343771Y143943D01*
X344125Y143660D01*
X344372Y143271D01*
X344478Y142953D01*
Y142528D01*
X344372Y142140D01*
X344195Y141821D01*
X343948Y141574D01*
X343630Y141397D01*
X343311Y141291D01*
X342993Y141256D01*
G01X342073Y139699D02*
X339952Y141821D01*
X340801D01*
G01X342498Y140124D02*
X341649Y139275D01*
G01X350229Y158855D02*
X348037Y161047D01*
X347386Y160396D01*
X347279Y160070D01*
X347372Y159652D01*
X347610Y159305D01*
X347957Y159067D01*
X348312Y158983D01*
X348665Y159118D01*
X349316Y159768D01*
G01X345444Y158454D02*
X347636Y156262D01*
G01X346067Y159077D02*
X344820Y157830D01*
G01X345043Y153669D02*
X346127Y154753D01*
X343935Y156945D01*
X342851Y155861D01*
G01X344344Y155235D02*
X344994Y155886D01*
G01X342222Y154502D02*
X341840Y154558D01*
X341541Y154478D01*
X341288Y154298D01*
X341090Y153954D01*
X341083Y153581D01*
X341247Y153308D01*
X341494Y153116D01*
X341785Y153041D01*
X342692Y153218D01*
X343192Y153206D01*
X343720Y153004D01*
X344103Y152729D01*
X342965Y151591D01*
G01X341688Y150825D02*
X341681Y150453D01*
X341537Y150163D01*
X341247Y150019D01*
X340838Y150049D01*
X340374Y150242D01*
X339991Y150517D01*
X339589Y150918D01*
X339314Y151301D01*
X339158Y151729D01*
X339174Y152038D01*
X339291Y152301D01*
X339581Y152445D01*
X339889Y152461D01*
X340217Y152350D01*
X340564Y152112D01*
X340765Y151802D01*
X340885Y151411D01*
X340869Y151102D01*
X340716Y150876D01*
X340426Y150732D01*
X340080Y150752D01*
X339589Y150918D01*
G01X349646Y167272D02*
X347525Y169394D01*
X346677Y168545D01*
X346500Y168156D01*
X346535Y167697D01*
X346747Y167343D01*
X347101Y167131D01*
X347490Y167096D01*
X347914Y167308D01*
X348763Y168156D01*
G01X344696Y166565D02*
X346817Y164443D01*
G01X345509Y167378D02*
X343883Y165751D01*
G01X345579Y163205D02*
X342574Y164443D01*
X343811Y161437D01*
G01X343387Y162498D02*
X344519Y163629D01*
G01X343033Y161295D02*
X342998Y160906D01*
X342856Y160553D01*
X342573Y160199D01*
X342184Y159952D01*
X341796Y159846D01*
X341371Y159916D01*
X341053Y160164D01*
X340841Y160518D01*
Y160871D01*
X340947Y161260D01*
X341159Y161543D01*
X341442Y161755D01*
X341902Y161932D01*
X340876Y162745D01*
X339922Y161790D01*
G01X344808Y-124600D02*
Y-120600D01*
X347492Y-124600D01*
Y-120600D01*
G01X349725Y-124600D02*
X352175Y-120600D01*
G01X349725D02*
X352175Y-124600D01*
G01X354583D02*
Y-120600D01*
X355983D01*
X356450Y-120800D01*
X356800Y-121267D01*
X356917Y-121800D01*
X356800Y-122333D01*
X356508Y-122733D01*
X355983Y-122933D01*
X354583D01*
G01X360550Y-124733D02*
X360433Y-124667D01*
Y-124533D01*
X360550Y-124467D01*
X360667Y-124533D01*
Y-124667D01*
X360550Y-124733D01*
G01X347150Y-116600D02*
X346683Y-116533D01*
X346275Y-116267D01*
X345925Y-115867D01*
X345692Y-115400D01*
X345575Y-114867D01*
Y-114333D01*
X345692Y-113800D01*
X345925Y-113333D01*
X346275Y-112933D01*
X346683Y-112667D01*
X347150Y-112600D01*
X347617Y-112667D01*
X348025Y-112933D01*
X348375Y-113333D01*
X348608Y-113800D01*
X348725Y-114333D01*
Y-114867D01*
X348608Y-115400D01*
X348375Y-115867D01*
X348025Y-116267D01*
X347617Y-116533D01*
X347150Y-116600D01*
G01X350783D02*
Y-112600D01*
X352242D01*
X352708Y-112800D01*
X353000Y-113067D01*
X353117Y-113600D01*
X353000Y-114133D01*
X352650Y-114467D01*
X352242Y-114667D01*
X350783D01*
G01X352242D02*
X353117Y-116600D01*
G01X360850Y-112600D02*
X362250D01*
G01X361550D02*
Y-116600D01*
G01X360850D02*
X362250D01*
G01X365008D02*
Y-112600D01*
X367692Y-116600D01*
Y-112600D01*
G01X374783Y-116600D02*
Y-112600D01*
X376183D01*
X376650Y-112800D01*
X377000Y-113267D01*
X377117Y-113800D01*
X377000Y-114333D01*
X376708Y-114733D01*
X376183Y-114933D01*
X374783D01*
G01X379292Y-116600D02*
X380750Y-112600D01*
X382208Y-116600D01*
G01X381683Y-115200D02*
X379817D01*
G01X384383Y-116600D02*
Y-112600D01*
X385842D01*
X386308Y-112800D01*
X386600Y-113067D01*
X386717Y-113600D01*
X386600Y-114133D01*
X386250Y-114467D01*
X385842Y-114667D01*
X384383D01*
G01X385842D02*
X386717Y-116600D01*
G01X390350Y-112600D02*
Y-116600D01*
G01X389008Y-112600D02*
X391692D01*
G01X398200D02*
X399017Y-116600D01*
X399950Y-112600D01*
X400883Y-116600D01*
X401700Y-112600D01*
G01X404050D02*
X405450D01*
G01X404750D02*
Y-116600D01*
G01X404050D02*
X405450D01*
G01X409550Y-112600D02*
Y-116600D01*
G01X408208Y-112600D02*
X410892D01*
G01X413125Y-116600D02*
Y-112600D01*
G01X415575D02*
Y-116600D01*
G01Y-114600D02*
X413125D01*
G01X419150Y-116600D02*
X418683Y-116533D01*
X418275Y-116267D01*
X417925Y-115867D01*
X417692Y-115400D01*
X417575Y-114867D01*
Y-114333D01*
X417692Y-113800D01*
X417925Y-113333D01*
X418275Y-112933D01*
X418683Y-112667D01*
X419150Y-112600D01*
X419617Y-112667D01*
X420025Y-112933D01*
X420375Y-113333D01*
X420608Y-113800D01*
X420725Y-114333D01*
Y-114867D01*
X420608Y-115400D01*
X420375Y-115867D01*
X420025Y-116267D01*
X419617Y-116533D01*
X419150Y-116600D01*
G01X422667Y-112600D02*
Y-115467D01*
X422900Y-116067D01*
X423367Y-116467D01*
X423950Y-116600D01*
X424533Y-116467D01*
X425000Y-116067D01*
X425233Y-115467D01*
Y-112600D01*
G01X428750D02*
Y-116600D01*
G01X427408Y-112600D02*
X430092D01*
G01X438350D02*
Y-116600D01*
G01X437008Y-112600D02*
X439692D01*
G01X441925Y-116600D02*
Y-112600D01*
G01X444375D02*
Y-116600D01*
G01Y-114600D02*
X441925D01*
G01X449117Y-116600D02*
X446783D01*
Y-112600D01*
X449117D01*
G01X448183Y-114533D02*
X446783D01*
G01X458833Y-112933D02*
X458483Y-112733D01*
X458075Y-112600D01*
X457608D01*
X457083Y-112800D01*
X456675Y-113133D01*
X456383Y-113533D01*
X456150Y-114200D01*
X456092Y-114800D01*
X456208Y-115400D01*
X456383Y-115800D01*
X456733Y-116200D01*
X457142Y-116467D01*
X457550Y-116600D01*
X457958D01*
X458367Y-116467D01*
X458717Y-116267D01*
X459008Y-116000D01*
G01X462350Y-116600D02*
X461883Y-116533D01*
X461475Y-116267D01*
X461125Y-115867D01*
X460892Y-115400D01*
X460775Y-114867D01*
Y-114333D01*
X460892Y-113800D01*
X461125Y-113333D01*
X461475Y-112933D01*
X461883Y-112667D01*
X462350Y-112600D01*
X462817Y-112667D01*
X463225Y-112933D01*
X463575Y-113333D01*
X463808Y-113800D01*
X463925Y-114333D01*
Y-114867D01*
X463808Y-115400D01*
X463575Y-115867D01*
X463225Y-116267D01*
X462817Y-116533D01*
X462350Y-116600D01*
G01X465808D02*
Y-112600D01*
X468492Y-116600D01*
Y-112600D01*
G01X470725Y-116067D02*
X471192Y-116400D01*
X471717Y-116600D01*
X472183D01*
X472650Y-116400D01*
X473000Y-116067D01*
X473175Y-115600D01*
X473058Y-115133D01*
X472767Y-114733D01*
X472242Y-114467D01*
X471542Y-114333D01*
X471133Y-114067D01*
X470958Y-113600D01*
X471075Y-113133D01*
X471367Y-112800D01*
X471775Y-112600D01*
X472183D01*
X472592Y-112733D01*
X472942Y-113067D01*
G01X477917Y-116600D02*
X475583D01*
Y-112600D01*
X477917D01*
G01X476983Y-114533D02*
X475583D01*
G01X480208Y-116600D02*
Y-112600D01*
X482892Y-116600D01*
Y-112600D01*
G01X486350D02*
Y-116600D01*
G01X485008Y-112600D02*
X487692D01*
G01X495950Y-116600D02*
X495483Y-116533D01*
X495075Y-116267D01*
X494725Y-115867D01*
X494492Y-115400D01*
X494375Y-114867D01*
Y-114333D01*
X494492Y-113800D01*
X494725Y-113333D01*
X495075Y-112933D01*
X495483Y-112667D01*
X495950Y-112600D01*
X496417Y-112667D01*
X496825Y-112933D01*
X497175Y-113333D01*
X497408Y-113800D01*
X497525Y-114333D01*
Y-114867D01*
X497408Y-115400D01*
X497175Y-115867D01*
X496825Y-116267D01*
X496417Y-116533D01*
X495950Y-116600D01*
G01X499642D02*
Y-112600D01*
X501858D01*
G01X501042Y-114533D02*
X499642D01*
G01X345983Y-108600D02*
Y-104600D01*
X347383D01*
X347850Y-104800D01*
X348200Y-105267D01*
X348317Y-105800D01*
X348200Y-106333D01*
X347908Y-106733D01*
X347383Y-106933D01*
X345983D01*
G01X350783Y-108600D02*
Y-104600D01*
X352242D01*
X352708Y-104800D01*
X353000Y-105067D01*
X353117Y-105600D01*
X353000Y-106133D01*
X352650Y-106467D01*
X352242Y-106667D01*
X350783D01*
G01X352242D02*
X353117Y-108600D01*
G01X356750D02*
X356283Y-108533D01*
X355875Y-108267D01*
X355525Y-107867D01*
X355292Y-107400D01*
X355175Y-106867D01*
Y-106333D01*
X355292Y-105800D01*
X355525Y-105333D01*
X355875Y-104933D01*
X356283Y-104667D01*
X356750Y-104600D01*
X357217Y-104667D01*
X357625Y-104933D01*
X357975Y-105333D01*
X358208Y-105800D01*
X358325Y-106333D01*
Y-106867D01*
X358208Y-107400D01*
X357975Y-107867D01*
X357625Y-108267D01*
X357217Y-108533D01*
X356750Y-108600D01*
G01X362833Y-104933D02*
X362483Y-104733D01*
X362075Y-104600D01*
X361608D01*
X361083Y-104800D01*
X360675Y-105133D01*
X360383Y-105533D01*
X360150Y-106200D01*
X360092Y-106800D01*
X360208Y-107400D01*
X360383Y-107800D01*
X360733Y-108200D01*
X361142Y-108467D01*
X361550Y-108600D01*
X361958D01*
X362367Y-108467D01*
X362717Y-108267D01*
X363008Y-108000D01*
G01X365067Y-104600D02*
Y-107467D01*
X365300Y-108067D01*
X365767Y-108467D01*
X366350Y-108600D01*
X366933Y-108467D01*
X367400Y-108067D01*
X367633Y-107467D01*
Y-104600D01*
G01X369983Y-108600D02*
Y-104600D01*
X371442D01*
X371908Y-104800D01*
X372200Y-105067D01*
X372317Y-105600D01*
X372200Y-106133D01*
X371850Y-106467D01*
X371442Y-106667D01*
X369983D01*
G01X371442D02*
X372317Y-108600D01*
G01X377117D02*
X374783D01*
Y-104600D01*
X377117D01*
G01X376183Y-106533D02*
X374783D01*
G01X379233Y-108600D02*
Y-104600D01*
X380750Y-107933D01*
X382267Y-104600D01*
Y-108600D01*
G01X386717D02*
X384383D01*
Y-104600D01*
X386717D01*
G01X385783Y-106533D02*
X384383D01*
G01X389008Y-108600D02*
Y-104600D01*
X391692Y-108600D01*
Y-104600D01*
G01X395150D02*
Y-108600D01*
G01X393808Y-104600D02*
X396492D01*
G01X404750Y-108600D02*
X404283Y-108533D01*
X403875Y-108267D01*
X403525Y-107867D01*
X403292Y-107400D01*
X403175Y-106867D01*
Y-106333D01*
X403292Y-105800D01*
X403525Y-105333D01*
X403875Y-104933D01*
X404283Y-104667D01*
X404750Y-104600D01*
X405217Y-104667D01*
X405625Y-104933D01*
X405975Y-105333D01*
X406208Y-105800D01*
X406325Y-106333D01*
Y-106867D01*
X406208Y-107400D01*
X405975Y-107867D01*
X405625Y-108267D01*
X405217Y-108533D01*
X404750Y-108600D01*
G01X408383D02*
Y-104600D01*
X409842D01*
X410308Y-104800D01*
X410600Y-105067D01*
X410717Y-105600D01*
X410600Y-106133D01*
X410250Y-106467D01*
X409842Y-106667D01*
X408383D01*
G01X409842D02*
X410717Y-108600D01*
G01X417633D02*
Y-104600D01*
X419150Y-107933D01*
X420667Y-104600D01*
Y-108600D01*
G01X422492D02*
X423950Y-104600D01*
X425408Y-108600D01*
G01X424883Y-107200D02*
X423017D01*
G01X427408Y-108600D02*
Y-104600D01*
X430092Y-108600D01*
Y-104600D01*
G01X432267D02*
Y-107467D01*
X432500Y-108067D01*
X432967Y-108467D01*
X433550Y-108600D01*
X434133Y-108467D01*
X434600Y-108067D01*
X434833Y-107467D01*
Y-104600D01*
G01X437242Y-108600D02*
Y-104600D01*
X439458D01*
G01X438642Y-106533D02*
X437242D01*
G01X441692Y-108600D02*
X443150Y-104600D01*
X444608Y-108600D01*
G01X444083Y-107200D02*
X442217D01*
G01X449233Y-104933D02*
X448883Y-104733D01*
X448475Y-104600D01*
X448008D01*
X447483Y-104800D01*
X447075Y-105133D01*
X446783Y-105533D01*
X446550Y-106200D01*
X446492Y-106800D01*
X446608Y-107400D01*
X446783Y-107800D01*
X447133Y-108200D01*
X447542Y-108467D01*
X447950Y-108600D01*
X448358D01*
X448767Y-108467D01*
X449117Y-108267D01*
X449408Y-108000D01*
G01X452750Y-104600D02*
Y-108600D01*
G01X451408Y-104600D02*
X454092D01*
G01X456267D02*
Y-107467D01*
X456500Y-108067D01*
X456967Y-108467D01*
X457550Y-108600D01*
X458133Y-108467D01*
X458600Y-108067D01*
X458833Y-107467D01*
Y-104600D01*
G01X461183Y-108600D02*
Y-104600D01*
X462642D01*
X463108Y-104800D01*
X463400Y-105067D01*
X463517Y-105600D01*
X463400Y-106133D01*
X463050Y-106467D01*
X462642Y-106667D01*
X461183D01*
G01X462642D02*
X463517Y-108600D01*
G01X468317D02*
X465983D01*
Y-104600D01*
X468317D01*
G01X467383Y-106533D02*
X465983D01*
G01X476050Y-104600D02*
X477450D01*
G01X476750D02*
Y-108600D01*
G01X476050D02*
X477450D01*
G01X480208D02*
Y-104600D01*
X482892Y-108600D01*
Y-104600D01*
G01X489400D02*
X490217Y-108600D01*
X491150Y-104600D01*
X492083Y-108600D01*
X492900Y-104600D01*
G01X494725Y-108600D02*
Y-104600D01*
G01X497175D02*
Y-108600D01*
G01Y-106600D02*
X494725D01*
G01X500750Y-108600D02*
X500283Y-108533D01*
X499875Y-108267D01*
X499525Y-107867D01*
X499292Y-107400D01*
X499175Y-106867D01*
Y-106333D01*
X499292Y-105800D01*
X499525Y-105333D01*
X499875Y-104933D01*
X500283Y-104667D01*
X500750Y-104600D01*
X501217Y-104667D01*
X501625Y-104933D01*
X501975Y-105333D01*
X502208Y-105800D01*
X502325Y-106333D01*
Y-106867D01*
X502208Y-107400D01*
X501975Y-107867D01*
X501625Y-108267D01*
X501217Y-108533D01*
X500750Y-108600D01*
G01X504383Y-104600D02*
Y-108600D01*
X506717D01*
G01X511517D02*
X509183D01*
Y-104600D01*
X511517D01*
G01X510583Y-106533D02*
X509183D01*
G01X346617Y-98467D02*
X346850Y-98267D01*
X347025Y-97933D01*
X347142Y-97467D01*
X347025Y-97067D01*
X346792Y-96800D01*
X346383Y-96600D01*
X344808D01*
Y-100600D01*
X346733D01*
X347142Y-100333D01*
X347375Y-99933D01*
X347492Y-99467D01*
X347375Y-99000D01*
X347025Y-98600D01*
X346617Y-98467D01*
X344808D01*
G01X352117Y-100600D02*
X349783D01*
Y-96600D01*
X352117D01*
G01X351183Y-98533D02*
X349783D01*
G01X359267Y-96600D02*
Y-99467D01*
X359500Y-100067D01*
X359967Y-100467D01*
X360550Y-100600D01*
X361133Y-100467D01*
X361600Y-100067D01*
X361833Y-99467D01*
Y-96600D01*
G01X364125Y-100067D02*
X364592Y-100400D01*
X365117Y-100600D01*
X365583D01*
X366050Y-100400D01*
X366400Y-100067D01*
X366575Y-99600D01*
X366458Y-99133D01*
X366167Y-98733D01*
X365642Y-98467D01*
X364942Y-98333D01*
X364533Y-98067D01*
X364358Y-97600D01*
X364475Y-97133D01*
X364767Y-96800D01*
X365175Y-96600D01*
X365583D01*
X365992Y-96733D01*
X366342Y-97067D01*
G01X371317Y-100600D02*
X368983D01*
Y-96600D01*
X371317D01*
G01X370383Y-98533D02*
X368983D01*
G01X373667Y-100600D02*
Y-96600D01*
X374833D01*
X375300Y-96800D01*
X375650Y-97067D01*
X375942Y-97467D01*
X376175Y-97933D01*
X376233Y-98600D01*
X376175Y-99267D01*
X375942Y-99733D01*
X375650Y-100133D01*
X375300Y-100400D01*
X374833Y-100600D01*
X373667D01*
G01X383442D02*
Y-96600D01*
X385658D01*
G01X384842Y-98533D02*
X383442D01*
G01X389350Y-100600D02*
X388883Y-100533D01*
X388475Y-100267D01*
X388125Y-99867D01*
X387892Y-99400D01*
X387775Y-98867D01*
Y-98333D01*
X387892Y-97800D01*
X388125Y-97333D01*
X388475Y-96933D01*
X388883Y-96667D01*
X389350Y-96600D01*
X389817Y-96667D01*
X390225Y-96933D01*
X390575Y-97333D01*
X390808Y-97800D01*
X390925Y-98333D01*
Y-98867D01*
X390808Y-99400D01*
X390575Y-99867D01*
X390225Y-100267D01*
X389817Y-100533D01*
X389350Y-100600D01*
G01X392983D02*
Y-96600D01*
X394442D01*
X394908Y-96800D01*
X395200Y-97067D01*
X395317Y-97600D01*
X395200Y-98133D01*
X394850Y-98467D01*
X394442Y-98667D01*
X392983D01*
G01X394442D02*
X395317Y-100600D01*
G01X404917D02*
X402583D01*
Y-96600D01*
X404917D01*
G01X403983Y-98533D02*
X402583D01*
G01X407208Y-100600D02*
Y-96600D01*
X409892Y-100600D01*
Y-96600D01*
G01X413700Y-98600D02*
X414867D01*
Y-99800D01*
X414517Y-100200D01*
X414108Y-100467D01*
X413525Y-100600D01*
X412942Y-100467D01*
X412533Y-100200D01*
X412183Y-99800D01*
X411950Y-99333D01*
X411833Y-98800D01*
Y-98333D01*
X411950Y-97933D01*
X412183Y-97467D01*
X412533Y-97067D01*
X412883Y-96800D01*
X413350Y-96600D01*
X413758D01*
X414225Y-96733D01*
X414575Y-97000D01*
G01X417450Y-96600D02*
X418850D01*
G01X418150D02*
Y-100600D01*
G01X417450D02*
X418850D01*
G01X421608D02*
Y-96600D01*
X424292Y-100600D01*
Y-96600D01*
G01X428917Y-100600D02*
X426583D01*
Y-96600D01*
X428917D01*
G01X427983Y-98533D02*
X426583D01*
G01X433717Y-100600D02*
X431383D01*
Y-96600D01*
X433717D01*
G01X432783Y-98533D02*
X431383D01*
G01X436183Y-100600D02*
Y-96600D01*
X437642D01*
X438108Y-96800D01*
X438400Y-97067D01*
X438517Y-97600D01*
X438400Y-98133D01*
X438050Y-98467D01*
X437642Y-98667D01*
X436183D01*
G01X437642D02*
X438517Y-100600D01*
G01X441450Y-96600D02*
X442850D01*
G01X442150D02*
Y-100600D01*
G01X441450D02*
X442850D01*
G01X445608D02*
Y-96600D01*
X448292Y-100600D01*
Y-96600D01*
G01X452100Y-98600D02*
X453267D01*
Y-99800D01*
X452917Y-100200D01*
X452508Y-100467D01*
X451925Y-100600D01*
X451342Y-100467D01*
X450933Y-100200D01*
X450583Y-99800D01*
X450350Y-99333D01*
X450233Y-98800D01*
Y-98333D01*
X450350Y-97933D01*
X450583Y-97467D01*
X450933Y-97067D01*
X451283Y-96800D01*
X451750Y-96600D01*
X452158D01*
X452625Y-96733D01*
X452975Y-97000D01*
G01X460067Y-100600D02*
Y-96600D01*
X461233D01*
X461700Y-96800D01*
X462050Y-97067D01*
X462342Y-97467D01*
X462575Y-97933D01*
X462633Y-98600D01*
X462575Y-99267D01*
X462342Y-99733D01*
X462050Y-100133D01*
X461700Y-100400D01*
X461233Y-100600D01*
X460067D01*
G01X467317D02*
X464983D01*
Y-96600D01*
X467317D01*
G01X466383Y-98533D02*
X464983D01*
G01X469725Y-100067D02*
X470192Y-100400D01*
X470717Y-100600D01*
X471183D01*
X471650Y-100400D01*
X472000Y-100067D01*
X472175Y-99600D01*
X472058Y-99133D01*
X471767Y-98733D01*
X471242Y-98467D01*
X470542Y-98333D01*
X470133Y-98067D01*
X469958Y-97600D01*
X470075Y-97133D01*
X470367Y-96800D01*
X470775Y-96600D01*
X471183D01*
X471592Y-96733D01*
X471942Y-97067D01*
G01X475050Y-96600D02*
X476450D01*
G01X475750D02*
Y-100600D01*
G01X475050D02*
X476450D01*
G01X480900Y-98600D02*
X482067D01*
Y-99800D01*
X481717Y-100200D01*
X481308Y-100467D01*
X480725Y-100600D01*
X480142Y-100467D01*
X479733Y-100200D01*
X479383Y-99800D01*
X479150Y-99333D01*
X479033Y-98800D01*
Y-98333D01*
X479150Y-97933D01*
X479383Y-97467D01*
X479733Y-97067D01*
X480083Y-96800D01*
X480550Y-96600D01*
X480958D01*
X481425Y-96733D01*
X481775Y-97000D01*
G01X484008Y-100600D02*
Y-96600D01*
X486692Y-100600D01*
Y-96600D01*
G01X344983Y-92600D02*
Y-88600D01*
X346383D01*
X346850Y-88800D01*
X347200Y-89267D01*
X347317Y-89800D01*
X347200Y-90333D01*
X346908Y-90733D01*
X346383Y-90933D01*
X344983D01*
G01X349783Y-92600D02*
Y-88600D01*
X351242D01*
X351708Y-88800D01*
X352000Y-89067D01*
X352117Y-89600D01*
X352000Y-90133D01*
X351650Y-90467D01*
X351242Y-90667D01*
X349783D01*
G01X351242D02*
X352117Y-92600D01*
G01X355750D02*
X355283Y-92533D01*
X354875Y-92267D01*
X354525Y-91867D01*
X354292Y-91400D01*
X354175Y-90867D01*
Y-90333D01*
X354292Y-89800D01*
X354525Y-89333D01*
X354875Y-88933D01*
X355283Y-88667D01*
X355750Y-88600D01*
X356217Y-88667D01*
X356625Y-88933D01*
X356975Y-89333D01*
X357208Y-89800D01*
X357325Y-90333D01*
Y-90867D01*
X357208Y-91400D01*
X356975Y-91867D01*
X356625Y-92267D01*
X356217Y-92533D01*
X355750Y-92600D01*
G01X359383D02*
Y-88600D01*
X360783D01*
X361250Y-88800D01*
X361600Y-89267D01*
X361717Y-89800D01*
X361600Y-90333D01*
X361308Y-90733D01*
X360783Y-90933D01*
X359383D01*
G01X364183Y-92600D02*
Y-88600D01*
X365642D01*
X366108Y-88800D01*
X366400Y-89067D01*
X366517Y-89600D01*
X366400Y-90133D01*
X366050Y-90467D01*
X365642Y-90667D01*
X364183D01*
G01X365642D02*
X366517Y-92600D01*
G01X369450Y-88600D02*
X370850D01*
G01X370150D02*
Y-92600D01*
G01X369450D02*
X370850D01*
G01X376117D02*
X373783D01*
Y-88600D01*
X376117D01*
G01X375183Y-90533D02*
X373783D01*
G01X379750Y-88600D02*
Y-92600D01*
G01X378408Y-88600D02*
X381092D01*
G01X383092Y-92600D02*
X384550Y-88600D01*
X386008Y-92600D01*
G01X385483Y-91200D02*
X383617D01*
G01X388183Y-92600D02*
Y-88600D01*
X389642D01*
X390108Y-88800D01*
X390400Y-89067D01*
X390517Y-89600D01*
X390400Y-90133D01*
X390050Y-90467D01*
X389642Y-90667D01*
X388183D01*
G01X389642D02*
X390517Y-92600D01*
G01X394150D02*
Y-90800D01*
X392983Y-88600D01*
G01X395317D02*
X394150Y-90800D01*
G01X403750Y-88600D02*
Y-92600D01*
G01X402408Y-88600D02*
X405092D01*
G01X408550Y-92600D02*
X408083Y-92533D01*
X407675Y-92267D01*
X407325Y-91867D01*
X407092Y-91400D01*
X406975Y-90867D01*
Y-90333D01*
X407092Y-89800D01*
X407325Y-89333D01*
X407675Y-88933D01*
X408083Y-88667D01*
X408550Y-88600D01*
X409017Y-88667D01*
X409425Y-88933D01*
X409775Y-89333D01*
X410008Y-89800D01*
X410125Y-90333D01*
Y-90867D01*
X410008Y-91400D01*
X409775Y-91867D01*
X409425Y-92267D01*
X409017Y-92533D01*
X408550Y-92600D01*
G01X416808D02*
Y-88600D01*
X419492Y-92600D01*
Y-88600D01*
G01X421725Y-92600D02*
X424175Y-88600D01*
G01X421725D02*
X424175Y-92600D01*
G01X426583D02*
Y-88600D01*
X427983D01*
X428450Y-88800D01*
X428800Y-89267D01*
X428917Y-89800D01*
X428800Y-90333D01*
X428508Y-90733D01*
X427983Y-90933D01*
X426583D01*
G01X435892Y-92600D02*
X437350Y-88600D01*
X438808Y-92600D01*
G01X438283Y-91200D02*
X436417D01*
G01X440808Y-92600D02*
Y-88600D01*
X443492Y-92600D01*
Y-88600D01*
G01X445667Y-92600D02*
Y-88600D01*
X446833D01*
X447300Y-88800D01*
X447650Y-89067D01*
X447942Y-89467D01*
X448175Y-89933D01*
X448233Y-90600D01*
X448175Y-91267D01*
X447942Y-91733D01*
X447650Y-92133D01*
X447300Y-92400D01*
X446833Y-92600D01*
X445667D01*
G01X455325Y-92067D02*
X455792Y-92400D01*
X456317Y-92600D01*
X456783D01*
X457250Y-92400D01*
X457600Y-92067D01*
X457775Y-91600D01*
X457658Y-91133D01*
X457367Y-90733D01*
X456842Y-90467D01*
X456142Y-90333D01*
X455733Y-90067D01*
X455558Y-89600D01*
X455675Y-89133D01*
X455967Y-88800D01*
X456375Y-88600D01*
X456783D01*
X457192Y-88733D01*
X457542Y-89067D01*
G01X460125Y-92600D02*
Y-88600D01*
G01X462575D02*
Y-92600D01*
G01Y-90600D02*
X460125D01*
G01X464692Y-92600D02*
X466150Y-88600D01*
X467608Y-92600D01*
G01X467083Y-91200D02*
X465217D01*
G01X469783Y-88600D02*
Y-92600D01*
X472117D01*
G01X474583Y-88600D02*
Y-92600D01*
X476917D01*
G01X484008D02*
Y-88600D01*
X486692Y-92600D01*
Y-88600D01*
G01X490150Y-92600D02*
X489683Y-92533D01*
X489275Y-92267D01*
X488925Y-91867D01*
X488692Y-91400D01*
X488575Y-90867D01*
Y-90333D01*
X488692Y-89800D01*
X488925Y-89333D01*
X489275Y-88933D01*
X489683Y-88667D01*
X490150Y-88600D01*
X490617Y-88667D01*
X491025Y-88933D01*
X491375Y-89333D01*
X491608Y-89800D01*
X491725Y-90333D01*
Y-90867D01*
X491608Y-91400D01*
X491375Y-91867D01*
X491025Y-92267D01*
X490617Y-92533D01*
X490150Y-92600D01*
G01X494950Y-88600D02*
Y-92600D01*
G01X493608Y-88600D02*
X496292D01*
G01X346150Y-80600D02*
Y-84600D01*
G01X344808Y-80600D02*
X347492D01*
G01X349725Y-84600D02*
Y-80600D01*
G01X352175D02*
Y-84600D01*
G01Y-82600D02*
X349725D01*
G01X355050Y-80600D02*
X356450D01*
G01X355750D02*
Y-84600D01*
G01X355050D02*
X356450D01*
G01X359325Y-84067D02*
X359792Y-84400D01*
X360317Y-84600D01*
X360783D01*
X361250Y-84400D01*
X361600Y-84067D01*
X361775Y-83600D01*
X361658Y-83133D01*
X361367Y-82733D01*
X360842Y-82467D01*
X360142Y-82333D01*
X359733Y-82067D01*
X359558Y-81600D01*
X359675Y-81133D01*
X359967Y-80800D01*
X360375Y-80600D01*
X360783D01*
X361192Y-80733D01*
X361542Y-81067D01*
G01X368867Y-84600D02*
Y-80600D01*
X370033D01*
X370500Y-80800D01*
X370850Y-81067D01*
X371142Y-81467D01*
X371375Y-81933D01*
X371433Y-82600D01*
X371375Y-83267D01*
X371142Y-83733D01*
X370850Y-84133D01*
X370500Y-84400D01*
X370033Y-84600D01*
X368867D01*
G01X374950D02*
X374483Y-84533D01*
X374075Y-84267D01*
X373725Y-83867D01*
X373492Y-83400D01*
X373375Y-82867D01*
Y-82333D01*
X373492Y-81800D01*
X373725Y-81333D01*
X374075Y-80933D01*
X374483Y-80667D01*
X374950Y-80600D01*
X375417Y-80667D01*
X375825Y-80933D01*
X376175Y-81333D01*
X376408Y-81800D01*
X376525Y-82333D01*
Y-82867D01*
X376408Y-83400D01*
X376175Y-83867D01*
X375825Y-84267D01*
X375417Y-84533D01*
X374950Y-84600D01*
G01X381033Y-80933D02*
X380683Y-80733D01*
X380275Y-80600D01*
X379808D01*
X379283Y-80800D01*
X378875Y-81133D01*
X378583Y-81533D01*
X378350Y-82200D01*
X378292Y-82800D01*
X378408Y-83400D01*
X378583Y-83800D01*
X378933Y-84200D01*
X379342Y-84467D01*
X379750Y-84600D01*
X380158D01*
X380567Y-84467D01*
X380917Y-84267D01*
X381208Y-84000D01*
G01X383267Y-80600D02*
Y-83467D01*
X383500Y-84067D01*
X383967Y-84467D01*
X384550Y-84600D01*
X385133Y-84467D01*
X385600Y-84067D01*
X385833Y-83467D01*
Y-80600D01*
G01X387833Y-84600D02*
Y-80600D01*
X389350Y-83933D01*
X390867Y-80600D01*
Y-84600D01*
G01X395317D02*
X392983D01*
Y-80600D01*
X395317D01*
G01X394383Y-82533D02*
X392983D01*
G01X397608Y-84600D02*
Y-80600D01*
X400292Y-84600D01*
Y-80600D01*
G01X403750D02*
Y-84600D01*
G01X402408Y-80600D02*
X405092D01*
G01X414633Y-80933D02*
X414283Y-80733D01*
X413875Y-80600D01*
X413408D01*
X412883Y-80800D01*
X412475Y-81133D01*
X412183Y-81533D01*
X411950Y-82200D01*
X411892Y-82800D01*
X412008Y-83400D01*
X412183Y-83800D01*
X412533Y-84200D01*
X412942Y-84467D01*
X413350Y-84600D01*
X413758D01*
X414167Y-84467D01*
X414517Y-84267D01*
X414808Y-84000D01*
G01X418150Y-84600D02*
X417683Y-84533D01*
X417275Y-84267D01*
X416925Y-83867D01*
X416692Y-83400D01*
X416575Y-82867D01*
Y-82333D01*
X416692Y-81800D01*
X416925Y-81333D01*
X417275Y-80933D01*
X417683Y-80667D01*
X418150Y-80600D01*
X418617Y-80667D01*
X419025Y-80933D01*
X419375Y-81333D01*
X419608Y-81800D01*
X419725Y-82333D01*
Y-82867D01*
X419608Y-83400D01*
X419375Y-83867D01*
X419025Y-84267D01*
X418617Y-84533D01*
X418150Y-84600D01*
G01X421608D02*
Y-80600D01*
X424292Y-84600D01*
Y-80600D01*
G01X427750D02*
Y-84600D01*
G01X426408Y-80600D02*
X429092D01*
G01X431092Y-84600D02*
X432550Y-80600D01*
X434008Y-84600D01*
G01X433483Y-83200D02*
X431617D01*
G01X436650Y-80600D02*
X438050D01*
G01X437350D02*
Y-84600D01*
G01X436650D02*
X438050D01*
G01X440808D02*
Y-80600D01*
X443492Y-84600D01*
Y-80600D01*
G01X445725Y-84067D02*
X446192Y-84400D01*
X446717Y-84600D01*
X447183D01*
X447650Y-84400D01*
X448000Y-84067D01*
X448175Y-83600D01*
X448058Y-83133D01*
X447767Y-82733D01*
X447242Y-82467D01*
X446542Y-82333D01*
X446133Y-82067D01*
X445958Y-81600D01*
X446075Y-81133D01*
X446367Y-80800D01*
X446775Y-80600D01*
X447183D01*
X447592Y-80733D01*
X447942Y-81067D01*
G01X455850Y-80600D02*
X457250D01*
G01X456550D02*
Y-84600D01*
G01X455850D02*
X457250D01*
G01X460008D02*
Y-80600D01*
X462692Y-84600D01*
Y-80600D01*
G01X465042Y-84600D02*
Y-80600D01*
X467258D01*
G01X466442Y-82533D02*
X465042D01*
G01X470950Y-84600D02*
X470483Y-84533D01*
X470075Y-84267D01*
X469725Y-83867D01*
X469492Y-83400D01*
X469375Y-82867D01*
Y-82333D01*
X469492Y-81800D01*
X469725Y-81333D01*
X470075Y-80933D01*
X470483Y-80667D01*
X470950Y-80600D01*
X471417Y-80667D01*
X471825Y-80933D01*
X472175Y-81333D01*
X472408Y-81800D01*
X472525Y-82333D01*
Y-82867D01*
X472408Y-83400D01*
X472175Y-83867D01*
X471825Y-84267D01*
X471417Y-84533D01*
X470950Y-84600D01*
G01X474583D02*
Y-80600D01*
X476042D01*
X476508Y-80800D01*
X476800Y-81067D01*
X476917Y-81600D01*
X476800Y-82133D01*
X476450Y-82467D01*
X476042Y-82667D01*
X474583D01*
G01X476042D02*
X476917Y-84600D01*
G01X479033D02*
Y-80600D01*
X480550Y-83933D01*
X482067Y-80600D01*
Y-84600D01*
G01X483892D02*
X485350Y-80600D01*
X486808Y-84600D01*
G01X486283Y-83200D02*
X484417D01*
G01X490150Y-80600D02*
Y-84600D01*
G01X488808Y-80600D02*
X491492D01*
G01X494250D02*
X495650D01*
G01X494950D02*
Y-84600D01*
G01X494250D02*
X495650D01*
G01X499750D02*
X499283Y-84533D01*
X498875Y-84267D01*
X498525Y-83867D01*
X498292Y-83400D01*
X498175Y-82867D01*
Y-82333D01*
X498292Y-81800D01*
X498525Y-81333D01*
X498875Y-80933D01*
X499283Y-80667D01*
X499750Y-80600D01*
X500217Y-80667D01*
X500625Y-80933D01*
X500975Y-81333D01*
X501208Y-81800D01*
X501325Y-82333D01*
Y-82867D01*
X501208Y-83400D01*
X500975Y-83867D01*
X500625Y-84267D01*
X500217Y-84533D01*
X499750Y-84600D01*
G01X503208D02*
Y-80600D01*
X505892Y-84600D01*
Y-80600D01*
G01X344040Y171626D02*
X343740Y171926D01*
X343390Y172076D01*
X342990Y172126D01*
X342490Y172026D01*
X342140Y171776D01*
X342040Y171476D01*
X342090Y171176D01*
X342290Y170926D01*
X343290Y170426D01*
X343740Y170076D01*
X344040Y169576D01*
X344140Y169126D01*
X342040D01*
G01X357250Y-144100D02*
X356623Y-144000D01*
X356075Y-143600D01*
X355605Y-143000D01*
X355292Y-142300D01*
X355135Y-141500D01*
Y-140700D01*
X355292Y-139900D01*
X355605Y-139200D01*
X356075Y-138600D01*
X356623Y-138200D01*
X357250Y-138100D01*
X357877Y-138200D01*
X358425Y-138600D01*
X358895Y-139200D01*
X359208Y-139900D01*
X359365Y-140700D01*
Y-141500D01*
X359208Y-142300D01*
X358895Y-143000D01*
X358425Y-143600D01*
X357877Y-144000D01*
X357250Y-144100D01*
G01X362062D02*
Y-138100D01*
X365038D01*
G01X363942Y-141000D02*
X362062D01*
G01X376150Y-144100D02*
Y-138100D01*
X375210Y-139300D01*
G01Y-144100D02*
X377090D01*
G01X382450Y-138100D02*
X381823Y-138300D01*
X381353Y-138800D01*
X381040Y-139400D01*
X380805Y-140200D01*
X380727Y-141100D01*
X380805Y-142000D01*
X381040Y-142800D01*
X381353Y-143400D01*
X381823Y-143900D01*
X382450Y-144100D01*
X383077Y-143900D01*
X383547Y-143400D01*
X383860Y-142800D01*
X384095Y-142000D01*
X384173Y-141100D01*
X384095Y-140200D01*
X383860Y-139400D01*
X383547Y-138800D01*
X383077Y-138300D01*
X382450Y-138100D01*
G01X386605Y-143300D02*
X387232Y-143800D01*
X387937Y-144100D01*
X388563D01*
X389190Y-143800D01*
X389660Y-143300D01*
X389895Y-142600D01*
X389738Y-141900D01*
X389347Y-141300D01*
X388642Y-140900D01*
X387702Y-140700D01*
X387153Y-140300D01*
X386918Y-139600D01*
X387075Y-138900D01*
X387467Y-138400D01*
X388015Y-138100D01*
X388563D01*
X389112Y-138300D01*
X389582Y-138800D01*
G01X396117Y-144100D02*
X392983D01*
Y-138100D01*
X396117D01*
G01X394863Y-141000D02*
X392983D01*
G01X402573Y-138600D02*
X402103Y-138300D01*
X401555Y-138100D01*
X400928D01*
X400223Y-138400D01*
X399675Y-138900D01*
X399283Y-139500D01*
X398970Y-140500D01*
X398892Y-141400D01*
X399048Y-142300D01*
X399283Y-142900D01*
X399753Y-143500D01*
X400302Y-143900D01*
X400850Y-144100D01*
X401398D01*
X401947Y-143900D01*
X402417Y-143600D01*
X402808Y-143200D01*
G01X407150Y-144100D02*
X406523Y-144000D01*
X405975Y-143600D01*
X405505Y-143000D01*
X405192Y-142300D01*
X405035Y-141500D01*
Y-140700D01*
X405192Y-139900D01*
X405505Y-139200D01*
X405975Y-138600D01*
X406523Y-138200D01*
X407150Y-138100D01*
X407777Y-138200D01*
X408325Y-138600D01*
X408795Y-139200D01*
X409108Y-139900D01*
X409265Y-140700D01*
Y-141500D01*
X409108Y-142300D01*
X408795Y-143000D01*
X408325Y-143600D01*
X407777Y-144000D01*
X407150Y-144100D01*
G01X411648D02*
Y-138100D01*
X415252Y-144100D01*
Y-138100D01*
G01X418027Y-144100D02*
Y-138100D01*
X419593D01*
X420220Y-138400D01*
X420690Y-138800D01*
X421082Y-139400D01*
X421395Y-140100D01*
X421473Y-141100D01*
X421395Y-142100D01*
X421082Y-142800D01*
X420690Y-143400D01*
X420220Y-143800D01*
X419593Y-144100D01*
X418027D01*
G01X424092D02*
X426050Y-138100D01*
X428008Y-144100D01*
G01X427303Y-142000D02*
X424797D01*
G01X430783Y-144100D02*
Y-138100D01*
X432742D01*
X433368Y-138400D01*
X433760Y-138800D01*
X433917Y-139600D01*
X433760Y-140400D01*
X433290Y-140900D01*
X432742Y-141200D01*
X430783D01*
G01X432742D02*
X433917Y-144100D01*
G01X438650D02*
Y-141400D01*
X437083Y-138100D01*
G01X440217D02*
X438650Y-141400D01*
G01X449605Y-143300D02*
X450232Y-143800D01*
X450937Y-144100D01*
X451563D01*
X452190Y-143800D01*
X452660Y-143300D01*
X452895Y-142600D01*
X452738Y-141900D01*
X452347Y-141300D01*
X451642Y-140900D01*
X450702Y-140700D01*
X450153Y-140300D01*
X449918Y-139600D01*
X450075Y-138900D01*
X450467Y-138400D01*
X451015Y-138100D01*
X451563D01*
X452112Y-138300D01*
X452582Y-138800D01*
G01X456610Y-138100D02*
X458490D01*
G01X457550D02*
Y-144100D01*
G01X456610D02*
X458490D01*
G01X462283Y-138100D02*
Y-144100D01*
X465417D01*
G01X468427D02*
Y-138100D01*
G01X471403D02*
X468427Y-141800D01*
G01X471873Y-144100D02*
X469758Y-140100D01*
G01X474805Y-143300D02*
X475432Y-143800D01*
X476137Y-144100D01*
X476763D01*
X477390Y-143800D01*
X477860Y-143300D01*
X478095Y-142600D01*
X477938Y-141900D01*
X477547Y-141300D01*
X476842Y-140900D01*
X475902Y-140700D01*
X475353Y-140300D01*
X475118Y-139600D01*
X475275Y-138900D01*
X475667Y-138400D01*
X476215Y-138100D01*
X476763D01*
X477312Y-138300D01*
X477782Y-138800D01*
G01X484473Y-138600D02*
X484003Y-138300D01*
X483455Y-138100D01*
X482828D01*
X482123Y-138400D01*
X481575Y-138900D01*
X481183Y-139500D01*
X480870Y-140500D01*
X480792Y-141400D01*
X480948Y-142300D01*
X481183Y-142900D01*
X481653Y-143500D01*
X482202Y-143900D01*
X482750Y-144100D01*
X483298D01*
X483847Y-143900D01*
X484317Y-143600D01*
X484708Y-143200D01*
G01X487483Y-144100D02*
Y-138100D01*
X489442D01*
X490068Y-138400D01*
X490460Y-138800D01*
X490617Y-139600D01*
X490460Y-140400D01*
X489990Y-140900D01*
X489442Y-141200D01*
X487483D01*
G01X489442D02*
X490617Y-144100D01*
G01X496917D02*
X493783D01*
Y-138100D01*
X496917D01*
G01X495663Y-141000D02*
X493783D01*
G01X503217Y-144100D02*
X500083D01*
Y-138100D01*
X503217D01*
G01X501963Y-141000D02*
X500083D01*
G01X506148Y-144100D02*
Y-138100D01*
X509752Y-144100D01*
Y-138100D01*
G01X389042Y-135600D02*
Y-131600D01*
X391258D01*
G01X390442Y-133533D02*
X389042D01*
G01X394250Y-131600D02*
X395650D01*
G01X394950D02*
Y-135600D01*
G01X394250D02*
X395650D01*
G01X398583Y-131600D02*
Y-135600D01*
X400917D01*
G01X403033D02*
Y-131600D01*
X404550Y-134933D01*
X406067Y-131600D01*
Y-135600D01*
G01X513867D02*
Y-131600D01*
X515033D01*
X515500Y-131800D01*
X515850Y-132067D01*
X516142Y-132467D01*
X516375Y-132933D01*
X516433Y-133600D01*
X516375Y-134267D01*
X516142Y-134733D01*
X515850Y-135133D01*
X515500Y-135400D01*
X515033Y-135600D01*
X513867D01*
G01X518492D02*
X519950Y-131600D01*
X521408Y-135600D01*
G01X520883Y-134200D02*
X519017D01*
G01X524750Y-131600D02*
Y-135600D01*
G01X523408Y-131600D02*
X526092D01*
G01X530717Y-135600D02*
X528383D01*
Y-131600D01*
X530717D01*
G01X529783Y-133533D02*
X528383D01*
G01X513808Y-55600D02*
Y-51600D01*
X516492Y-55600D01*
Y-51600D01*
G01X518492Y-55600D02*
X519950Y-51600D01*
X521408Y-55600D01*
G01X520883Y-54200D02*
X519017D01*
G01X523233Y-55600D02*
Y-51600D01*
X524750Y-54933D01*
X526267Y-51600D01*
Y-55600D01*
G01X530717D02*
X528383D01*
Y-51600D01*
X530717D01*
G01X529783Y-53533D02*
X528383D01*
G01X517150Y-139600D02*
X516683Y-139733D01*
X516333Y-140067D01*
X516100Y-140467D01*
X515925Y-141000D01*
X515867Y-141600D01*
X515925Y-142200D01*
X516100Y-142733D01*
X516333Y-143133D01*
X516683Y-143467D01*
X517150Y-143600D01*
X517617Y-143467D01*
X517967Y-143133D01*
X518200Y-142733D01*
X518375Y-142200D01*
X518433Y-141600D01*
X518375Y-141000D01*
X518200Y-140467D01*
X517967Y-140067D01*
X517617Y-139733D01*
X517150Y-139600D01*
G01X520667Y-142800D02*
X521017Y-143267D01*
X521483Y-143533D01*
X522008Y-143600D01*
X522475Y-143533D01*
X522942Y-143200D01*
X523233Y-142800D01*
X523292Y-142400D01*
X523175Y-141933D01*
X522767Y-141600D01*
X522358Y-141467D01*
X521833D01*
G01X522358D02*
X522708Y-141267D01*
X523000Y-140933D01*
X523117Y-140533D01*
X523000Y-140133D01*
X522708Y-139800D01*
X522183Y-139600D01*
X521658Y-139667D01*
X521133Y-139933D01*
G01X525992Y-142267D02*
X527508D01*
G01X531550Y-143600D02*
Y-139600D01*
X530850Y-140400D01*
G01Y-143600D02*
X532250D01*
G01X535067Y-142800D02*
X535417Y-143267D01*
X535883Y-143533D01*
X536408Y-143600D01*
X536875Y-143533D01*
X537342Y-143200D01*
X537633Y-142800D01*
X537692Y-142400D01*
X537575Y-141933D01*
X537167Y-141600D01*
X536758Y-141467D01*
X536233D01*
G01X536758D02*
X537108Y-141267D01*
X537400Y-140933D01*
X537517Y-140533D01*
X537400Y-140133D01*
X537108Y-139800D01*
X536583Y-139600D01*
X536058Y-139667D01*
X535533Y-139933D01*
G01X540392Y-142267D02*
X541908D01*
G01X544842Y-140267D02*
X545192Y-139867D01*
X545600Y-139667D01*
X546067Y-139600D01*
X546650Y-139733D01*
X547058Y-140067D01*
X547175Y-140467D01*
X547117Y-140867D01*
X546883Y-141200D01*
X545717Y-141867D01*
X545192Y-142333D01*
X544842Y-143000D01*
X544725Y-143600D01*
X547175D01*
G01X551450D02*
Y-139600D01*
X549292Y-142467D01*
X552208D01*
G01X523400Y-121433D02*
X526900D01*
G01X528200D02*
X531700D01*
G01X533000D02*
X536500D01*
G01X545633Y-116433D02*
X545283Y-116233D01*
X544875Y-116100D01*
X544408D01*
X543883Y-116300D01*
X543475Y-116633D01*
X543183Y-117033D01*
X542950Y-117700D01*
X542892Y-118300D01*
X543008Y-118900D01*
X543183Y-119300D01*
X543533Y-119700D01*
X543942Y-119967D01*
X544350Y-120100D01*
X544758D01*
X545167Y-119967D01*
X545517Y-119767D01*
X545808Y-119500D01*
G01X549150Y-120100D02*
X548683Y-120033D01*
X548275Y-119767D01*
X547925Y-119367D01*
X547692Y-118900D01*
X547575Y-118367D01*
Y-117833D01*
X547692Y-117300D01*
X547925Y-116833D01*
X548275Y-116433D01*
X548683Y-116167D01*
X549150Y-116100D01*
X549617Y-116167D01*
X550025Y-116433D01*
X550375Y-116833D01*
X550608Y-117300D01*
X550725Y-117833D01*
Y-118367D01*
X550608Y-118900D01*
X550375Y-119367D01*
X550025Y-119767D01*
X549617Y-120033D01*
X549150Y-120100D01*
G01X552433D02*
Y-116100D01*
X553950Y-119433D01*
X555467Y-116100D01*
Y-120100D01*
G01X557583D02*
Y-116100D01*
X558983D01*
X559450Y-116300D01*
X559800Y-116767D01*
X559917Y-117300D01*
X559800Y-117833D01*
X559508Y-118233D01*
X558983Y-118433D01*
X557583D01*
G01X562092Y-120100D02*
X563550Y-116100D01*
X565008Y-120100D01*
G01X564483Y-118700D02*
X562617D01*
G01X567008Y-120100D02*
Y-116100D01*
X569692Y-120100D01*
Y-116100D01*
G01X573150Y-120100D02*
Y-118300D01*
X571983Y-116100D01*
G01X574317D02*
X573150Y-118300D01*
G01X584033Y-116433D02*
X583683Y-116233D01*
X583275Y-116100D01*
X582808D01*
X582283Y-116300D01*
X581875Y-116633D01*
X581583Y-117033D01*
X581350Y-117700D01*
X581292Y-118300D01*
X581408Y-118900D01*
X581583Y-119300D01*
X581933Y-119700D01*
X582342Y-119967D01*
X582750Y-120100D01*
X583158D01*
X583567Y-119967D01*
X583917Y-119767D01*
X584208Y-119500D01*
G01X587550Y-120100D02*
X587083Y-120033D01*
X586675Y-119767D01*
X586325Y-119367D01*
X586092Y-118900D01*
X585975Y-118367D01*
Y-117833D01*
X586092Y-117300D01*
X586325Y-116833D01*
X586675Y-116433D01*
X587083Y-116167D01*
X587550Y-116100D01*
X588017Y-116167D01*
X588425Y-116433D01*
X588775Y-116833D01*
X589008Y-117300D01*
X589125Y-117833D01*
Y-118367D01*
X589008Y-118900D01*
X588775Y-119367D01*
X588425Y-119767D01*
X588017Y-120033D01*
X587550Y-120100D01*
G01X591008D02*
Y-116100D01*
X593692Y-120100D01*
Y-116100D01*
G01X596042Y-120100D02*
Y-116100D01*
X598258D01*
G01X597442Y-118033D02*
X596042D01*
G01X601250Y-116100D02*
X602650D01*
G01X601950D02*
Y-120100D01*
G01X601250D02*
X602650D01*
G01X605467D02*
Y-116100D01*
X606633D01*
X607100Y-116300D01*
X607450Y-116567D01*
X607742Y-116967D01*
X607975Y-117433D01*
X608033Y-118100D01*
X607975Y-118767D01*
X607742Y-119233D01*
X607450Y-119633D01*
X607100Y-119900D01*
X606633Y-120100D01*
X605467D01*
G01X612717D02*
X610383D01*
Y-116100D01*
X612717D01*
G01X611783Y-118033D02*
X610383D01*
G01X615008Y-120100D02*
Y-116100D01*
X617692Y-120100D01*
Y-116100D01*
G01X621150D02*
Y-120100D01*
G01X619808Y-116100D02*
X622492D01*
G01X625250D02*
X626650D01*
G01X625950D02*
Y-120100D01*
G01X625250D02*
X626650D01*
G01X629292D02*
X630750Y-116100D01*
X632208Y-120100D01*
G01X631683Y-118700D02*
X629817D01*
G01X634383Y-116100D02*
Y-120100D01*
X636717D01*
G01X523400Y-104933D02*
X526900D01*
G01X528200D02*
X531700D01*
G01X533000D02*
X536500D01*
G01X545633Y-99933D02*
X545283Y-99733D01*
X544875Y-99600D01*
X544408D01*
X543883Y-99800D01*
X543475Y-100133D01*
X543183Y-100533D01*
X542950Y-101200D01*
X542892Y-101800D01*
X543008Y-102400D01*
X543183Y-102800D01*
X543533Y-103200D01*
X543942Y-103467D01*
X544350Y-103600D01*
X544758D01*
X545167Y-103467D01*
X545517Y-103267D01*
X545808Y-103000D01*
G01X549150Y-103600D02*
X548683Y-103533D01*
X548275Y-103267D01*
X547925Y-102867D01*
X547692Y-102400D01*
X547575Y-101867D01*
Y-101333D01*
X547692Y-100800D01*
X547925Y-100333D01*
X548275Y-99933D01*
X548683Y-99667D01*
X549150Y-99600D01*
X549617Y-99667D01*
X550025Y-99933D01*
X550375Y-100333D01*
X550608Y-100800D01*
X550725Y-101333D01*
Y-101867D01*
X550608Y-102400D01*
X550375Y-102867D01*
X550025Y-103267D01*
X549617Y-103533D01*
X549150Y-103600D01*
G01X552433D02*
Y-99600D01*
X553950Y-102933D01*
X555467Y-99600D01*
Y-103600D01*
G01X557583D02*
Y-99600D01*
X558983D01*
X559450Y-99800D01*
X559800Y-100267D01*
X559917Y-100800D01*
X559800Y-101333D01*
X559508Y-101733D01*
X558983Y-101933D01*
X557583D01*
G01X562092Y-103600D02*
X563550Y-99600D01*
X565008Y-103600D01*
G01X564483Y-102200D02*
X562617D01*
G01X567008Y-103600D02*
Y-99600D01*
X569692Y-103600D01*
Y-99600D01*
G01X573150Y-103600D02*
Y-101800D01*
X571983Y-99600D01*
G01X574317D02*
X573150Y-101800D01*
G01X582050Y-99600D02*
X583450D01*
G01X582750D02*
Y-103600D01*
G01X582050D02*
X583450D01*
G01X586208D02*
Y-99600D01*
X588892Y-103600D01*
Y-99600D01*
G01X592350D02*
Y-103600D01*
G01X591008Y-99600D02*
X593692D01*
G01X598317Y-103600D02*
X595983D01*
Y-99600D01*
X598317D01*
G01X597383Y-101533D02*
X595983D01*
G01X600783Y-103600D02*
Y-99600D01*
X602242D01*
X602708Y-99800D01*
X603000Y-100067D01*
X603117Y-100600D01*
X603000Y-101133D01*
X602650Y-101467D01*
X602242Y-101667D01*
X600783D01*
G01X602242D02*
X603117Y-103600D01*
G01X605408D02*
Y-99600D01*
X608092Y-103600D01*
Y-99600D01*
G01X610092Y-103600D02*
X611550Y-99600D01*
X613008Y-103600D01*
G01X612483Y-102200D02*
X610617D01*
G01X615183Y-99600D02*
Y-103600D01*
X617517D01*
G01X523400Y-88933D02*
X526900D01*
G01X528200D02*
X531700D01*
G01X533000D02*
X536500D01*
G01X545633Y-83933D02*
X545283Y-83733D01*
X544875Y-83600D01*
X544408D01*
X543883Y-83800D01*
X543475Y-84133D01*
X543183Y-84533D01*
X542950Y-85200D01*
X542892Y-85800D01*
X543008Y-86400D01*
X543183Y-86800D01*
X543533Y-87200D01*
X543942Y-87467D01*
X544350Y-87600D01*
X544758D01*
X545167Y-87467D01*
X545517Y-87267D01*
X545808Y-87000D01*
G01X549150Y-87600D02*
X548683Y-87533D01*
X548275Y-87267D01*
X547925Y-86867D01*
X547692Y-86400D01*
X547575Y-85867D01*
Y-85333D01*
X547692Y-84800D01*
X547925Y-84333D01*
X548275Y-83933D01*
X548683Y-83667D01*
X549150Y-83600D01*
X549617Y-83667D01*
X550025Y-83933D01*
X550375Y-84333D01*
X550608Y-84800D01*
X550725Y-85333D01*
Y-85867D01*
X550608Y-86400D01*
X550375Y-86867D01*
X550025Y-87267D01*
X549617Y-87533D01*
X549150Y-87600D01*
G01X552433D02*
Y-83600D01*
X553950Y-86933D01*
X555467Y-83600D01*
Y-87600D01*
G01X557583D02*
Y-83600D01*
X558983D01*
X559450Y-83800D01*
X559800Y-84267D01*
X559917Y-84800D01*
X559800Y-85333D01*
X559508Y-85733D01*
X558983Y-85933D01*
X557583D01*
G01X562092Y-87600D02*
X563550Y-83600D01*
X565008Y-87600D01*
G01X564483Y-86200D02*
X562617D01*
G01X567008Y-87600D02*
Y-83600D01*
X569692Y-87600D01*
Y-83600D01*
G01X573150Y-87600D02*
Y-85800D01*
X571983Y-83600D01*
G01X574317D02*
X573150Y-85800D01*
G01X581583Y-87600D02*
Y-83600D01*
X582983D01*
X583450Y-83800D01*
X583800Y-84267D01*
X583917Y-84800D01*
X583800Y-85333D01*
X583508Y-85733D01*
X582983Y-85933D01*
X581583D01*
G01X586267Y-83600D02*
Y-86467D01*
X586500Y-87067D01*
X586967Y-87467D01*
X587550Y-87600D01*
X588133Y-87467D01*
X588600Y-87067D01*
X588833Y-86467D01*
Y-83600D01*
G01X592817Y-85467D02*
X593050Y-85267D01*
X593225Y-84933D01*
X593342Y-84467D01*
X593225Y-84067D01*
X592992Y-83800D01*
X592583Y-83600D01*
X591008D01*
Y-87600D01*
X592933D01*
X593342Y-87333D01*
X593575Y-86933D01*
X593692Y-86467D01*
X593575Y-86000D01*
X593225Y-85600D01*
X592817Y-85467D01*
X591008D01*
G01X595983Y-83600D02*
Y-87600D01*
X598317D01*
G01X601250Y-83600D02*
X602650D01*
G01X601950D02*
Y-87600D01*
G01X601250D02*
X602650D01*
G01X608033Y-83933D02*
X607683Y-83733D01*
X607275Y-83600D01*
X606808D01*
X606283Y-83800D01*
X605875Y-84133D01*
X605583Y-84533D01*
X605350Y-85200D01*
X605292Y-85800D01*
X605408Y-86400D01*
X605583Y-86800D01*
X605933Y-87200D01*
X606342Y-87467D01*
X606750Y-87600D01*
X607158D01*
X607567Y-87467D01*
X607917Y-87267D01*
X608208Y-87000D01*
G01X528105Y-104600D02*
X531395Y-98300D01*
G01X528105D02*
X531395Y-104600D01*
G01X563808Y-135600D02*
Y-131600D01*
X566492Y-135600D01*
Y-131600D01*
G01X568667D02*
Y-134467D01*
X568900Y-135067D01*
X569367Y-135467D01*
X569950Y-135600D01*
X570533Y-135467D01*
X571000Y-135067D01*
X571233Y-134467D01*
Y-131600D01*
G01X573233Y-135600D02*
Y-131600D01*
X574750Y-134933D01*
X576267Y-131600D01*
Y-135600D01*
G01X580017Y-133467D02*
X580250Y-133267D01*
X580425Y-132933D01*
X580542Y-132467D01*
X580425Y-132067D01*
X580192Y-131800D01*
X579783Y-131600D01*
X578208D01*
Y-135600D01*
X580133D01*
X580542Y-135333D01*
X580775Y-134933D01*
X580892Y-134467D01*
X580775Y-134000D01*
X580425Y-133600D01*
X580017Y-133467D01*
X578208D01*
G01X585517Y-135600D02*
X583183D01*
Y-131600D01*
X585517D01*
G01X584583Y-133533D02*
X583183D01*
G01X587983Y-135600D02*
Y-131600D01*
X589442D01*
X589908Y-131800D01*
X590200Y-132067D01*
X590317Y-132600D01*
X590200Y-133133D01*
X589850Y-133467D01*
X589442Y-133667D01*
X587983D01*
G01X589442D02*
X590317Y-135600D01*
G01X586862Y-65700D02*
Y-59400D01*
X589838D01*
G01X588742Y-62445D02*
X586862D01*
G01X593083Y-65700D02*
Y-59400D01*
X595042D01*
X595668Y-59715D01*
X596060Y-60135D01*
X596217Y-60975D01*
X596060Y-61815D01*
X595590Y-62340D01*
X595042Y-62655D01*
X593083D01*
G01X595042D02*
X596217Y-65700D01*
G01X599227D02*
Y-59400D01*
X600793D01*
X601420Y-59715D01*
X601890Y-60135D01*
X602282Y-60765D01*
X602595Y-61500D01*
X602673Y-62550D01*
X602595Y-63600D01*
X602282Y-64335D01*
X601890Y-64965D01*
X601420Y-65385D01*
X600793Y-65700D01*
X599227D01*
G01X605213D02*
Y-59400D01*
X607250Y-64650D01*
X609287Y-59400D01*
Y-65700D01*
G01X612532Y-63600D02*
X614568D01*
G01X617813Y-65700D02*
Y-59400D01*
X619850Y-64650D01*
X621887Y-59400D01*
Y-65700D01*
G01X627873Y-59925D02*
X627403Y-59610D01*
X626855Y-59400D01*
X626228D01*
X625523Y-59715D01*
X624975Y-60240D01*
X624583Y-60870D01*
X624270Y-61920D01*
X624192Y-62865D01*
X624348Y-63810D01*
X624583Y-64440D01*
X625053Y-65070D01*
X625602Y-65490D01*
X626150Y-65700D01*
X626698D01*
X627247Y-65490D01*
X627717Y-65175D01*
X628108Y-64755D01*
G01X630805Y-65700D02*
X634095Y-59400D01*
G01X630805D02*
X634095Y-65700D01*
G01X640473Y-59925D02*
X640003Y-59610D01*
X639455Y-59400D01*
X638828D01*
X638123Y-59715D01*
X637575Y-60240D01*
X637183Y-60870D01*
X636870Y-61920D01*
X636792Y-62865D01*
X636948Y-63810D01*
X637183Y-64440D01*
X637653Y-65070D01*
X638202Y-65490D01*
X638750Y-65700D01*
X639298D01*
X639847Y-65490D01*
X640317Y-65175D01*
X640708Y-64755D01*
G01X645990Y-65700D02*
Y-59400D01*
X643092Y-63915D01*
X647008D01*
G01X652290Y-65700D02*
Y-59400D01*
X649392Y-63915D01*
X653308D01*
G01X658590Y-65700D02*
Y-59400D01*
X655692Y-63915D01*
X659608D01*
G01X598750Y-142800D02*
Y-136500D01*
X597810Y-137760D01*
G01Y-142800D02*
X599690D01*
G01X604893D02*
X605050Y-141435D01*
X605285Y-140280D01*
X605598Y-139230D01*
X605990Y-138075D01*
X606617Y-136500D01*
X603483D01*
G01X611350D02*
X610723Y-136710D01*
X610253Y-137235D01*
X609940Y-137865D01*
X609705Y-138705D01*
X609627Y-139650D01*
X609705Y-140595D01*
X609940Y-141435D01*
X610253Y-142065D01*
X610723Y-142590D01*
X611350Y-142800D01*
X611977Y-142590D01*
X612447Y-142065D01*
X612760Y-141435D01*
X612995Y-140595D01*
X613073Y-139650D01*
X612995Y-138705D01*
X612760Y-137865D01*
X612447Y-137235D01*
X611977Y-136710D01*
X611350Y-136500D01*
G01X616632Y-140700D02*
X618668D01*
G01X622618Y-142065D02*
X623167Y-142590D01*
X623793Y-142800D01*
X624420Y-142590D01*
X624968Y-141960D01*
X625360Y-141015D01*
X625517Y-140070D01*
Y-138915D01*
X625360Y-137970D01*
X624968Y-137130D01*
X624498Y-136710D01*
X623950Y-136500D01*
X623323Y-136710D01*
X622853Y-137130D01*
X622540Y-137760D01*
X622383Y-138600D01*
X622540Y-139335D01*
X622932Y-140070D01*
X623402Y-140490D01*
X623950Y-140595D01*
X624577Y-140385D01*
X625047Y-139860D01*
X625517Y-138915D01*
G01X628527Y-141540D02*
X628997Y-142275D01*
X629623Y-142695D01*
X630328Y-142800D01*
X630955Y-142695D01*
X631582Y-142170D01*
X631973Y-141540D01*
X632052Y-140910D01*
X631895Y-140175D01*
X631347Y-139650D01*
X630798Y-139440D01*
X630093D01*
G01X630798D02*
X631268Y-139125D01*
X631660Y-138600D01*
X631817Y-137970D01*
X631660Y-137340D01*
X631268Y-136815D01*
X630563Y-136500D01*
X629858Y-136605D01*
X629153Y-137025D01*
G01X637490Y-142800D02*
Y-136500D01*
X634592Y-141015D01*
X638508D01*
G01X643790Y-142800D02*
Y-136500D01*
X640892Y-141015D01*
X644808D01*
G01X649150Y-136500D02*
X648523Y-136710D01*
X648053Y-137235D01*
X647740Y-137865D01*
X647505Y-138705D01*
X647427Y-139650D01*
X647505Y-140595D01*
X647740Y-141435D01*
X648053Y-142065D01*
X648523Y-142590D01*
X649150Y-142800D01*
X649777Y-142590D01*
X650247Y-142065D01*
X650560Y-141435D01*
X650795Y-140595D01*
X650873Y-139650D01*
X650795Y-138705D01*
X650560Y-137865D01*
X650247Y-137235D01*
X649777Y-136710D01*
X649150Y-136500D01*
G01X691683Y-142800D02*
Y-136500D01*
X693642D01*
X694268Y-136815D01*
X694660Y-137235D01*
X694817Y-138075D01*
X694660Y-138915D01*
X694190Y-139440D01*
X693642Y-139755D01*
X691683D01*
G01X693642D02*
X694817Y-142800D01*
G01X701117D02*
X697983D01*
Y-136500D01*
X701117D01*
G01X699863Y-139545D02*
X697983D01*
G01X703892Y-136500D02*
X705850Y-142800D01*
X707808Y-136500D01*
G01X716492Y-142800D02*
X718450Y-136500D01*
X720408Y-142800D01*
G01X719703Y-140595D02*
X717197D01*
G54D14*
G01X112000Y143000D02*
X42000D01*
Y123000D01*
X112000D01*
Y143000D01*
G01X312000Y122000D02*
X287000D01*
G01D02*
Y147000D01*
G01D02*
X312000D01*
G01X310300Y146200D02*
X289400Y123700D01*
G01X309800Y123600D02*
X288100Y145800D01*
G01X297500Y126890D02*
G03I-1800J0D01*
G01X296100D02*
G03I-400J0D01*
G01X295100Y129000D02*
X294000Y142200D01*
G01X300100Y138000D02*
X296600D01*
G01D02*
Y137100D01*
G01D02*
X300100D01*
G01X294100Y140500D02*
X292500D01*
G01D02*
Y138600D01*
G01D02*
X294200D01*
G01D02*
X294100Y140500D01*
G01X306200Y142000D02*
X292600D01*
G01X294000Y142200D02*
Y142100D01*
G01Y143000D02*
G03I-750J0D01*
G01X292600Y142000D02*
X294000D01*
G01X294200Y143000D02*
G02X296900Y144000I2576J-2811D01*
G01X294200Y143000D01*
G01X302900Y126500D02*
X297600D01*
G01X300100Y137100D02*
Y138000D01*
G01X300500Y144000D02*
G02X304200Y142800I-182J-6867D01*
G01X300500Y144000D01*
G01X300400Y144600D02*
X297000D01*
G01D02*
Y143700D01*
G01D02*
X300400D01*
G01D02*
Y144600D01*
G01X302900Y127800D02*
Y126500D01*
G01X301500Y126000D02*
Y125500D01*
G01X304200Y142700D02*
X302900Y127800D01*
G01X302000Y144000D02*
Y142500D01*
G01X312000Y147000D02*
Y122000D01*
M02*
